<?xml version="1.0" encoding="utf-8"?>
<!-- Generator: Adobe Illustrator 15.1.0, SVG Export Plug-In . SVG Version: 6.00 Build 0)  -->
<!DOCTYPE svg PUBLIC "-//W3C//DTD SVG 1.1//EN" "http://www.w3.org/Graphics/SVG/1.1/DTD/svg11.dtd">
<svg version="1.1" id="圖層_1" xmlns="http://www.w3.org/2000/svg" xmlns:xlink="http://www.w3.org/1999/xlink" x="0px" y="0px"
	 width="100px" height="100px" viewBox="0 0 100 100" enable-background="new 0 0 100 100" xml:space="preserve">
<path fill="#0F5D8A" d="M57.797,70.084c-0.021,0.012-1.869,0.619-3.463,0.619c-0.887,0-1.235-0.183-1.355-0.261
	c-0.557-0.39-1.599-1.12,0.184-4.667l3.333-6.645c1.976-3.942,2.267-7.768,0.817-10.754c-1.187-2.443-3.469-4.118-6.407-4.719
	c-1.048-0.213-2.126-0.326-3.188-0.326c-6.164,0-10.312,3.599-10.485,3.755c-0.596,0.529-0.736,1.396-0.34,2.086
	c0.4,0.688,1.222,1.002,1.983,0.74c0.016-0.005,1.863-0.623,3.461-0.623c0.88,0,1.226,0.18,1.338,0.261
	c0.565,0.389,1.613,1.129-0.168,4.672l-3.334,6.65c-1.98,3.948-2.268,7.766-0.818,10.75c1.191,2.448,3.461,4.119,6.406,4.719
	c1.044,0.209,2.123,0.324,3.179,0.324c6.167,0,10.312-3.601,10.488-3.75c0.601-0.527,0.742-1.401,0.341-2.095
	C59.375,70.145,58.543,69.843,57.797,70.084z"/>
<path fill="#0F5D8A" d="M63.334,31.67c0,4.601-3.729,8.335-8.334,8.335c-4.61,0-8.34-3.734-8.34-8.335
	c0-4.603,3.73-8.336,8.34-8.336C59.605,23.333,63.334,27.067,63.334,31.67z"/>
<path fill="#0F5D8A" d="M50,10c22.063,0,39.999,17.944,39.999,40c0,22.057-17.937,39.999-39.999,39.999c-22.06,0-40-17.94-40-39.999
	C10,27.943,27.94,10,50,10 M50,2C23.488,2,2,23.488,2,50c0,26.51,21.488,48,48,48c26.51,0,48-21.49,48-48C98,23.488,76.51,2,50,2
	L50,2z"/>
</svg>
