<?xml version="1.0" encoding="utf-8"?>
<!-- Generator: Adobe Illustrator 15.1.0, SVG Export Plug-In . SVG Version: 6.00 Build 0)  -->
<!DOCTYPE svg PUBLIC "-//W3C//DTD SVG 1.1//EN" "http://www.w3.org/Graphics/SVG/1.1/DTD/svg11.dtd">
<svg version="1.1" id="圖層_1" xmlns="http://www.w3.org/2000/svg" xmlns:xlink="http://www.w3.org/1999/xlink" x="0px" y="0px"
	 width="100px" height="100px" viewBox="0 0 100 100" enable-background="new 0 0 100 100" xml:space="preserve">
<title>keyboard_arrow_up</title>
<title>keyboard_arrow_up</title>
<path fill="#FFFFFF" d="M73.201,54.801H26.799c-2.4,0-4-2.401-4-4.801c0-2.4,2.4-4.8,4.8-4.8h45.602c2.398,0,4.797,2.4,4.797,4.8
	C77.201,52.399,75.601,54.801,73.201,54.801L73.201,54.801z"/>
<path fill="#FFFFFF" d="M77.201,98H22.799C11.6,98,2,88.399,2,77.201V22.799C2,11.6,11.6,2,22.799,2h55.2
	C88.399,2,98,11.6,98,22.799v55.2C98,88.399,88.399,98,77.201,98z M23.6,7.601c-8.799,0-15.2,7.2-15.2,15.2v53.599
	c0,8.802,7.201,15.2,15.2,15.2h53.602c8.799,0,15.2-7.2,15.2-15.2V23.6c0-8.799-7.2-15.2-15.2-15.2H23.6V7.601z"/>
</svg>
