<?xml version="1.0" encoding="utf-8"?>
<!-- Generator: Adobe Illustrator 15.1.0, SVG Export Plug-In . SVG Version: 6.00 Build 0)  -->
<!DOCTYPE svg PUBLIC "-//W3C//DTD SVG 1.1//EN" "http://www.w3.org/Graphics/SVG/1.1/DTD/svg11.dtd">
<svg version="1.1" id="圖層_1" xmlns="http://www.w3.org/2000/svg" xmlns:xlink="http://www.w3.org/1999/xlink" x="0px" y="0px"
	 width="100px" height="100px" viewBox="0 0 100 100" enable-background="new 0 0 100 100" xml:space="preserve">
<title>keyboard_arrow_up</title>
<title>keyboard_arrow_up</title>
<path d="M89.271,19.457H98v61.086h-8.729V19.457z"/>
<path d="M71.816,19.457h8.727v61.086h-8.727V19.457L71.816,19.457z"/>
<path d="M41.174,43.438c0,4.829-3.907,8.729-8.729,8.729c-4.823,0-8.726-3.9-8.726-8.729c0-4.814,3.902-8.728,8.726-8.728
	C37.267,34.709,41.174,38.623,41.174,43.438z"/>
<path d="M58.729,19.457H6.364c-2.4,0-4.364,1.959-4.364,4.354v52.365c0,2.398,1.964,4.367,4.364,4.367h52.364
	c2.398,0,4.357-1.969,4.357-4.367V23.811C63.086,21.416,61.127,19.457,58.729,19.457z M32.537,75.885
	c-4.215,0-19.637-21.281-19.637-32.129c0-10.846,8.794-19.641,19.632-19.641c10.844,0,19.639,8.803,19.644,19.641
	C52.182,54.604,35.652,75.885,32.537,75.885z"/>
</svg>
