<?xml version="1.0" encoding="utf-8"?>
<!-- Generator: Adobe Illustrator 15.1.0, SVG Export Plug-In . SVG Version: 6.00 Build 0)  -->
<!DOCTYPE svg PUBLIC "-//W3C//DTD SVG 1.1//EN" "http://www.w3.org/Graphics/SVG/1.1/DTD/svg11.dtd">
<svg version="1.1" id="圖層_1" xmlns="http://www.w3.org/2000/svg" xmlns:xlink="http://www.w3.org/1999/xlink" x="0px" y="0px"
	 width="100px" height="100px" viewBox="0 0 100 100" enable-background="new 0 0 100 100" xml:space="preserve">
<title>keyboard_arrow_up</title>
<title>keyboard_arrow_up</title>
<path d="M58.631,43.438c0,4.829-3.909,8.729-8.729,8.729c-4.823,0-8.726-3.9-8.726-8.729c0-4.814,3.902-8.728,8.726-8.728
	C54.722,34.71,58.631,38.623,58.631,43.438z"/>
<path d="M76.185,19.457H23.821c-2.399,0-4.364,1.959-4.364,4.354v52.364c0,2.399,1.965,4.368,4.364,4.368h52.364
	c2.399,0,4.358-1.969,4.358-4.368V23.811C80.543,21.416,78.584,19.457,76.185,19.457z M49.993,75.884
	c-4.214,0-19.635-21.28-19.635-32.127c0-10.847,8.793-19.641,19.63-19.641c10.845,0,19.638,8.803,19.644,19.641
	C69.636,54.604,53.107,75.884,49.993,75.884z"/>
</svg>
