<?xml version="1.0" encoding="utf-8"?>
<!-- Generator: Adobe Illustrator 15.1.0, SVG Export Plug-In . SVG Version: 6.00 Build 0)  -->
<!DOCTYPE svg PUBLIC "-//W3C//DTD SVG 1.1//EN" "http://www.w3.org/Graphics/SVG/1.1/DTD/svg11.dtd">
<svg version="1.1" id="圖層_1" xmlns="http://www.w3.org/2000/svg" xmlns:xlink="http://www.w3.org/1999/xlink" x="0px" y="0px"
	 width="100px" height="100px" viewBox="0 0 100 100" enable-background="new 0 0 100 100" xml:space="preserve">
<path fill="#AB4A08" d="M93.634,50.004L63.09,26.006v13.09H50v21.82h13.09v13.087L93.634,50.004z"/>
<path fill="#AB4A08" d="M71.816,75.469v5.078H45.642V19.453h26.175v5.078l6.551,5.141V12.913H45.642V2L6.367,11.699v80.965
	L45.642,98V87.091h32.725V70.335L71.816,75.469L71.816,75.469z M37.343,55.459c0,1.447-1.177,2.63-2.617,2.63
	c-1.439,0-2.62-1.183-2.62-2.63V44.551c0-1.455,1.177-2.617,2.62-2.617c1.444,0,2.617,1.17,2.617,2.617V55.459z"/>
</svg>
