<?xml version="1.0" encoding="utf-8"?>
<!-- Generator: Adobe Illustrator 15.1.0, SVG Export Plug-In . SVG Version: 6.00 Build 0)  -->
<!DOCTYPE svg PUBLIC "-//W3C//DTD SVG 1.1//EN" "http://www.w3.org/Graphics/SVG/1.1/DTD/svg11.dtd">
<svg version="1.1" id="圖層_1" xmlns="http://www.w3.org/2000/svg" xmlns:xlink="http://www.w3.org/1999/xlink" x="0px" y="0px"
	 width="100px" height="100px" viewBox="0 0 100 100" enable-background="new 0 0 100 100" xml:space="preserve">
<path fill="#B74E4E" d="M44.045,74.803H13.203V13.2h61.598v30.842c3.979,0.102,7.746,0.961,11.198,2.469V7.601
	C85.998,4.519,83.486,2,80.396,2H7.604C4.905,2,2.641,3.933,2.116,6.475C2.035,6.837,2,7.216,2,7.601v72.802
	c0,3.08,2.523,5.599,5.601,5.599h38.904C45.007,82.551,44.148,78.773,44.045,74.803L44.045,74.803z"/>
<path fill="#B74E4E" d="M53.354,22.262c-2.605-1.877-5.877-2.829-9.742-2.829c-2.988,0-5.565,0.684-7.645,2.03
	c-3.363,2.133-5.181,5.736-5.39,10.722l-0.072,1.558h9.885v-1.497c0-1.022,0.299-1.993,0.91-2.976
	c0.303-0.477,0.899-1.118,2.609-1.118c0.916,0,2.12,0.149,2.607,0.844c0.521,0.735,0.775,1.519,0.775,2.4
	c0,0.539-0.275,1.169-0.884,2.007c-0.252,0.37-0.593,0.721-0.937,0.979c-0.161,0.102-3.905,2.514-5.653,4.564
	c-1.31,1.534-1.381,3.627-1.474,6.081c-0.008,0.544,0.192,1.054,0.557,1.423c0.28,0.283,0.782,0.622,1.592,0.622h5.31
	c1.34,0,2.092-1.001,2.141-2.003c0.03-0.751,0.111-1.061,0.222-1.417c0.157-0.495,0.667-1.083,1.447-1.691l1.95-1.34
	c1.848-1.445,3.222-2.552,3.926-3.558c1.346-1.829,2.028-3.866,2.028-6.042C57.504,27.197,56.105,24.249,53.354,22.262z"/>
<path fill="#B74E4E" d="M43.351,51.158c-3.209,0-5.613,2.34-5.708,5.563c-0.089,3.233,2.305,5.744,5.572,5.838l0.212,0.009
	c3.281,0,5.646-2.267,5.753-5.514C49.268,53.734,46.897,51.257,43.351,51.158z M43.427,61.049L43.427,61.049L43.427,61.049z"/>
<path fill="#B74E4E" d="M74.004,50c-13.232,0-24,10.766-24,23.994c0,13.241,10.76,24.006,24,24.006C87.236,98,98,87.235,98,73.994
	C98,60.766,87.236,50,74.004,50z M91.298,64.002h-3.782c-0.719-2.604-1.703-4.941-2.918-6.926
	C87.355,58.813,89.658,61.191,91.298,64.002z M84.828,73.994c0,2.084-0.184,4.096-0.521,5.998h-8.312v-12h8.312
	C84.648,69.906,84.828,71.922,84.828,73.994z M63.17,73.994c0-2.072,0.185-4.088,0.52-5.99h8.315v12.004h-8.315
	C63.355,78.098,63.17,76.078,63.17,73.994z M71.998,54.375v9.627h-7.313C66.26,59.11,68.916,55.486,71.998,54.375z M71.998,83.998
	v9.623c-3.082-1.115-5.738-4.728-7.313-9.623H71.998z M76.002,93.628v-9.626h7.313C81.74,88.885,79.08,92.516,76.002,93.628z
	 M76.002,64.002v-9.627c3.082,1.111,5.746,4.735,7.313,9.627H76.002z M63.404,57.076c-1.208,1.984-2.201,4.338-2.923,6.926h-3.778
	C58.35,61.191,60.645,58.813,63.404,57.076z M54.922,68.004h4.716c-0.295,1.914-0.47,3.918-0.47,5.99
	c0,2.084,0.172,4.088,0.47,5.998h-4.716c-0.594-1.895-0.92-3.902-0.92-5.998C54.002,71.906,54.328,69.895,54.922,68.004z
	 M56.705,83.998h3.779c0.719,2.6,1.711,4.944,2.918,6.924C60.645,89.191,58.35,86.82,56.705,83.998z M84.604,90.922
	c1.207-1.98,2.193-4.32,2.916-6.921h3.778C89.658,86.82,87.355,89.191,84.604,90.922z M93.078,80h-4.72
	c0.303-1.918,0.474-3.914,0.474-5.994c0-2.084-0.176-4.079-0.474-5.994h4.72c0.598,1.891,0.927,3.898,0.927,5.994
	C94.005,76.094,93.676,78.098,93.078,80z"/>
</svg>
