<?xml version="1.0" encoding="utf-8"?>
<!-- Generator: Adobe Illustrator 15.1.0, SVG Export Plug-In . SVG Version: 6.00 Build 0)  -->
<!DOCTYPE svg PUBLIC "-//W3C//DTD SVG 1.1//EN" "http://www.w3.org/Graphics/SVG/1.1/DTD/svg11.dtd">
<svg version="1.1" id="圖層_1" xmlns="http://www.w3.org/2000/svg" xmlns:xlink="http://www.w3.org/1999/xlink" x="0px" y="0px"
	 width="100px" height="100px" viewBox="0 0 100 100" enable-background="new 0 0 100 100" xml:space="preserve">
<path fill="#222222" d="M83.622,2.922L50,36.542L16.373,2.922c-1.231-1.218-3.246-1.218-4.479,0l-8.971,8.979
	c-1.231,1.219-1.231,3.24,0,4.479L36.55,50.004L2.923,83.629c-1.231,1.229-1.231,3.246,0,4.489l8.971,8.968
	c1.231,1.219,3.251,1.219,4.479,0L50,63.455l33.623,33.621c1.234,1.218,3.25,1.218,4.479,0l8.974-8.967
	c1.233-1.23,1.233-3.252,0-4.49l-33.628-33.62l33.628-33.62c1.233-1.234,1.233-3.249,0-4.489l-8.974-8.974
	C86.867,1.694,84.852,1.694,83.622,2.922z"/>
</svg>
