<?xml version="1.0" encoding="utf-8"?>
<!-- Generator: Adobe Illustrator 15.1.0, SVG Export Plug-In . SVG Version: 6.00 Build 0)  -->
<!DOCTYPE svg PUBLIC "-//W3C//DTD SVG 1.1//EN" "http://www.w3.org/Graphics/SVG/1.1/DTD/svg11.dtd">
<svg version="1.1" id="圖層_1" xmlns="http://www.w3.org/2000/svg" xmlns:xlink="http://www.w3.org/1999/xlink" x="0px" y="0px"
	 width="100px" height="100px" viewBox="0 0 100 100" enable-background="new 0 0 100 100" xml:space="preserve">
<g>
	<path fill="#C1C1C1" d="M85.771,66.343c-3.04,0-5.514,2.475-5.514,5.515v15.121H19.743V71.857c0-3.04-2.475-5.515-5.518-5.515
		c-3.038,0-5.509,2.475-5.509,5.515v20.635c0,2.478,1.719,4.64,4.164,5.251l0.188,0.054C13.398,97.892,13.773,98,14.225,98h71.54
		c3.042,0,5.518-2.471,5.518-5.515l0.002-20.628C91.284,68.817,88.811,66.343,85.771,66.343z"/>
	<path fill="#C1C1C1" d="M23.843,57.004l22.13,19.674c0.279,0.244,0.557,0.4,0.851,0.567l0.182,0.104
		c0.165,0.111,0.414,0.281,0.794,0.427c0.761,0.286,1.484,0.425,2.209,0.425c0.77,0,1.53-0.15,2.26-0.448
		c0.313-0.127,0.553-0.282,0.829-0.461l0.084-0.055c0.211-0.11,0.529-0.276,0.879-0.574l22.111-19.659
		c2.498-2.227,2.722-6.081,0.497-8.592c-1.121-1.265-2.792-1.991-4.586-1.991c-1.525,0-2.953,0.527-4.019,1.483L56.098,58.545V8.093
		c0-3.36-2.734-6.093-6.094-6.093c-3.36,0-6.094,2.733-6.094,6.093V58.54L31.942,47.898c-1.076-0.956-2.504-1.482-4.023-1.482
		c-1.791,0-3.461,0.727-4.579,1.99c-1.083,1.21-1.626,2.778-1.532,4.414C21.903,54.446,22.627,55.933,23.843,57.004z"/>
</g>
</svg>
