<?xml version="1.0" encoding="utf-8"?>
<!-- Generator: Adobe Illustrator 15.1.0, SVG Export Plug-In . SVG Version: 6.00 Build 0)  -->
<!DOCTYPE svg PUBLIC "-//W3C//DTD SVG 1.1//EN" "http://www.w3.org/Graphics/SVG/1.1/DTD/svg11.dtd">
<svg version="1.1" id="圖層_1" xmlns="http://www.w3.org/2000/svg" xmlns:xlink="http://www.w3.org/1999/xlink" x="0px" y="0px"
	 width="100px" height="100px" viewBox="0 0 100 100" enable-background="new 0 0 100 100" xml:space="preserve">
<path fill="#3280B7" d="M96.5,29.701l-4.905,4.92L76.21,19.245l4.919-4.919c0.992-0.993,2.205-1.49,3.631-1.49
	c1.422,0,2.632,0.509,3.638,1.49l8.112,8.117C97.496,23.445,98,24.649,98,26.08C97.995,27.495,97.486,28.704,96.5,29.701
	L96.5,29.701z"/>
<path fill="#3280B7" d="M72.787,22.66L36.915,58.548v15.374h15.38l35.876-35.881L72.787,22.66z M50.158,68.8h-2.989v-5.122h-5.128
	v-2.985l6.195-6.213l8.104,8.117L50.158,68.8z M54.908,50.804c-0.613,0.609-1.201,0.634-1.77,0.062
	c-0.563-0.567-0.541-1.16,0.063-1.781l18.682-18.676c0.611-0.607,1.188-0.628,1.762-0.064c0.572,0.572,0.552,1.161-0.046,1.772
	L54.908,50.804z"/>
<path fill="#3280B7" d="M78.076,60.541l-7.747,7.751v3.913c0.011,2.166-0.74,3.957-2.289,5.506c-1.54,1.54-3.347,2.29-5.508,2.29
	h-44.42c-2.163,0-3.961-0.75-5.496-2.29c-1.542-1.554-2.29-3.345-2.29-5.506V27.776c-0.005-2.156,0.743-3.947,2.29-5.507
	c1.514-1.52,3.366-2.29,5.496-2.29h44.42c0.149,0,0.312,0.049,0.464,0.061l6.598-6.603c-0.162-0.128-0.291-0.291-0.489-0.385
	c-1.997-0.933-4.203-1.407-6.562-1.407H18.122c-4.43,0-8.265,1.594-11.399,4.742C3.587,19.536,2,23.365,2,27.787v44.428
	c-0.005,4.421,1.581,8.261,4.725,11.397c3.133,3.148,6.967,4.742,11.398,4.742h44.42c4.412,0,8.25-1.594,11.398-4.742
	c3.139-3.146,4.736-6.977,4.736-11.397V62.08C78.678,61.458,78.441,60.956,78.076,60.541z"/>
</svg>
