<?xml version="1.0" encoding="utf-8"?>
<!-- Generator: Adobe Illustrator 15.1.0, SVG Export Plug-In . SVG Version: 6.00 Build 0)  -->
<!DOCTYPE svg PUBLIC "-//W3C//DTD SVG 1.1//EN" "http://www.w3.org/Graphics/SVG/1.1/DTD/svg11.dtd">
<svg version="1.1" id="圖層_1" xmlns="http://www.w3.org/2000/svg" xmlns:xlink="http://www.w3.org/1999/xlink" x="0px" y="0px"
	 width="100px" height="100px" viewBox="0 0 100 100" enable-background="new 0 0 100 100" xml:space="preserve">
<path fill="#FFFFFF" d="M63.364,78.954v15.592c0,2.436-2.019,4.454-4.455,4.454H41.091c-2.436,0-4.455-2.019-4.455-4.454V78.954
	c0-2.436,2.019-4.454,4.455-4.454h17.818C61.346,74.5,63.364,76.519,63.364,78.954z M65.452,5.455l-1.949,53.455
	c-0.071,2.436-2.157,4.454-4.594,4.454H41.091c-2.436,0-4.526-2.019-4.594-4.454L34.548,5.455C34.477,3.019,36.428,1,38.864,1
	h22.273C63.573,1,65.52,3.019,65.452,5.455z"/>
</svg>
