<?xml version="1.0" encoding="utf-8"?>
<!-- Generator: Adobe Illustrator 15.1.0, SVG Export Plug-In . SVG Version: 6.00 Build 0)  -->
<!DOCTYPE svg PUBLIC "-//W3C//DTD SVG 1.1//EN" "http://www.w3.org/Graphics/SVG/1.1/DTD/svg11.dtd">
<svg version="1.1" id="圖層_1" xmlns="http://www.w3.org/2000/svg" xmlns:xlink="http://www.w3.org/1999/xlink" x="0px" y="0px"
	 width="100px" height="100px" viewBox="0 0 100 100" enable-background="new 0 0 100 100" xml:space="preserve">
<path fill="#C1C1C1" d="M11.601,11.602C11.601,6.323,15.92,2,21.201,2h57.605c5.301,0,9.594,4.293,9.594,9.602l0,0v76.797
	c0,5.309-4.299,9.602-9.594,9.602l0,0H21.2c-5.301,0-9.601-4.293-9.601-9.602l0,0L11.601,11.602L11.601,11.602z M26.001,16.397V26
	h48v-9.602H26.001z M26.001,35.601V45.2h9.6v-9.599H26.001z M45.2,35.601V45.2h9.602v-9.599H45.2z M64.398,35.601V45.2h9.603v-9.599
	H64.398z M26.001,54.801v9.598h9.6v-9.598H26.001z M45.2,54.801v9.598h9.602v-9.598H45.2z M64.398,54.801v28.801h9.603V54.801
	H64.398z M26.001,74v9.602h9.6V74H26.001z M45.2,74v9.602h9.602V74H45.2z"/>
</svg>
