<?xml version="1.0" encoding="utf-8"?>
<!-- Generator: Adobe Illustrator 15.1.0, SVG Export Plug-In . SVG Version: 6.00 Build 0)  -->
<!DOCTYPE svg PUBLIC "-//W3C//DTD SVG 1.1//EN" "http://www.w3.org/Graphics/SVG/1.1/DTD/svg11.dtd">
<svg version="1.1" id="圖層_1" xmlns="http://www.w3.org/2000/svg" xmlns:xlink="http://www.w3.org/1999/xlink" x="0px" y="0px"
	 width="100px" height="100px" viewBox="0.5 20.5 100 100" enable-background="new 0.5 20.5 100 100" xml:space="preserve">
<path fill="#D84835" d="M12.101,32.102c0-5.279,4.319-9.602,9.6-9.602h57.606c5.3,0,9.593,4.293,9.593,9.602l0,0v76.797
	c0,5.309-4.298,9.602-9.593,9.602l0,0H21.7c-5.3,0-9.6-4.293-9.6-9.602l0,0V32.102z M26.501,36.898V46.5h48v-9.602H26.501z
	 M26.501,56.102v9.598h9.6v-9.598H26.501z M45.7,56.102v9.598h9.602v-9.598H45.7z M64.899,56.102v9.598h9.602v-9.598H64.899z
	 M26.501,75.301v9.598h9.6v-9.598H26.501z M45.7,75.301v9.598h9.602v-9.598H45.7z M64.899,75.301v28.801h9.602V75.301H64.899z
	 M26.501,94.5v9.602h9.6V94.5H26.501z M45.7,94.5v9.602h9.602V94.5H45.7z"/>
</svg>
