<?xml version="1.0" encoding="utf-8"?>
<!-- Generator: Adobe Illustrator 15.1.0, SVG Export Plug-In . SVG Version: 6.00 Build 0)  -->
<!DOCTYPE svg PUBLIC "-//W3C//DTD SVG 1.1//EN" "http://www.w3.org/Graphics/SVG/1.1/DTD/svg11.dtd">
<svg version="1.1" id="圖層_1" xmlns="http://www.w3.org/2000/svg" xmlns:xlink="http://www.w3.org/1999/xlink" x="0px" y="0px"
	 width="100px" height="100px" viewBox="0 0 100 100" enable-background="new 0 0 100 100" xml:space="preserve">
<path fill="#2975A8" d="M79.766,65.769c-1.859-1.146-4.421-0.496-5.526,1.323l-9.614,20.19H21.334l-9.093-24.667h5.83
	c2.219,0,4.02-1.815,4.02-4.036c0-2.207-1.801-4.02-4.02-4.02H6.017c-1.365,0-2.63,0.688-3.365,1.845
	c-0.752,1.15-0.859,2.583-0.294,3.827l12.711,32.734c0.644,1.432,2.089,2.363,3.664,2.363h48.142c1.387,0,2.699-0.74,3.418-1.916
	l10.785-22.107c0.568-0.922,0.725-1.996,0.474-3.043C81.318,67.204,80.672,66.341,79.766,65.769z"/>
<path fill="#2975A8" d="M97.207,31.435L71.24,5.467c-1.063-1.062-2.797-1.062-3.858,0L66.038,6.8c-1.058,1.062-1.058,2.796,0,3.869
	l2.802,2.796c-0.912,1.063-1.827,2.021-2.845,2.516c-2.087,1.026-4.513,1.506-7.093,2.005c-2.229,0.438-4.09,0.813-5.963,1.427
	c-5.259,1.683-8.682,5.636-11.69,9.104l-1.492,1.687c-0.749,0.823-1.623,1.636-2.529,2.459c-3.145,2.884-7.06,6.484-6.926,12.072
	c0.073,2.688,0.026,5.407-0.005,8.11v2.697c0.18,1.609,0.037,3.641-0.096,5.604c-0.375,5.499,0.362,19.671,9.721,17.702
	c4.604-0.967,4.428-8.62,4.915-12.123c0.954-6.932,1.823-14.656,5.013-20.969c0.633-1.262,2.042-2.246,3.762-2.63
	c1.475-0.338,3.048-0.109,3.871,0.525c0.875,0.677,0.363,1.938,0.307,2.084c-0.391,0.891-0.817,1.812-1.334,2.9
	c-2.473,5.246-5.558,11.786-2.314,17.286c1.109,1.857,3.389,3.844,6.775,3.844c5.879-0.115,9.211-5.338,11.659-9.139l0.229-0.365
	c0.678-1.018,1.301-1.984,1.904-2.71c1.288-1.474,2.668-2.849,4.211-4.369c2.791-2.765,5.676-5.61,7.903-9.261
	c0.804-1.307,1.313-3.438,2.438-8.718l0.147-0.667c0.019-0.135,0.051-0.281,0.082-0.406l2.515,2.521c1.063,1.062,2.796,1.062,3.86,0
	l1.332-1.34C98.266,34.236,98.266,32.497,97.207,31.435z"/>
</svg>
