<?xml version="1.0" encoding="utf-8"?>
<!-- Generator: Adobe Illustrator 15.1.0, SVG Export Plug-In . SVG Version: 6.00 Build 0)  -->
<!DOCTYPE svg PUBLIC "-//W3C//DTD SVG 1.1//EN" "http://www.w3.org/Graphics/SVG/1.1/DTD/svg11.dtd">
<svg version="1.1" id="圖層_1" xmlns="http://www.w3.org/2000/svg" xmlns:xlink="http://www.w3.org/1999/xlink" x="0px" y="0px"
	 width="100px" height="100px" viewBox="0 0 100 100" enable-background="new 0 0 100 100" xml:space="preserve">
<path fill="#0F5D8A" d="M98,27.579c0,1.653-0.586,3.06-1.738,4.208L42.998,85.054c-1.157,1.155-2.561,1.735-4.212,1.735
	c-1.649,0-3.046-0.58-4.213-1.735L3.735,54.21C2.574,53.056,2,51.65,2,50.003c0-1.647,0.574-3.052,1.735-4.213l8.422-8.425
	c1.151-1.148,2.558-1.735,4.208-1.735c1.649,0,3.051,0.585,4.209,1.735l18.211,18.282l40.629-40.694
	c1.161-1.162,2.561-1.741,4.207-1.741c1.653,0,3.059,0.58,4.213,1.741l8.422,8.419c1.16,1.149,1.734,2.561,1.734,4.206L98,27.579
	L98,27.579z"/>
</svg>
