<?xml version="1.0" encoding="utf-8"?>
<!-- Generator: Adobe Illustrator 15.1.0, SVG Export Plug-In . SVG Version: 6.00 Build 0)  -->
<!DOCTYPE svg PUBLIC "-//W3C//DTD SVG 1.1//EN" "http://www.w3.org/Graphics/SVG/1.1/DTD/svg11.dtd">
<svg version="1.1" id="圖層_1" xmlns="http://www.w3.org/2000/svg" xmlns:xlink="http://www.w3.org/1999/xlink" x="0px" y="0px"
	 width="100px" height="100px" viewBox="0 0 100 100" enable-background="new 0 0 100 100" xml:space="preserve">
<path fill="#253544" d="M50,2C23.491,2,2,23.49,2,50c0,26.51,21.491,48,48,48c26.51,0,48-21.49,48-48C98,23.49,76.51,2,50,2z M50,89
	c-21.542,0-39-17.46-39-39c0-21.542,17.458-39,39-39c21.539,0,39,17.458,39,39C89,71.539,71.539,89,50,89z"/>
<path fill="#253544" d="M26,51.365c0,0.857,0.35,1.682,0.978,2.314l2.388,2.387c0.601,0.632,1.44,0.979,2.312,0.979
	c0.874,0,1.714-0.351,2.304-0.964l10.683-10.647v24.248c0,1.941,1.658,2.947,3.296,2.947h4.064c1.645,0,3.305-1.012,3.305-2.947
	V45.433l10.664,10.634c0.605,0.634,1.447,0.985,2.318,0.985c0.868,0,1.723-0.358,2.347-0.979l2.384-2.39
	c0.617-0.637,0.954-1.467,0.954-2.318c0-0.861-0.351-1.719-0.954-2.355L52.35,28.317c-0.609-0.604-1.469-0.952-2.354-0.952
	c-0.891,0-1.731,0.345-2.307,0.94L26.975,49.02C26.356,49.646,26,50.504,26,51.365z"/>
</svg>
