<?xml version="1.0" encoding="utf-8"?>
<!-- Generator: Adobe Illustrator 15.1.0, SVG Export Plug-In . SVG Version: 6.00 Build 0)  -->
<!DOCTYPE svg PUBLIC "-//W3C//DTD SVG 1.1//EN" "http://www.w3.org/Graphics/SVG/1.1/DTD/svg11.dtd">
<svg version="1.1" id="圖層_1" xmlns="http://www.w3.org/2000/svg" xmlns:xlink="http://www.w3.org/1999/xlink" x="0px" y="0px"
	 width="100px" height="100px" viewBox="0 0 100 100" enable-background="new 0 0 100 100" xml:space="preserve">
<path fill="#C1C1C1" d="M50,98c26.51,0,48-21.49,48-48C98,23.49,76.51,2,50,2C23.49,2,2,23.49,2,50C2,76.51,23.49,98,50,98z M50,11
	c21.542,0,39,17.46,39,39c0,21.542-17.457,39.001-39,39.001c-21.539,0-39-17.458-39-39.001C11,28.461,28.461,11,50,11z"/>
<path fill="#C1C1C1" d="M74,48.633c0-0.857-0.35-1.681-0.979-2.313l-2.387-2.388c-0.602-0.629-1.441-0.978-2.312-0.978
	c-0.874,0-1.715,0.352-2.306,0.964L55.334,54.566V30.319c0-1.942-1.657-2.947-3.295-2.947h-4.065c-1.644,0-3.304,1.011-3.304,2.947
	v24.247L34.005,43.933c-0.605-0.632-1.447-0.985-2.316-0.985c-0.871,0-1.725,0.359-2.347,0.979l-2.384,2.391
	c-0.616,0.635-0.955,1.465-0.955,2.316c0,0.864,0.35,1.721,0.955,2.356l20.691,20.693c0.609,0.602,1.471,0.952,2.354,0.952
	c0.89,0,1.731-0.348,2.306-0.941L73.024,50.98C73.645,50.354,74,49.498,74,48.633z"/>
</svg>
