<?xml version="1.0" encoding="utf-8"?>
<!-- Generator: Adobe Illustrator 15.1.0, SVG Export Plug-In . SVG Version: 6.00 Build 0)  -->
<!DOCTYPE svg PUBLIC "-//W3C//DTD SVG 1.1//EN" "http://www.w3.org/Graphics/SVG/1.1/DTD/svg11.dtd">
<svg version="1.1" id="圖層_1" xmlns="http://www.w3.org/2000/svg" xmlns:xlink="http://www.w3.org/1999/xlink" x="0px" y="0px"
	 width="100px" height="100px" viewBox="0 0 100 100" enable-background="new 0 0 100 100" xml:space="preserve">
<path fill="#1F605F" d="M51.005,44l11.906,11.91c0.783,0.774,0.783,2.028,0,2.811l-4.197,4.199c-0.784,0.775-2.03,0.775-2.805,0
	L43.992,51.006L32.08,62.92c-0.769,0.775-2.027,0.775-2.807,0l-4.192-4.199c-0.779-0.782-0.779-2.028,0-2.811L36.994,44
	l-11.91-11.917c-0.779-0.775-0.779-2.025,0-2.805l4.2-4.201c0.768-0.775,2.026-0.775,2.798,0l11.909,11.917l11.918-11.917
	c0.774-0.775,2.021-0.775,2.805,0l4.197,4.204c0.783,0.779,0.783,2.031,0,2.806L51.005,44z"/>
<path fill="#1F605F" d="M85.589,5.52c-0.015-0.026-0.015-0.064-0.028-0.095c-0.09-0.215-0.216-0.404-0.333-0.603
	c-0.063-0.111-0.115-0.243-0.189-0.345c-0.09-0.146-0.216-0.267-0.329-0.396c-0.114-0.146-0.224-0.306-0.349-0.434
	c-0.165-0.161-0.35-0.296-0.53-0.437c-0.103-0.08-0.197-0.175-0.308-0.248c-0.162-0.113-0.357-0.197-0.539-0.295
	c-0.138-0.071-0.266-0.164-0.413-0.224C81.906,2.157,81.175,2,80.398,2H7.596C7.41,2,7.23,2.037,7.047,2.059
	C6.871,2.077,6.696,2.077,6.528,2.105c-0.336,0.066-0.656,0.169-0.97,0.291C5.547,2.401,5.534,2.405,5.52,2.409
	C5.493,2.424,5.455,2.431,5.425,2.444C5.21,2.531,5.02,2.656,4.82,2.772C4.71,2.836,4.58,2.882,4.477,2.958
	C4.451,2.977,4.433,2.996,4.408,3.017C4.287,3.101,4.176,3.206,4.058,3.305C3.92,3.417,3.771,3.516,3.646,3.647
	C3.486,3.807,3.352,3.99,3.209,4.168c-0.084,0.108-0.175,0.2-0.251,0.306C2.844,4.641,2.76,4.83,2.664,5.013
	C2.597,5.15,2.499,5.275,2.443,5.425C2.156,6.093,2,6.831,2,7.601v72.803c0,0.385,0.037,0.766,0.113,1.127
	c0.142,0.684,0.425,1.336,0.794,1.913c0.021,0.027,0.032,0.06,0.051,0.08C3.967,85.016,5.672,86,7.596,86h72.807
	C83.479,86,86,83.475,86,80.402V7.601C86,6.863,85.852,6.165,85.589,5.52z M74.799,74.8h-61.6V13.2h61.6V74.8L74.799,74.8z"/>
</svg>
