<?xml version="1.0" encoding="utf-8"?>
<!-- Generator: Adobe Illustrator 15.1.0, SVG Export Plug-In . SVG Version: 6.00 Build 0)  -->
<!DOCTYPE svg PUBLIC "-//W3C//DTD SVG 1.1//EN" "http://www.w3.org/Graphics/SVG/1.1/DTD/svg11.dtd">
<svg version="1.1" id="圖層_1" xmlns="http://www.w3.org/2000/svg" xmlns:xlink="http://www.w3.org/1999/xlink" x="0px" y="0px"
	 width="100px" height="100px" viewBox="0 0 100 100" enable-background="new 0 0 100 100" xml:space="preserve">
<path fill="#244805" d="M51.005,44L62.911,55.91c0.782,0.774,0.782,2.028,0,2.811l-4.197,4.199c-0.784,0.775-2.03,0.775-2.805,0
	L43.992,51.006L32.08,62.92c-0.768,0.775-2.026,0.775-2.807,0l-4.192-4.199c-0.779-0.782-0.779-2.028,0-2.811L36.994,44
	L25.083,32.083c-0.779-0.776-0.779-2.026,0-2.806l4.201-4.2c0.768-0.776,2.026-0.776,2.797,0l11.91,11.917l11.918-11.917
	c0.774-0.776,2.021-0.776,2.805,0l4.197,4.204c0.782,0.779,0.782,2.031,0,2.805L51.005,44z"/>
<path fill="#244805" d="M85.589,5.519c-0.016-0.026-0.016-0.064-0.029-0.095c-0.09-0.214-0.216-0.404-0.332-0.603
	c-0.063-0.111-0.115-0.243-0.189-0.345c-0.091-0.145-0.217-0.267-0.329-0.396c-0.115-0.145-0.225-0.306-0.35-0.434
	c-0.164-0.161-0.35-0.295-0.53-0.436c-0.102-0.081-0.196-0.175-0.307-0.248c-0.163-0.113-0.357-0.197-0.54-0.294
	c-0.138-0.072-0.266-0.165-0.413-0.224C81.905,2.157,81.175,2,80.398,2H7.596C7.41,2,7.231,2.037,7.046,2.058
	C6.872,2.076,6.696,2.076,6.529,2.105c-0.336,0.065-0.656,0.168-0.97,0.291C5.547,2.4,5.534,2.404,5.52,2.408
	C5.493,2.423,5.455,2.43,5.425,2.444C5.21,2.531,5.02,2.656,4.82,2.772C4.71,2.835,4.58,2.881,4.477,2.958
	C4.452,2.977,4.433,2.995,4.409,3.016C4.287,3.1,4.176,3.206,4.058,3.305C3.92,3.416,3.771,3.515,3.647,3.646
	C3.486,3.806,3.352,3.99,3.209,4.167c-0.084,0.108-0.175,0.2-0.251,0.306C2.844,4.641,2.76,4.83,2.665,5.012
	C2.597,5.15,2.5,5.275,2.444,5.424C2.157,6.093,2,6.83,2,7.6v72.804c0,0.385,0.037,0.766,0.114,1.127
	c0.142,0.684,0.425,1.336,0.794,1.913c0.021,0.027,0.032,0.06,0.05,0.081C3.967,85.015,5.672,86,7.596,86h72.806
	C83.479,86,86,83.475,86,80.401V7.6C86,6.863,85.851,6.165,85.589,5.519z M74.798,74.8H13.2V13.2h61.598V74.8L74.798,74.8z"/>
</svg>
