<?xml version="1.0" encoding="utf-8"?>
<!-- Generator: Adobe Illustrator 15.1.0, SVG Export Plug-In . SVG Version: 6.00 Build 0)  -->
<!DOCTYPE svg PUBLIC "-//W3C//DTD SVG 1.1//EN" "http://www.w3.org/Graphics/SVG/1.1/DTD/svg11.dtd">
<svg version="1.1" id="圖層_1" xmlns="http://www.w3.org/2000/svg" xmlns:xlink="http://www.w3.org/1999/xlink" x="0px" y="0px"
	 width="100px" height="100px" viewBox="-39.5 60.5 100 100" enable-background="new -39.5 60.5 100 100" xml:space="preserve">
<polygon fill="#282828" points="13.096,148.395 13.096,113.096 21.858,121.844 25.658,118.064 10.5,102.921 -4.658,118.064 
	-0.869,121.844 7.902,113.096 7.902,148.395 "/>
<path fill="#282828" d="M51.315,85.651H12.521l-6.365-12.69l-0.163-0.355h-36.328c-3.95,0-7.165,3.197-7.165,7.12v61.549
	c0,3.923,3.202,7.12,7.145,7.12h28.577v-4.51H-30.36c-1.446,0-2.618-1.164-2.618-2.62V79.721c0-1.441,1.167-2.615,2.613-2.615H3.254
	l6.331,12.907l0.072,0.139h41.685c1.46,0,2.649,1.18,2.649,2.64v48.43c0,1.455-1.18,2.635-2.63,2.635H22.776v4.515h28.589
	c3.938,0,7.135-3.202,7.135-7.13V92.767C58.49,88.849,55.273,85.651,51.315,85.651z"/>
</svg>
