<?xml version="1.0" encoding="utf-8"?>
<!-- Generator: Adobe Illustrator 15.1.0, SVG Export Plug-In . SVG Version: 6.00 Build 0)  -->
<!DOCTYPE svg PUBLIC "-//W3C//DTD SVG 1.1//EN" "http://www.w3.org/Graphics/SVG/1.1/DTD/svg11.dtd">
<svg version="1.1" id="圖層_1" xmlns="http://www.w3.org/2000/svg" xmlns:xlink="http://www.w3.org/1999/xlink" x="0px" y="0px"
	 width="100px" height="100px" viewBox="0 0 100 100" enable-background="new 0 0 100 100" xml:space="preserve">
<path fill="#2975A8" d="M44,69c0,2.766,2.239,5.005,5.002,5.005s5.002-2.239,5.002-5.005c0-2.759-2.239-4.999-5.002-4.999
	S44,66.24,44,69z M10,2c-4.421,0-8,3.579-8,8v80c0,4.422,3.579,8,8,8h80c4.422,0,8-3.578,8-8.001V21.844
	c0-2.682-1.058-5.063-2.762-6.782L85.078,4.942c-1.797-1.817-4.316-2.938-7.083-2.938H10V2z M16.401,12h5.598v15.599
	c0,2.443,1.963,4.401,4.401,4.401H31.6c2.441,0,4.401-1.958,4.401-4.401V12h37.598c2.442,0,4.4,1.958,4.4,4.401v19.197
	c0,2.443-1.963,4.401-4.4,4.401H16.401C13.958,40,12,38.042,12,35.599V16.401C12,13.959,13.964,12,16.401,12z M36,69
	c0-7.176,5.818-13,13.001-13c7.184,0,13.002,5.822,13.002,13c0,7.184-5.816,13.006-13.002,13.006C41.817,82.006,36,76.178,36,69z"/>
</svg>
