<?xml version="1.0" encoding="utf-8"?>
<!-- Generator: Adobe Illustrator 15.1.0, SVG Export Plug-In . SVG Version: 6.00 Build 0)  -->
<!DOCTYPE svg PUBLIC "-//W3C//DTD SVG 1.1//EN" "http://www.w3.org/Graphics/SVG/1.1/DTD/svg11.dtd">
<svg version="1.1" id="圖層_1" xmlns="http://www.w3.org/2000/svg" xmlns:xlink="http://www.w3.org/1999/xlink" x="0px" y="0px"
	 width="100px" height="100px" viewBox="0 0 100 100" enable-background="new 0 0 100 100" xml:space="preserve">
<title>keyboard_arrow_up</title>
<title>keyboard_arrow_up</title>
<title>go-top</title>
<path fill="#FFFFFF" d="M93.443,89.671L53.84,32.058c0,0-1.604-2.236-3.847-2.236c-2.239,0-3.833,2.236-3.833,2.236L6.543,89.671
	C3.508,94.25,5.75,98,11.555,98H88.43C94.25,98,96.492,94.25,93.443,89.671L93.443,89.671z M98,18.009V9.997
	C98,5.577,97.617,2,93.197,2H6.799C2.382,2,2,5.577,2,9.997v8.012C2,22.423,2.382,26,6.792,26h86.405C97.617,26,98,22.423,98,18.009
	z"/>
</svg>
