<?xml version="1.0" encoding="utf-8"?>
<!-- Generator: Adobe Illustrator 15.1.0, SVG Export Plug-In . SVG Version: 6.00 Build 0)  -->
<!DOCTYPE svg PUBLIC "-//W3C//DTD SVG 1.1//EN" "http://www.w3.org/Graphics/SVG/1.1/DTD/svg11.dtd">
<svg version="1.1" id="圖層_1" xmlns="http://www.w3.org/2000/svg" xmlns:xlink="http://www.w3.org/1999/xlink" x="0px" y="0px"
	 width="100px" height="100px" viewBox="0 0 100 100" enable-background="new 0 0 100 100" xml:space="preserve">
<path fill="#663267" d="M71.816,8.572C65.737,4.19,58.1,2,48.902,2C41.906,2,36,3.54,31.211,6.624
	c-7.616,4.835-11.657,13.046-12.147,24.617h17.635c0-3.375,0.99-6.612,2.951-9.74c1.969-3.134,5.31-4.698,10.02-4.698
	c4.789,0,8.095,1.273,9.891,3.799c1.803,2.545,2.705,5.359,2.705,8.438c0,2.694-1.343,5.151-2.965,7.382
	c-0.894,1.293-2.067,2.497-3.528,3.592c0,0-9.563,6.128-13.763,11.059c-2.43,2.847-2.647,7.135-2.869,13.269
	c-0.005,0.444,0.161,1.353,1.683,1.353c1.525,0,12.359,0,13.708,0c1.369,0,1.654-1.011,1.665-1.462
	c0.1-2.229,0.347-3.374,0.751-4.666c0.769-2.438,2.872-4.56,5.225-6.4l4.846-3.347c4.388-3.419,7.881-6.212,9.43-8.413
	c2.635-3.607,4.49-8.059,4.49-13.338C80.936,19.458,77.896,12.969,71.816,8.572z M48.618,76.272
	c-6.08-0.187-11.085,4.013-11.282,10.614c-0.188,6.588,4.577,10.929,10.655,11.107c6.341,0.187,11.223-3.868,11.425-10.47
	C59.589,80.931,54.969,76.451,48.618,76.272z"/>
</svg>
