<?xml version="1.0" encoding="utf-8"?>
<!-- Generator: Adobe Illustrator 15.1.0, SVG Export Plug-In . SVG Version: 6.00 Build 0)  -->
<!DOCTYPE svg PUBLIC "-//W3C//DTD SVG 1.1//EN" "http://www.w3.org/Graphics/SVG/1.1/DTD/svg11.dtd">
<svg version="1.1" id="圖層_1" xmlns="http://www.w3.org/2000/svg" xmlns:xlink="http://www.w3.org/1999/xlink" x="0px" y="0px"
	 width="100px" height="100px" viewBox="0 0 100 100" enable-background="new 0 0 100 100" xml:space="preserve">
<path fill="#AB4A08" d="M84.298,55.805v28.58c0,1.035-0.382,1.924-1.131,2.672c-0.758,0.756-1.65,1.131-2.678,1.131H57.624V65.328
	h-15.24v22.857H19.516c-1.034,0-1.924-0.375-2.68-1.131c-0.751-0.746-1.128-1.645-1.128-2.672V55.805
	c0-0.037,0.006-0.105,0.03-0.181c0.021-0.083,0.03-0.138,0.03-0.179l34.236-28.223l34.235,28.223
	C84.271,55.52,84.298,55.646,84.298,55.805z M97.573,51.693l-3.69,4.402c-0.315,0.358-0.735,0.563-1.253,0.656h-0.173
	c-0.521,0-0.937-0.141-1.253-0.419L49.996,21.988L8.798,56.335c-0.477,0.315-0.953,0.461-1.432,0.418
	c-0.515-0.078-0.936-0.297-1.252-0.655l-3.69-4.402c-0.319-0.398-0.456-0.867-0.418-1.396c0.043-0.549,0.26-0.968,0.656-1.287
	l42.804-35.661c1.274-1.031,2.781-1.54,4.529-1.54c1.751,0,3.262,0.51,4.53,1.54l14.526,12.143V13.889
	c0-0.559,0.177-1.012,0.539-1.36c0.359-0.364,0.817-0.543,1.364-0.543h11.438c0.559,0,1.018,0.18,1.365,0.543
	c0.354,0.355,0.54,0.814,0.54,1.36v24.288l13.039,10.837c0.399,0.319,0.617,0.738,0.656,1.287
	C98.03,50.835,97.896,51.305,97.573,51.693L97.573,51.693z"/>
</svg>
