<?xml version="1.0" encoding="utf-8"?>
<!-- Generator: Adobe Illustrator 15.1.0, SVG Export Plug-In . SVG Version: 6.00 Build 0)  -->
<!DOCTYPE svg PUBLIC "-//W3C//DTD SVG 1.1//EN" "http://www.w3.org/Graphics/SVG/1.1/DTD/svg11.dtd">
<svg version="1.1" id="圖層_1" xmlns="http://www.w3.org/2000/svg" xmlns:xlink="http://www.w3.org/1999/xlink" x="0px" y="0px"
	 width="100px" height="100px" viewBox="0 0 100 100" enable-background="new 0 0 100 100" xml:space="preserve">
<path fill="#244805" d="M84.299,55.804v28.582c0,1.035-0.382,1.924-1.131,2.67c-0.758,0.758-1.651,1.133-2.679,1.133H57.623v-22.86
	H42.385v22.856H19.517c-1.034,0-1.924-0.375-2.681-1.131c-0.751-0.746-1.128-1.644-1.128-2.671V55.804
	c0-0.037,0.006-0.105,0.03-0.181c0.021-0.083,0.031-0.136,0.031-0.179l34.236-28.223l34.234,28.223
	C84.272,55.519,84.299,55.646,84.299,55.804z M97.571,51.694l-3.688,4.402c-0.313,0.357-0.735,0.562-1.252,0.655h-0.174
	c-0.521,0-0.937-0.14-1.252-0.418L49.997,21.988L8.798,56.336c-0.477,0.315-0.953,0.459-1.432,0.417
	c-0.514-0.079-0.935-0.297-1.252-0.656l-3.69-4.402c-0.319-0.397-0.456-0.866-0.418-1.396c0.043-0.547,0.261-0.967,0.656-1.285
	l42.804-35.662c1.274-1.031,2.782-1.541,4.529-1.541c1.751,0,3.261,0.51,4.528,1.541l14.527,12.143V13.889
	c0-0.56,0.176-1.013,0.54-1.361c0.359-0.364,0.817-0.543,1.364-0.543h11.438c0.56,0,1.018,0.18,1.365,0.543
	c0.354,0.354,0.541,0.813,0.541,1.361v24.289l13.038,10.837c0.399,0.318,0.618,0.738,0.656,1.285
	C98.03,50.835,97.896,51.304,97.571,51.694L97.571,51.694z"/>
</svg>
