<?xml version="1.0" encoding="utf-8"?>
<!-- Generator: Adobe Illustrator 15.1.0, SVG Export Plug-In . SVG Version: 6.00 Build 0)  -->
<!DOCTYPE svg PUBLIC "-//W3C//DTD SVG 1.1//EN" "http://www.w3.org/Graphics/SVG/1.1/DTD/svg11.dtd">
<svg version="1.1" id="圖層_1" xmlns="http://www.w3.org/2000/svg" xmlns:xlink="http://www.w3.org/1999/xlink" x="0px" y="0px"
	 width="100px" height="100px" viewBox="0 0 100 100" enable-background="new 0 0 100 100" xml:space="preserve">
<path fill="#1F605F" d="M84.298,55.805v28.582c0,1.035-0.382,1.923-1.131,2.67c-0.758,0.757-1.651,1.132-2.678,1.132H57.622V65.329
	H42.384v22.857H19.516c-1.033,0-1.924-0.375-2.681-1.131c-0.751-0.746-1.128-1.644-1.128-2.671v-28.58
	c0-0.036,0.007-0.105,0.031-0.18c0.02-0.083,0.031-0.136,0.031-0.178l34.235-28.224l34.235,28.224
	C84.271,55.52,84.298,55.647,84.298,55.805z M97.571,51.695l-3.689,4.402c-0.314,0.358-0.735,0.562-1.252,0.656h-0.173
	c-0.521,0-0.937-0.14-1.253-0.418L49.996,21.989L8.798,56.337c-0.476,0.315-0.952,0.459-1.432,0.417
	c-0.513-0.079-0.934-0.297-1.251-0.656l-3.69-4.402c-0.319-0.398-0.456-0.867-0.418-1.396c0.043-0.547,0.261-0.967,0.656-1.286
	l42.804-35.661c1.274-1.031,2.782-1.541,4.529-1.541c1.751,0,3.261,0.51,4.529,1.541l14.527,12.142V13.89
	c0-0.559,0.177-1.012,0.54-1.361c0.359-0.364,0.817-0.544,1.365-0.544h11.437c0.559,0,1.017,0.18,1.365,0.544
	c0.354,0.355,0.541,0.814,0.541,1.361v24.288l13.038,10.837c0.4,0.319,0.618,0.739,0.656,1.286
	C98.03,50.836,97.895,51.305,97.571,51.695L97.571,51.695z"/>
</svg>
