<?xml version="1.0" encoding="utf-8"?>
<!-- Generator: Adobe Illustrator 15.1.0, SVG Export Plug-In . SVG Version: 6.00 Build 0)  -->
<!DOCTYPE svg PUBLIC "-//W3C//DTD SVG 1.1//EN" "http://www.w3.org/Graphics/SVG/1.1/DTD/svg11.dtd">
<svg version="1.1" id="圖層_1" xmlns="http://www.w3.org/2000/svg" xmlns:xlink="http://www.w3.org/1999/xlink" x="0px" y="0px"
	 width="100px" height="100px" viewBox="0 0 100 100" enable-background="new 0 0 100 100" xml:space="preserve">
<path fill="#0F5D8A" d="M70.204,36.073l17.182-17.183l-6.275-6.275L63.93,29.797L70.204,36.073z M96.417,18.891
	c0,0.994-0.353,1.932-1.058,2.635L19.947,96.942C19.242,97.646,18.304,98,17.307,98s-1.938-0.354-2.64-1.058l-11.61-11.61
	C2.356,84.631,2,83.689,2,82.692c0-0.995,0.352-1.933,1.057-2.63L78.469,4.641c0.71-0.703,1.647-1.058,2.641-1.058
	c0.996,0,1.934,0.355,2.641,1.058L95.359,16.25C96.063,16.958,96.417,17.885,96.417,18.891z M37.723,17.25l11.491,3.511
	l-11.491,3.521l-3.521,11.494L30.68,24.281L19.189,20.76L30.68,17.25l3.521-11.5L37.723,17.25z M92.25,45.282l5.75,1.75l-5.75,1.761
	l-1.76,5.75l-1.76-5.75l-5.75-1.761l5.75-1.75l1.76-5.75L92.25,45.282z M54.723,7.744l5.748,1.761l-5.748,1.755l-1.76,5.751
	l-1.76-5.751l-5.75-1.755l5.75-1.761L52.963,2L54.723,7.744z"/>
</svg>
