<?xml version="1.0" encoding="utf-8"?>
<!-- Generator: Adobe Illustrator 15.1.0, SVG Export Plug-In . SVG Version: 6.00 Build 0)  -->
<!DOCTYPE svg PUBLIC "-//W3C//DTD SVG 1.1//EN" "http://www.w3.org/Graphics/SVG/1.1/DTD/svg11.dtd">
<svg version="1.1" id="圖層_1" xmlns="http://www.w3.org/2000/svg" xmlns:xlink="http://www.w3.org/1999/xlink" x="0px" y="0px"
	 width="100px" height="100px" viewBox="0 0 100 100" enable-background="new 0 0 100 100" xml:space="preserve">
<path fill="#63211C" d="M72.842,45.433H54.57V27.136c0-2.523-2.043-4.563-4.57-4.563s-4.57,2.04-4.57,4.563v18.297H27.138
	c-2.527,0-4.571,2.048-4.571,4.571c0,2.524,2.043,4.578,4.571,4.578H45.43v18.274c0,2.531,2.043,4.578,4.571,4.578
	s4.57-2.047,4.57-4.578V54.584H72.86c2.515,0,4.569-2.056,4.556-4.579C77.414,47.481,75.367,45.433,72.842,45.433z"/>
<path fill="#63211C" d="M77.429,98H22.578C11.23,98,2,88.78,2,77.436V22.572C2,11.244,11.223,2,22.578,2h54.851
	C88.766,2,98,11.244,98,22.572v54.863C98,88.78,88.766,98,77.429,98z M23.328,7.775c-8.578,0-15.563,6.984-15.563,15.548v53.349
	c0,8.578,6.985,15.549,15.563,15.549h53.344c8.578,0,15.547-6.987,15.547-15.549V23.323c0-8.579-6.969-15.548-15.547-15.548H23.328z
	"/>
</svg>
