<?xml version="1.0" encoding="utf-8"?>
<!-- Generator: Adobe Illustrator 15.1.0, SVG Export Plug-In . SVG Version: 6.00 Build 0)  -->
<!DOCTYPE svg PUBLIC "-//W3C//DTD SVG 1.1//EN" "http://www.w3.org/Graphics/SVG/1.1/DTD/svg11.dtd">
<svg version="1.1" id="圖層_1" xmlns="http://www.w3.org/2000/svg" xmlns:xlink="http://www.w3.org/1999/xlink" x="0px" y="0px"
	 width="100px" height="100px" viewBox="0 0 100 100" enable-background="new 0 0 100 100" xml:space="preserve">
<path fill="#3280B7" d="M27.205,41.664l5.585-5.726l-9.395-9.184c26.286,2.691,46.276,31.199,50.687,52.834l7.836-1.594
	C76.961,53.66,54.096,21.519,23.716,18.678l9.101-9.041l-5.638-5.679L8.047,22.958L27.205,41.664L27.205,41.664z"/>
<path fill="#3280B7" d="M10.002,30.93H2v53.111c0,6.619,5.377,12,12,12h72c6.62,0,12-5.381,12-12V30.792c0-6.616-5.38-12-12-12
	H58.003v8.002H86c2.207,0,3.997,1.788,3.997,3.998v53.249c0,2.202-1.79,4.004-3.997,4.004H14c-2.203,0-3.998-1.795-3.998-4.004
	V30.93z"/>
</svg>
