<?xml version="1.0" encoding="utf-8"?>
<!-- Generator: Adobe Illustrator 15.1.0, SVG Export Plug-In . SVG Version: 6.00 Build 0)  -->
<!DOCTYPE svg PUBLIC "-//W3C//DTD SVG 1.1//EN" "http://www.w3.org/Graphics/SVG/1.1/DTD/svg11.dtd">
<svg version="1.1" id="圖層_1" xmlns="http://www.w3.org/2000/svg" xmlns:xlink="http://www.w3.org/1999/xlink" x="0px" y="0px"
	 width="100px" height="100px" viewBox="0 0 100 100" enable-background="new 0 0 100 100" xml:space="preserve">
<path fill="#0F5D8A" d="M72.795,41.664l19.158-18.707L72.822,3.959l-5.639,5.679l9.101,9.041
	C45.903,21.518,23.037,53.66,18.083,77.995l7.835,1.594c4.41-21.636,24.4-50.143,50.687-52.834l-9.396,9.184L72.795,41.664
	L72.795,41.664z"/>
<path fill="#0F5D8A" d="M89.997,84.041c0,2.209-1.794,4.004-3.997,4.004H14c-2.208,0-3.998-1.802-3.998-4.004V30.792
	c0-2.21,1.79-3.998,3.998-3.998h27.998v-8.002H14c-6.621,0-12,5.384-12,12v53.249c0,6.619,5.379,12,12,12h72c6.623,0,12-5.381,12-12
	V30.93h-8.003V84.041z"/>
</svg>
