<?xml version="1.0" encoding="utf-8"?>
<!-- Generator: Adobe Illustrator 15.1.0, SVG Export Plug-In . SVG Version: 6.00 Build 0)  -->
<!DOCTYPE svg PUBLIC "-//W3C//DTD SVG 1.1//EN" "http://www.w3.org/Graphics/SVG/1.1/DTD/svg11.dtd">
<svg version="1.1" id="圖層_1" xmlns="http://www.w3.org/2000/svg" xmlns:xlink="http://www.w3.org/1999/xlink" x="0px" y="0px"
	 width="100px" height="100px" viewBox="-39.5 60.5 100 100" enable-background="new -39.5 60.5 100 100" xml:space="preserve">
<title>folder</title>
<polygon fill="#BCBCBC" points="13.096,148.385 13.096,106.602 21.858,115.37 25.658,111.581 10.5,96.418 -4.658,111.581 
	-0.869,115.37 7.902,106.602 7.902,148.385 "/>
<polygon fill="#BCBCBC" points="-9.644,148.385 -9.644,121.76 -0.878,130.528 2.921,126.738 -12.237,111.575 -27.395,126.738 
	-23.605,130.528 -14.834,121.76 -14.834,148.385 "/>
<polygon fill="#BCBCBC" points="35.832,148.385 35.832,121.76 44.596,130.528 48.395,126.738 33.236,111.575 18.079,126.738 
	21.869,130.528 30.642,121.76 30.642,148.385 "/>
<rect x="-2.252" y="143.875" fill="#BCBCBC" width="25.493" height="4.51"/>
<path fill="#BCBCBC" d="M51.315,85.651H12.521l-6.365-12.69l-0.163-0.355h-36.328c-3.95,0-7.165,3.197-7.165,7.12v61.549
	c0,3.923,3.202,7.12,7.145,7.12h8.366v-4.51h-8.371c-1.446,0-2.618-1.164-2.618-2.62V79.721c0-1.441,1.167-2.615,2.613-2.615H3.254
	l6.331,12.907l0.072,0.139h41.685c1.46,0,2.649,1.18,2.649,2.64v48.43c0,1.455-1.18,2.635-2.63,2.635h-8.374v4.515h8.379
	c3.938,0,7.135-3.202,7.135-7.13V92.767C58.49,88.849,55.273,85.651,51.315,85.651z"/>
</svg>
