<?xml version="1.0" encoding="utf-8"?>
<!-- Generator: Adobe Illustrator 15.1.0, SVG Export Plug-In . SVG Version: 6.00 Build 0)  -->
<!DOCTYPE svg PUBLIC "-//W3C//DTD SVG 1.1//EN" "http://www.w3.org/Graphics/SVG/1.1/DTD/svg11.dtd">
<svg version="1.1" id="圖層_1" xmlns="http://www.w3.org/2000/svg" xmlns:xlink="http://www.w3.org/1999/xlink" x="0px" y="0px"
	 width="100px" height="100px" viewBox="0 0 100 100" enable-background="new 0 0 100 100" xml:space="preserve">
<title>keyboard_arrow_up</title>
<title>keyboard_arrow_up</title>
<path fill="#C1C1C1" d="M50,2C23.489,2,2,23.489,2,50c0,26.516,21.489,48,48,48c26.506,0,48-21.484,48-48C98,23.493,76.506,2,50,2z
	 M86.883,50c0,8.171-2.699,15.701-7.209,21.818L28.188,20.326c6.119-4.508,13.646-7.204,21.812-7.204
	C70.34,13.123,86.883,29.664,86.883,50z M13.118,50c0-8.171,2.7-15.698,7.208-21.812l51.482,51.486
	c-6.107,4.51-13.643,7.209-21.809,7.209C29.664,86.883,13.118,70.34,13.118,50z"/>
</svg>
