<?xml version="1.0" encoding="utf-8"?>
<!-- Generator: Adobe Illustrator 15.1.0, SVG Export Plug-In . SVG Version: 6.00 Build 0)  -->
<!DOCTYPE svg PUBLIC "-//W3C//DTD SVG 1.1//EN" "http://www.w3.org/Graphics/SVG/1.1/DTD/svg11.dtd">
<svg version="1.1" id="圖層_1" xmlns="http://www.w3.org/2000/svg" xmlns:xlink="http://www.w3.org/1999/xlink" x="0px" y="0px"
	 width="100px" height="100px" viewBox="0 0 100 100" enable-background="new 0 0 100 100" xml:space="preserve">
<path fill="#FFFFFF" d="M80.157,68.844l10.125,10.131v4.947H9.717v-4.947l10.13-10.131V43.875c0-15.552,8.25-28.271,22.617-31.802
	V8.537c0-4.24,3.297-7.537,7.537-7.537c4.244,0,7.536,3.297,7.536,7.537v3.536c14.37,3.532,22.62,16.485,22.62,31.802V68.844
	L80.157,68.844z M50.001,99c-5.654,0-10.133-4.479-10.133-9.896h20.268C60.126,94.521,55.408,99,50.001,99L50.001,99z"/>
</svg>
