<?xml version="1.0" encoding="utf-8"?>
<!-- Generator: Adobe Illustrator 15.1.0, SVG Export Plug-In . SVG Version: 6.00 Build 0)  -->
<!DOCTYPE svg PUBLIC "-//W3C//DTD SVG 1.1//EN" "http://www.w3.org/Graphics/SVG/1.1/DTD/svg11.dtd">
<svg version="1.1" id="圖層_1" xmlns="http://www.w3.org/2000/svg" xmlns:xlink="http://www.w3.org/1999/xlink" x="0px" y="0px"
	 width="100px" height="100px" viewBox="0 0 100 100" enable-background="new 0 0 100 100" xml:space="preserve">
<path fill="#C1C1C1" d="M65.494,12.53L65.494,12.53l-9.033-9.025c-0.208-0.204-0.469-0.411-0.801-0.621v10.448h10.447
	C65.898,13,65.693,12.739,65.494,12.53z"/>
<path fill="#C1C1C1" d="M32.667,59.855c-0.204-0.199-0.469-0.408-0.796-0.617v10.449h10.448c-0.209-0.328-0.417-0.589-0.614-0.801
	h-0.011L32.667,59.855z"/>
<path fill="#C1C1C1" d="M78.754,72.51v0.012c-0.582,0-1.082-0.209-1.499-0.627c-0.417-0.416-0.62-0.917-0.62-1.5V51.359
	c0-0.652-0.265-1.296-0.723-1.75c-0.469-0.463-1.115-0.734-1.762-0.734H52.487v-7.219h12.392c0.583,0,1.089-0.198,1.5-0.614
	c0.416-0.416,0.615-0.917,0.615-1.506V16.172H54.953c-0.585,0-1.083-0.209-1.5-0.62c-0.416-0.411-0.625-0.917-0.625-1.506V2H35.135
	c-0.588,0-1.084,0.204-1.506,0.62c-0.406,0.412-0.614,0.911-0.614,1.495v35.416c0,0.584,0.209,1.088,0.614,1.5
	c0.416,0.417,0.917,0.615,1.506,0.615H47.51v7.225H25.848c-0.657,0-1.291,0.265-1.76,0.73c-0.449,0.458-0.73,1.104-0.73,1.756v7
	h-12.02c-0.592,0-1.089,0.197-1.506,0.613c-0.415,0.418-0.617,0.919-0.617,1.506v35.402c0,0.592,0.209,1.093,0.617,1.511
	C10.249,97.797,10.747,98,11.338,98h29.739c0.584,0,1.083-0.203,1.5-0.613c0.417-0.407,0.625-0.92,0.625-1.5V72.51l-12.041,0.012
	c-0.593,0-1.083-0.209-1.5-0.627c-0.416-0.404-0.625-0.906-0.625-1.494V58.354h-0.688v-4.51H71.65v4.51H58.932
	c-0.594,0-1.095,0.199-1.511,0.613c-0.406,0.419-0.615,0.92-0.615,1.5v35.409c0,0.591,0.209,1.093,0.615,1.511
	c0.416,0.404,0.917,0.608,1.511,0.608h29.74c0.582,0,1.081-0.198,1.499-0.608c0.415-0.418,0.613-0.92,0.613-1.511V72.51H78.754
	L78.754,72.51z"/>
<path fill="#C1C1C1" d="M79.463,69.677h10.436c-0.207-0.317-0.416-0.584-0.607-0.79l-9.038-9.033
	c-0.062-0.061-0.167-0.125-0.25-0.187c-0.171-0.147-0.323-0.292-0.552-0.437L79.463,69.677z"/>
</svg>
