<?xml version="1.0" encoding="utf-8"?>
<!-- Generator: Adobe Illustrator 15.1.0, SVG Export Plug-In . SVG Version: 6.00 Build 0)  -->
<!DOCTYPE svg PUBLIC "-//W3C//DTD SVG 1.1//EN" "http://www.w3.org/Graphics/SVG/1.1/DTD/svg11.dtd">
<svg version="1.1" id="圖層_1" xmlns="http://www.w3.org/2000/svg" xmlns:xlink="http://www.w3.org/1999/xlink" x="0px" y="0px"
	 width="100px" height="100px" viewBox="0 0 100 100" enable-background="new 0 0 100 100" xml:space="preserve">
<path fill="#FFFFFF" d="M71.811,8.571C65.727,4.188,58.094,2,48.889,2C41.899,2,35.991,3.537,31.2,6.627
	c-7.617,4.833-11.658,13.046-12.143,24.615h17.636c0-3.376,0.989-6.61,2.951-9.751c1.969-3.122,5.306-4.688,10.02-4.688
	c4.792,0,8.098,1.275,9.889,3.807c1.814,2.54,2.707,5.353,2.707,8.432c0,2.696-1.342,5.152-2.975,7.378
	c-0.885,1.299-2.061,2.499-3.514,3.595c0,0-9.564,6.131-13.765,11.063c-2.437,2.85-2.653,7.134-2.875,13.271
	c-0.01,0.44,0.153,1.345,1.685,1.345c1.533,0,12.362,0,13.713,0c1.363,0,1.648-1.011,1.668-1.462c0.098-2.23,0.342-3.375,0.75-4.668
	c0.773-2.438,2.865-4.562,5.221-6.395l4.854-3.348c4.387-3.417,7.875-6.215,9.432-8.414c2.633-3.605,4.49-8.053,4.49-13.336
	C80.922,19.457,77.895,12.969,71.811,8.571z M48.605,76.272c-6.073-0.188-11.083,4.012-11.281,10.612
	c-0.187,6.582,4.576,10.931,10.658,11.109c6.341,0.187,11.231-3.871,11.429-10.472C59.588,80.932,54.961,76.455,48.605,76.272z"/>
</svg>
