<?xml version="1.0" encoding="utf-8"?>
<!-- Generator: Adobe Illustrator 15.1.0, SVG Export Plug-In . SVG Version: 6.00 Build 0)  -->
<!DOCTYPE svg PUBLIC "-//W3C//DTD SVG 1.1//EN" "http://www.w3.org/Graphics/SVG/1.1/DTD/svg11.dtd">
<svg version="1.1" id="圖層_1" xmlns="http://www.w3.org/2000/svg" xmlns:xlink="http://www.w3.org/1999/xlink" x="0px" y="0px"
	 width="100px" height="100px" viewBox="0 0 100 100" enable-background="new 0 0 100 100" xml:space="preserve">
<path fill="#FFFFFF" d="M79.542,68.459l9.918,9.924v4.848H10.539v-4.848l9.923-9.924V44c0-15.234,8.082-27.694,22.155-31.152V9.383
	C42.617,5.229,45.848,2,50.001,2c4.158,0,7.382,3.229,7.382,7.383v3.465C71.46,16.307,79.542,28.996,79.542,44V68.459L79.542,68.459
	z M50.001,98c-5.539,0-9.926-4.387-9.926-9.695H59.93C59.919,93.613,55.297,98,50.001,98L50.001,98z"/>
</svg>
