<?xml version="1.0" encoding="utf-8"?>
<!-- Generator: Adobe Illustrator 15.1.0, SVG Export Plug-In . SVG Version: 6.00 Build 0)  -->
<!DOCTYPE svg PUBLIC "-//W3C//DTD SVG 1.1//EN" "http://www.w3.org/Graphics/SVG/1.1/DTD/svg11.dtd">
<svg version="1.1" id="圖層_1" xmlns="http://www.w3.org/2000/svg" xmlns:xlink="http://www.w3.org/1999/xlink" x="0px" y="0px"
	 width="100px" height="100px" viewBox="0 0 100 100" enable-background="new 0 0 100 100" xml:space="preserve">
<title>return3</title>
<path fill="#FFFFFF" d="M12.142,77.521c0,3.725-2.277,6.764-5.073,6.764C4.277,84.285,2,81.246,2,77.521V22.477
	c0-3.709,2.284-6.763,5.069-6.763c2.795,0,5.073,3.054,5.073,6.763V77.521z"/>
<path fill="#FFFFFF" d="M54.865,77.05c0,3.725-2.289,4.749-5.082,2.305L21.372,54.458c-2.799-2.442-2.799-6.454,0-8.905
	L49.783,20.65c2.805-2.458,5.088-1.413,5.088,2.31L54.865,77.05L54.865,77.05z"/>
<path fill="#FFFFFF" d="M97.994,77.05c0,3.725-2.291,4.749-5.09,2.305L64.5,54.458c-2.805-2.442-2.805-6.454,0-8.905L92.912,20.65
	C95.71,18.193,98,19.238,98,22.96V77.05H97.994z"/>
</svg>
