<?xml version="1.0" encoding="utf-8"?>
<!-- Generator: Adobe Illustrator 15.1.0, SVG Export Plug-In . SVG Version: 6.00 Build 0)  -->
<!DOCTYPE svg PUBLIC "-//W3C//DTD SVG 1.1//EN" "http://www.w3.org/Graphics/SVG/1.1/DTD/svg11.dtd">
<svg version="1.1" id="圖層_1" xmlns="http://www.w3.org/2000/svg" xmlns:xlink="http://www.w3.org/1999/xlink" x="0px" y="0px"
	 width="100px" height="100px" viewBox="0 0 100 100" enable-background="new 0 0 100 100" xml:space="preserve">
<path fill="#C1C1C1" d="M84.234,73.756c-1.141-1.136-2.631-1.762-4.246-1.762c-8.281,0-21.993-6.774-21.993-13.993
	c0,0,0.021-10.75,0.021-12.553c0-2.843,0-3.292,4.816-8.104c4.554-3.828,7.167-9.428,7.167-15.345C70,10.989,61.012,2,49.995,2
	c-11.019,0-20,8.989-20,20c0,5.928,2.625,11.517,7.033,15.22c4.967,4.963,4.967,5.406,4.967,8.78v12.001
	c0,7.219-13.712,13.993-21.995,13.993c-3.303,0-6,2.699-6,6v6C14,85.1,14.896,86,16,86h67.995c1.105,0,2.006-0.9,2.006-2.006v-6
	C86,76.395,85.381,74.895,84.234,73.756z M48.39,14.157c-3.723,0.764-6.395,4.062-6.395,7.843c0,1.735,0.544,3.396,1.572,4.781
	c0.656,0.876,0.479,2.131-0.4,2.792c-0.352,0.26-0.776,0.406-1.193,0.406c-0.604,0-1.206-0.292-1.606-0.802
	c-1.558-2.104-2.378-4.572-2.378-7.183c0-5.681,4.042-10.625,9.579-11.76c1.099-0.224,2.14,0.479,2.36,1.563
	C50.146,12.875,49.469,13.942,48.39,14.157z"/>
<path fill="#C1C1C1" d="M21.994,89.994h-3.999v6C17.995,97.1,18.892,98,20,98h59.994c1.099,0,2.001-0.9,2.001-2.006v-6H21.994
	L21.994,89.994z"/>
</svg>
