<?xml version="1.0" encoding="utf-8"?>
<!-- Generator: Adobe Illustrator 15.1.0, SVG Export Plug-In . SVG Version: 6.00 Build 0)  -->
<!DOCTYPE svg PUBLIC "-//W3C//DTD SVG 1.1//EN" "http://www.w3.org/Graphics/SVG/1.1/DTD/svg11.dtd">
<svg version="1.1" id="圖層_1" xmlns="http://www.w3.org/2000/svg" xmlns:xlink="http://www.w3.org/1999/xlink" x="0px" y="0px"
	 width="100px" height="100px" viewBox="0 0 100 100" enable-background="new 0 0 100 100" xml:space="preserve">
<path fill="#34495E" d="M59.87,37.933l17.72,17.733c0.832,0.829,1.945,1.285,3.133,1.285c1.19,0,2.303-0.456,3.133-1.285
	l7.687-7.692c0.839-0.836,1.302-1.949,1.302-3.136c0-1.188-0.463-2.301-1.3-3.134L53.136,3.294C52.303,2.459,51.189,2,50,2
	c-1.192,0-2.305,0.459-3.135,1.292L8.454,41.701c-1.729,1.729-1.73,4.543-0.004,6.273l7.683,7.693
	c0.831,0.829,1.944,1.286,3.131,1.286c1.187,0,2.3-0.457,3.131-1.286l17.736-17.736v55.641c0,2.441,1.99,4.428,4.437,4.428h10.859
	c2.448,0,4.441-1.986,4.441-4.428L59.87,37.933L59.87,37.933z"/>
</svg>
