<?xml version="1.0" encoding="utf-8"?>
<!-- Generator: Adobe Illustrator 15.1.0, SVG Export Plug-In . SVG Version: 6.00 Build 0)  -->
<!DOCTYPE svg PUBLIC "-//W3C//DTD SVG 1.1//EN" "http://www.w3.org/Graphics/SVG/1.1/DTD/svg11.dtd">
<svg version="1.1" id="圖層_1" xmlns="http://www.w3.org/2000/svg" xmlns:xlink="http://www.w3.org/1999/xlink" x="0px" y="0px"
	 width="100px" height="100px" viewBox="0 0 100 100" enable-background="new 0 0 100 100" xml:space="preserve">
<path fill="#C1C1C1" d="M59.871,37.934l17.72,17.733c0.833,0.829,1.944,1.285,3.132,1.285c1.191,0,2.304-0.456,3.135-1.285
	l7.686-7.692c0.84-0.836,1.301-1.949,1.301-3.136c0-1.188-0.461-2.301-1.299-3.134L53.137,3.293C52.303,2.458,51.19,2,50,2
	c-1.192,0-2.306,0.459-3.135,1.292L8.454,41.7c-1.729,1.73-1.73,4.544-0.004,6.273l7.684,7.693c0.832,0.829,1.943,1.286,3.132,1.286
	c1.187,0,2.3-0.457,3.131-1.286L40.133,37.93v55.641c0,2.441,1.99,4.429,4.437,4.429h10.859c2.448,0,4.441-1.987,4.441-4.429
	L59.871,37.934L59.871,37.934z"/>
</svg>
