<?xml version="1.0" encoding="utf-8"?>
<!-- Generator: Adobe Illustrator 15.1.0, SVG Export Plug-In . SVG Version: 6.00 Build 0)  -->
<!DOCTYPE svg PUBLIC "-//W3C//DTD SVG 1.1//EN" "http://www.w3.org/Graphics/SVG/1.1/DTD/svg11.dtd">
<svg version="1.1" id="圖層_1" xmlns="http://www.w3.org/2000/svg" xmlns:xlink="http://www.w3.org/1999/xlink" x="0px" y="0px"
	 width="100px" height="100px" viewBox="0 0 100 100" enable-background="new 0 0 100 100" xml:space="preserve">
<path fill="#C1C1C1" d="M40.13,62.065l-17.72-17.73c-0.833-0.829-1.946-1.287-3.135-1.287c-1.188,0-2.301,0.458-3.132,1.287
	l-7.686,7.689c-0.839,0.837-1.301,1.951-1.301,3.137c0,1.188,0.462,2.301,1.299,3.136l38.409,38.409C47.696,97.542,48.809,98,50,98
	c1.191,0,2.305-0.459,3.135-1.292L91.547,58.3c1.728-1.729,1.729-4.544,0.004-6.273l-7.685-7.691
	c-0.83-0.829-1.943-1.287-3.131-1.287c-1.187,0-2.299,0.458-3.131,1.287L59.868,62.069V6.429C59.868,3.987,57.877,2,55.431,2H44.572
	c-2.448,0-4.44,1.987-4.44,4.429L40.13,62.065L40.13,62.065z"/>
</svg>
