<?xml version="1.0" encoding="utf-8"?>
<!-- Generator: Adobe Illustrator 15.1.0, SVG Export Plug-In . SVG Version: 6.00 Build 0)  -->
<!DOCTYPE svg PUBLIC "-//W3C//DTD SVG 1.1//EN" "http://www.w3.org/Graphics/SVG/1.1/DTD/svg11.dtd">
<svg version="1.1" id="圖層_1" xmlns="http://www.w3.org/2000/svg" xmlns:xlink="http://www.w3.org/1999/xlink" x="0px" y="0px"
	 width="100px" height="100px" viewBox="0 0 100 100" enable-background="new 0 0 100 100" xml:space="preserve">
<path fill="#34495E" d="M40.13,62.064L22.41,44.335c-0.833-0.829-1.946-1.287-3.135-1.287c-1.188,0-2.301,0.458-3.132,1.287
	l-7.686,7.69c-0.839,0.836-1.301,1.951-1.301,3.137c0,1.188,0.462,2.3,1.299,3.135l38.409,38.408C47.696,97.541,48.81,98,50,98
	c1.191,0,2.305-0.459,3.136-1.291l38.411-38.41c1.728-1.729,1.729-4.543,0.004-6.273l-7.684-7.69
	c-0.83-0.829-1.944-1.287-3.132-1.287c-1.187,0-2.3,0.458-3.13,1.287L59.868,62.068V6.429C59.868,3.987,57.877,2,55.431,2H44.571
	c-2.448,0-4.44,1.987-4.44,4.429L40.13,62.064L40.13,62.064z"/>
</svg>
