<?xml version="1.0" encoding="utf-8"?>
<!-- Generator: Adobe Illustrator 15.1.0, SVG Export Plug-In . SVG Version: 6.00 Build 0)  -->
<!DOCTYPE svg PUBLIC "-//W3C//DTD SVG 1.1//EN" "http://www.w3.org/Graphics/SVG/1.1/DTD/svg11.dtd">
<svg version="1.1" id="圖層_1" xmlns="http://www.w3.org/2000/svg" xmlns:xlink="http://www.w3.org/1999/xlink" x="0px" y="0px"
	 width="100px" height="100px" viewBox="0 0 100 100" enable-background="new 0 0 100 100" xml:space="preserve">
<path fill="#FFFFFF" d="M98,27.575c0,1.65-0.58,3.061-1.736,4.219L43,85.053c-1.162,1.151-2.561,1.731-4.21,1.731
	c-1.65,0-3.052-0.585-4.212-1.731L3.736,54.209C2.575,53.054,2,51.647,2,49.999c0-1.65,0.575-3.052,1.733-4.205l8.426-8.426
	c1.155-1.164,2.557-1.737,4.21-1.737c1.65,0,3.052,0.578,4.207,1.737l18.215,18.269l40.625-40.691
	c1.16-1.151,2.563-1.729,4.211-1.729c1.654,0,3.061,0.583,4.21,1.729l8.427,8.42c1.166,1.156,1.734,2.565,1.734,4.219H98V27.575z"/>
</svg>
