<?xml version="1.0" encoding="utf-8"?>
<!-- Generator: Adobe Illustrator 15.1.0, SVG Export Plug-In . SVG Version: 6.00 Build 0)  -->
<!DOCTYPE svg PUBLIC "-//W3C//DTD SVG 1.1//EN" "http://www.w3.org/Graphics/SVG/1.1/DTD/svg11.dtd">
<svg version="1.1" id="圖層_1" xmlns="http://www.w3.org/2000/svg" xmlns:xlink="http://www.w3.org/1999/xlink" x="0px" y="0px"
	 width="100px" height="100px" viewBox="0 0 100 100" enable-background="new 0 0 100 100" xml:space="preserve">
<path fill="#C1C1C1" d="M95.979,19.685H72.371l-4.018-9.583c-1.256-3.063-5.011-5.575-8.338-5.575H39.981
	c-3.321,0-7.074,2.507-8.332,5.575l-4.024,9.583H4.016C2.916,19.685,2,20.591,2,21.708v3.532c0,1.115,0.916,2.023,2.016,2.023
	h10.616v56.254c0,6.577,4.3,11.956,9.56,11.956h51.615c5.26,0,9.563-5.615,9.563-12.191V27.264h10.609
	c1.115,0,2.021-0.909,2.021-2.023v-3.532C98,20.591,97.093,19.685,95.979,19.685z M39.037,13.24
	c0.187-0.256,0.685-0.622,1.065-0.695h19.866c0.306,0.074,0.868,0.439,1.055,0.695l2.645,6.445h-27.33L39.037,13.24z M38.521,78.26
	c0,1.08-0.833,1.918-1.909,1.918h-3.832c-1.07,0-1.909-0.838-1.909-1.918V36.175c0-1.081,0.838-1.924,1.909-1.924h3.832
	c1.076,0,1.909,0.844,1.909,1.924V78.26z M53.834,78.26c0,1.08-0.844,1.918-1.919,1.918h-3.819c-1.076,0-1.924-0.838-1.924-1.918
	V36.175c0-1.081,0.849-1.924,1.924-1.924h3.819c1.075,0,1.919,0.844,1.919,1.924V78.26z M69.135,78.26
	c0,1.08-0.839,1.918-1.915,1.918h-3.828c-1.075,0-1.914-0.838-1.914-1.918V36.175c0-1.081,0.839-1.924,1.914-1.924h3.828
	c1.076,0,1.915,0.844,1.915,1.924V78.26z"/>
</svg>
