<?xml version="1.0" encoding="utf-8"?>
<!-- Generator: Adobe Illustrator 15.1.0, SVG Export Plug-In . SVG Version: 6.00 Build 0)  -->
<!DOCTYPE svg PUBLIC "-//W3C//DTD SVG 1.1//EN" "http://www.w3.org/Graphics/SVG/1.1/DTD/svg11.dtd">
<svg version="1.1" id="圖層_1" xmlns="http://www.w3.org/2000/svg" xmlns:xlink="http://www.w3.org/1999/xlink" x="0px" y="0px"
	 width="100px" height="100px" viewBox="0 0 100 100" enable-background="new 0 0 100 100" xml:space="preserve">
<polygon fill="#282828" points="52.649,88.685 52.649,52.649 61.595,61.58 65.474,57.722 50,42.263 34.526,57.722 38.395,61.58 
	47.348,52.649 47.348,88.685 "/>
<path fill="#282828" d="M91.666,24.634H52.065l-6.5-12.956l-0.167-0.362H8.313C4.282,11.316,1,14.58,1,18.584v62.832
	c0,4.004,3.269,7.269,7.293,7.269h29.172V84.08H8.289c-1.476,0-2.672-1.188-2.672-2.669V18.579c0-1.471,1.191-2.669,2.667-2.669
	h34.319l6.462,13.177l0.073,0.141h42.553c1.491,0,2.705,1.208,2.705,2.7v49.438c0,1.486-1.204,2.685-2.68,2.685H62.532v4.609h29.185
	c4.02,0,7.283-3.27,7.283-7.278V31.897C98.99,27.897,95.706,24.634,91.666,24.634z"/>
</svg>
