<?xml version="1.0" encoding="utf-8"?>
<!-- Generator: Adobe Illustrator 15.1.0, SVG Export Plug-In . SVG Version: 6.00 Build 0)  -->
<!DOCTYPE svg PUBLIC "-//W3C//DTD SVG 1.1//EN" "http://www.w3.org/Graphics/SVG/1.1/DTD/svg11.dtd">
<svg version="1.1" id="圖層_1" xmlns="http://www.w3.org/2000/svg" xmlns:xlink="http://www.w3.org/1999/xlink" x="0px" y="0px"
	 width="100px" height="100px" viewBox="0 0 100 100" enable-background="new 0 0 100 100" xml:space="preserve">
<path fill="#FFFFFF" d="M63.09,78.362v15.275c0,2.386-1.977,4.362-4.362,4.362H41.272c-2.386,0-4.364-1.979-4.364-4.362V78.362
	c0-2.386,1.978-4.362,4.364-4.362h17.455C61.113,74,63.09,75.979,63.09,78.362z M65.138,6.364l-1.91,52.364
	c-0.069,2.385-2.114,4.362-4.5,4.362H41.272c-2.386,0-4.433-1.978-4.5-4.362L34.863,6.364C34.793,3.978,36.706,2,39.091,2H60.91
	C63.296,2,65.203,3.978,65.138,6.364z"/>
</svg>
