<?xml version="1.0" encoding="utf-8"?>
<!-- Generator: Adobe Illustrator 15.1.0, SVG Export Plug-In . SVG Version: 6.00 Build 0)  -->
<!DOCTYPE svg PUBLIC "-//W3C//DTD SVG 1.1//EN" "http://www.w3.org/Graphics/SVG/1.1/DTD/svg11.dtd">
<svg version="1.1" id="圖層_1" xmlns="http://www.w3.org/2000/svg" xmlns:xlink="http://www.w3.org/1999/xlink" x="0px" y="0px"
	 width="100px" height="100px" viewBox="0 0 100 100" enable-background="new 0 0 100 100" xml:space="preserve">
<path fill="#236490" d="M96.987,42.609c-0.653-0.653-1.521-1.014-2.442-1.014h-36.14V5.455C58.405,3.549,56.856,2,54.951,2h-9.902
	c-1.905,0-3.455,1.55-3.455,3.455v36.142H5.455C3.549,41.597,2,43.147,2,45.052v9.897c0,1.905,1.55,3.454,3.455,3.454h36.139v36.142
	c0,1.906,1.55,3.455,3.455,3.455h9.9c1.906,0,3.456-1.549,3.456-3.455V58.403h36.14c1.905,0,3.455-1.55,3.455-3.455v-9.896
	C98,44.13,97.641,43.263,96.987,42.609z"/>
</svg>
