<?xml version="1.0" encoding="utf-8"?>
<!-- Generator: Adobe Illustrator 15.1.0, SVG Export Plug-In . SVG Version: 6.00 Build 0)  -->
<!DOCTYPE svg PUBLIC "-//W3C//DTD SVG 1.1//EN" "http://www.w3.org/Graphics/SVG/1.1/DTD/svg11.dtd">
<svg version="1.1" id="圖層_1" xmlns="http://www.w3.org/2000/svg" xmlns:xlink="http://www.w3.org/1999/xlink" x="0px" y="0px"
	 width="100px" height="100px" viewBox="0 0 100 100" enable-background="new 0 0 100 100" xml:space="preserve">
<path fill="#C1C1C1" d="M96.984,42.609c-0.652-0.653-1.519-1.013-2.438-1.013H58.403V5.454c0-1.904-1.55-3.454-3.454-3.454H45.05
	c-1.905,0-3.454,1.549-3.454,3.454v36.142H5.454C3.549,41.596,2,43.145,2,45.05v9.899c0,1.904,1.549,3.452,3.454,3.452h36.142
	v36.144c0,1.904,1.549,3.455,3.454,3.455h9.899c1.904,0,3.452-1.551,3.452-3.455V58.403h36.144c1.904,0,3.455-1.55,3.455-3.454
	V45.05C98,44.13,97.64,43.263,96.984,42.609z"/>
</svg>
