<?xml version="1.0" encoding="utf-8"?>
<!-- Generator: Adobe Illustrator 15.1.0, SVG Export Plug-In . SVG Version: 6.00 Build 0)  -->
<!DOCTYPE svg PUBLIC "-//W3C//DTD SVG 1.1//EN" "http://www.w3.org/Graphics/SVG/1.1/DTD/svg11.dtd">
<svg version="1.1" id="圖層_1" xmlns="http://www.w3.org/2000/svg" xmlns:xlink="http://www.w3.org/1999/xlink" x="0px" y="0px"
	 width="100px" height="100px" viewBox="0 0 100 100" enable-background="new 0 0 100 100" xml:space="preserve">
<path fill="#2975A8" d="M71.818,8.575C65.745,4.187,58.102,2,48.905,2C41.912,2,35.999,3.551,31.21,6.637
	c-7.62,4.826-11.657,13.039-12.144,24.602h17.633c0-3.369,0.995-6.601,2.951-9.732c1.976-3.132,5.313-4.694,10.025-4.694
	c4.788,0,8.088,1.275,9.89,3.813c1.799,2.538,2.705,5.351,2.705,8.438c0,2.688-1.35,5.144-2.968,7.375
	c-0.889,1.3-2.068,2.5-3.526,3.588c0,0-9.563,6.125-13.763,11.068c-2.431,2.857-2.65,7.132-2.875,13.277
	c-0.006,0.431,0.162,1.336,1.688,1.336c1.525,0,12.357,0,13.708,0c1.361,0,1.65-1.012,1.669-1.467
	c0.101-2.232,0.349-3.377,0.751-4.663c0.768-2.438,2.867-4.559,5.225-6.401l4.842-3.338c4.396-3.413,7.883-6.225,9.427-8.406
	c2.638-3.607,4.488-8.057,4.488-13.338C80.939,19.464,77.9,12.97,71.818,8.575z M48.625,76.281
	c-6.082-0.188-11.089,3.998-11.289,10.6c-0.187,6.58,4.577,10.938,10.664,11.113c6.332,0.188,11.214-3.877,11.415-10.463
	C59.595,80.93,54.976,76.469,48.625,76.281z"/>
</svg>
