<?xml version="1.0" encoding="utf-8"?>
<!-- Generator: Adobe Illustrator 15.1.0, SVG Export Plug-In . SVG Version: 6.00 Build 0)  -->
<!DOCTYPE svg PUBLIC "-//W3C//DTD SVG 1.1//EN" "http://www.w3.org/Graphics/SVG/1.1/DTD/svg11.dtd">
<svg version="1.1" id="圖層_1" xmlns="http://www.w3.org/2000/svg" xmlns:xlink="http://www.w3.org/1999/xlink" x="0px" y="0px"
	 width="100px" height="100px" viewBox="0 0 100 100" enable-background="new 0 0 100 100" xml:space="preserve">
<path fill="#C1C1C1" d="M71.818,8.575C65.745,4.187,58.102,2,48.905,2c-6.996,0-12.903,1.55-17.697,4.637
	c-7.617,4.826-11.654,13.039-12.142,24.602h17.633c0-3.369,0.995-6.601,2.951-9.732c1.972-3.132,5.313-4.694,10.026-4.694
	c4.787,0,8.087,1.275,9.889,3.813c1.799,2.538,2.705,5.351,2.705,8.438c0,2.688-1.35,5.144-2.968,7.375
	c-0.889,1.3-2.068,2.5-3.53,3.588c0,0-9.559,6.125-13.759,11.069c-2.432,2.857-2.65,7.131-2.872,13.277
	c-0.009,0.43,0.159,1.336,1.681,1.336c1.525,0,12.36,0,13.711,0c1.362,0,1.649-1.012,1.669-1.468
	c0.098-2.231,0.348-3.376,0.75-4.663c0.769-2.438,2.869-4.558,5.225-6.4l4.843-3.338c4.396-3.413,7.883-6.225,9.427-8.406
	c2.639-3.606,4.488-8.057,4.488-13.338C80.939,19.463,77.9,12.968,71.818,8.575z M48.625,76.281
	c-6.081-0.188-11.088,3.999-11.291,10.601c-0.184,6.58,4.582,10.938,10.664,11.112c6.335,0.187,11.216-3.876,11.417-10.464
	C59.595,80.931,54.973,76.47,48.625,76.281z"/>
</svg>
