<?xml version="1.0" encoding="utf-8"?>
<!-- Generator: Adobe Illustrator 15.1.0, SVG Export Plug-In . SVG Version: 6.00 Build 0)  -->
<!DOCTYPE svg PUBLIC "-//W3C//DTD SVG 1.1//EN" "http://www.w3.org/Graphics/SVG/1.1/DTD/svg11.dtd">
<svg version="1.1" id="圖層_1" xmlns="http://www.w3.org/2000/svg" xmlns:xlink="http://www.w3.org/1999/xlink" x="0px" y="0px"
	 width="100px" height="100px" viewBox="0 0 100 100" enable-background="new 0 0 100 100" xml:space="preserve">
<g>
	<path fill="#C1C1C1" d="M96.824,72.15C96.303,71.373,83.855,53.4,67.77,53.4c-16.078,0-28.527,17.973-29.055,18.75l-1.183,1.718
		l1.183,1.729c0.523,0.771,12.959,18.75,29.055,18.75c16.086,0,28.533-17.979,29.055-18.744L98,73.879L96.824,72.15z M64.293,62.441
		c2.968,0,5.373,2.421,5.373,5.381c0.011,2.962-2.405,5.381-5.373,5.381c-2.981,0-5.375-2.397-5.375-5.381
		C58.918,64.854,61.328,62.441,64.293,62.441z M67.775,88.223c-10.265,0-19.393-10.197-22.682-14.332
		c1.937-2.466,5.932-6.99,10.979-10.308c-0.703,1.589-1.115,3.333-1.115,5.183c0,7.082,5.735,12.801,12.813,12.801
		c7.074,0,12.803-5.729,12.803-12.801c0-1.84-0.401-3.578-1.099-5.156c5.03,3.316,9.03,7.832,10.975,10.281
		C87.151,78.041,78.031,88.223,67.775,88.223z"/>
	<path fill="#C1C1C1" d="M43.019,56.836H30.422c-3.136,0-5.68-2.557-5.68-5.691c0-3.163,2.54-5.68,5.68-5.68h14.229
		c3.136,0,5.68,2.549,5.68,5.68c0,0.117-0.041,0.258-0.041,0.375c5.034-3.037,10.939-5.271,17.476-5.271
		c1.824,0,3.584,0.213,5.303,0.54V28.4L58.859,5.653h-42.64L2,28.387v45.482h26.864v0.021l3.93-5.771
		C33.542,67.024,37.231,61.859,43.019,56.836z M17.914,8.483h39.237l12.447,19.903H5.482L17.914,8.483z"/>
	<polygon fill="#C1C1C1" points="53.177,11.338 21.898,11.338 20.198,14.176 54.875,14.176 	"/>
	<polygon fill="#C1C1C1" points="56.871,17.006 18.203,17.006 16.495,19.861 58.582,19.861 	"/>
	<polygon fill="#C1C1C1" points="60.275,22.708 14.794,22.708 13.087,25.546 61.988,25.546 	"/>
</g>
</svg>
