<?xml version="1.0" encoding="utf-8"?>
<!-- Generator: Adobe Illustrator 15.1.0, SVG Export Plug-In . SVG Version: 6.00 Build 0)  -->
<!DOCTYPE svg PUBLIC "-//W3C//DTD SVG 1.1//EN" "http://www.w3.org/Graphics/SVG/1.1/DTD/svg11.dtd">
<svg version="1.1" id="圖層_1" xmlns="http://www.w3.org/2000/svg" xmlns:xlink="http://www.w3.org/1999/xlink" x="0px" y="0px"
	 width="100px" height="100px" viewBox="0 0 100 100" enable-background="new 0 0 100 100" xml:space="preserve">
<path fill="#494949" d="M67.408,32.672l-6.1-6.093L30.877,57c-5.047,5.04-5.047,13.23,0,18.267c5.043,5.043,13.228,5.043,18.266,0
	L85.684,38.73c8.418-8.388,8.418-22.021,0-30.428c-8.407-8.402-22.035-8.402-30.447,0L16.881,46.666
	c-0.035,0.029-0.06,0.069-0.091,0.079c-11.716,11.733-11.716,30.739,0,42.462c11.718,11.724,30.741,11.724,42.456,0
	c0.029-0.034,0.055-0.069,0.089-0.09l0.011,0.01l26.185-26.18l-6.095-6.089L53.237,83.024c-0.02,0.029-0.049,0.059-0.073,0.094
	c-8.351,8.344-21.932,8.344-30.29,0c-8.346-8.348-8.346-21.938,0-30.285c0.027-0.021,0.047-0.06,0.086-0.074v-0.016l38.364-38.352
	c5.028-5.038,13.238-5.038,18.262,0c5.041,5.038,5.041,13.228,0,18.261L43.059,69.179c-1.683,1.674-4.421,1.674-6.093,0
	c-1.673-1.683-1.673-4.41,0-6.095l30.442-30.432h-0.01v0.02L67.408,32.672L67.408,32.672z"/>
</svg>
