<?xml version="1.0" encoding="utf-8"?>
<!-- Generator: Adobe Illustrator 15.1.0, SVG Export Plug-In . SVG Version: 6.00 Build 0)  -->
<!DOCTYPE svg PUBLIC "-//W3C//DTD SVG 1.1//EN" "http://www.w3.org/Graphics/SVG/1.1/DTD/svg11.dtd">
<svg version="1.1" id="圖層_1" xmlns="http://www.w3.org/2000/svg" xmlns:xlink="http://www.w3.org/1999/xlink" x="0px" y="0px"
	 width="100px" height="100px" viewBox="0 0 100 100" enable-background="new 0 0 100 100" xml:space="preserve">
<path fill="#2D2D2D" d="M67.407,32.673l-6.099-6.093L30.877,57c-5.047,5.041-5.047,13.229,0,18.266
	c5.042,5.044,13.228,5.044,18.266,0l36.54-36.536c8.42-8.388,8.42-22.021,0-30.427c-8.406-8.403-22.034-8.403-30.446,0
	L16.881,46.666c-0.035,0.03-0.06,0.069-0.092,0.079c-11.715,11.734-11.715,30.739,0,42.464c11.718,11.723,30.742,11.723,42.457,0
	c0.029-0.035,0.056-0.069,0.088-0.09l0.012,0.01l26.185-26.18l-6.095-6.089L53.236,83.024c-0.018,0.028-0.048,0.059-0.072,0.094
	c-8.351,8.345-21.932,8.345-30.29,0c-8.346-8.348-8.346-21.937,0-30.284c0.027-0.021,0.047-0.062,0.086-0.074v-0.016l38.364-38.352
	c5.028-5.038,13.238-5.038,18.261,0c5.043,5.038,5.043,13.227,0,18.261L43.059,69.178c-1.682,1.675-4.421,1.675-6.093,0
	c-1.673-1.683-1.673-4.41,0-6.094l30.441-30.432h-0.01v0.02L67.407,32.673L67.407,32.673z"/>
</svg>
