<?xml version="1.0" encoding="utf-8"?>
<!-- Generator: Adobe Illustrator 15.1.0, SVG Export Plug-In . SVG Version: 6.00 Build 0)  -->
<!DOCTYPE svg PUBLIC "-//W3C//DTD SVG 1.1//EN" "http://www.w3.org/Graphics/SVG/1.1/DTD/svg11.dtd">
<svg version="1.1" id="圖層_1" xmlns="http://www.w3.org/2000/svg" xmlns:xlink="http://www.w3.org/1999/xlink" x="0px" y="0px"
	 width="100px" height="100px" viewBox="0 0 100 100" enable-background="new 0 0 100 100" xml:space="preserve">
<g>
	<path fill="#0F5D8A" d="M31.52,42.667h15.334c1.654,0,2.998-1.344,2.998-3c0-1.661-1.344-3.004-2.998-3.004H31.52
		c-1.653,0-2.997,1.344-2.997,3.004C28.523,41.323,29.867,42.667,31.52,42.667z"/>
	<path fill="#0F5D8A" d="M52.188,63.334H31.52c-1.653,0-2.997,1.342-2.997,3c0,1.661,1.344,3.005,2.997,3.005h20.668
		c1.652,0,2.997-1.344,2.997-3.005C55.185,64.676,53.846,63.334,52.188,63.334z"/>
	<path fill="#0F5D8A" d="M68.189,50H31.52c-1.653,0-2.997,1.345-2.997,3c0,1.661,1.344,3.005,2.997,3.005h36.67
		c1.65,0,2.994-1.344,2.994-3.005C71.184,51.345,69.846,50,68.189,50z"/>
	<path fill="#0F5D8A" d="M85.23,23.469c-2.084-2.834-4.984-6.151-8.178-9.345c-3.182-3.188-6.504-6.088-9.342-8.165
		C62.867,2.411,60.529,2,59.184,2H18.316c-4.135,0-7.5,3.365-7.5,7.5v81c0,4.131,3.365,7.5,7.5,7.5h22.201h16.296h24.87
		c4.137,0,7.5-3.365,7.5-7.5V49.178V36.172v-4.167C89.189,30.656,88.777,28.313,85.23,23.469z M65.189,11.568
		c2.156,1.672,4.75,3.921,7.627,6.807c2.885,2.865,5.135,5.469,6.805,7.625H65.189V11.568z M83.189,43.942v46.552
		c0,0.812-0.688,1.5-1.5,1.5c0,0-17.359,0-29.533,0H40.523H18.322c-0.813,0-1.5-0.688-1.5-1.5V9.49c0-0.808,0.688-1.495,1.5-1.495
		c0,0,40.861,0,40.867,0V29c0,1.657,1.346,3,3,3h21.006v4.166v7.776L83.189,43.942L83.189,43.942z"/>
</g>
</svg>
