<?xml version="1.0" encoding="utf-8"?>
<!-- Generator: Adobe Illustrator 15.1.0, SVG Export Plug-In . SVG Version: 6.00 Build 0)  -->
<!DOCTYPE svg PUBLIC "-//W3C//DTD SVG 1.1//EN" "http://www.w3.org/Graphics/SVG/1.1/DTD/svg11.dtd">
<svg version="1.1" id="圖層_1" xmlns="http://www.w3.org/2000/svg" xmlns:xlink="http://www.w3.org/1999/xlink" x="0px" y="0px"
	 width="100px" height="100px" viewBox="0 0 100 100" enable-background="new 0 0 100 100" xml:space="preserve">
<path fill="#C1C1C1" d="M2,9.581h77.389v8.931H2V9.581z"/>
<path fill="#C1C1C1" d="M96.702,82.875L78.096,64.264c1.648-3.119,2.508-6.613,2.508-10.156c0-5.82-2.27-11.298-6.395-15.428
	c-4.066-4.056-9.44-6.316-15.172-6.385l-0.254-0.01c-12.029,0-21.809,9.794-21.809,21.813c0,12.03,9.79,21.812,21.809,21.812
	c4.974,0,9.795-1.697,13.65-4.797l18.004,18.005c0.835,0.839,1.949,1.302,3.133,1.302c1.195,0,2.301-0.463,3.133-1.302
	S98,87.177,98,85.993S97.541,83.703,96.702,82.875z M58.793,67.076c-7.15,0-12.967-5.813-12.967-12.969
	c0-7.143,5.817-12.951,12.967-12.951c3.469,0,6.721,1.347,9.159,3.789c2.451,2.442,3.799,5.693,3.799,9.162
	s-1.348,6.721-3.799,9.163C65.514,65.723,62.262,67.076,58.793,67.076z"/>
<path fill="#C1C1C1" d="M34.073,69.945H2v8.922h41.022C39.436,76.574,36.382,73.529,34.073,69.945z"/>
<g>
	<path fill="#C1C1C1" d="M29.4,54.107c0-1.459,0.143-2.881,0.35-4.288H2v8.936h27.804C29.563,57.238,29.4,55.691,29.4,54.107z"/>
</g>
<g>
	<path fill="#C1C1C1" d="M42.426,29.703H2v8.931h31.846C36.056,35.092,38.966,32.032,42.426,29.703z"/>
</g>
</svg>
