<?xml version="1.0" encoding="utf-8"?><!DOCTYPE svg PUBLIC "-//W3C//DTD SVG 1.1//EN" "http://www.w3.org/Graphics/SVG/1.1/DTD/svg11.dtd"><svg width="3010" height="3010" viewBox="0 0 3010 3010" xmlns="http://www.w3.org/2000/svg" xmlns:xlink="http://www.w3.org/1999/xlink"><svg width="100" height="100" viewBox="0 0 100 100" id="add" xmlns="http://www.w3.org/2000/svg"><path fill="#2975A8" d="M96.987 42.609a3.434 3.434 0 0 0-2.442-1.014h-36.14V5.455A3.458 3.458 0 0 0 54.951 2h-9.902a3.459 3.459 0 0 0-3.455 3.455v36.142H5.455A3.458 3.458 0 0 0 2 45.052v9.897a3.458 3.458 0 0 0 3.455 3.454h36.139v36.142A3.458 3.458 0 0 0 45.049 98h9.9a3.459 3.459 0 0 0 3.456-3.455V58.403h36.14A3.459 3.459 0 0 0 98 54.948v-9.896c0-.922-.359-1.789-1.013-2.443z"/></svg><svg width="100" height="100" viewBox="0 0 100 100" id="add-disabled" x="100" y="100" xmlns="http://www.w3.org/2000/svg"><path fill="#C1C1C1" d="M96.987 42.609a3.434 3.434 0 0 0-2.442-1.014h-36.14V5.455A3.458 3.458 0 0 0 54.951 2h-9.902a3.459 3.459 0 0 0-3.455 3.455v36.142H5.455A3.458 3.458 0 0 0 2 45.052v9.897a3.458 3.458 0 0 0 3.455 3.454h36.139v36.142A3.458 3.458 0 0 0 45.049 98h9.9a3.459 3.459 0 0 0 3.456-3.455V58.403h36.14A3.459 3.459 0 0 0 98 54.948v-9.896c0-.922-.359-1.789-1.013-2.443z"/></svg><svg width="100" height="100" viewBox="0 0 100 100" id="add-hover" x="200" y="200" xmlns="http://www.w3.org/2000/svg"><path fill="#236490" d="M96.987 42.609a3.434 3.434 0 0 0-2.442-1.014h-36.14V5.455A3.458 3.458 0 0 0 54.951 2h-9.902a3.459 3.459 0 0 0-3.455 3.455v36.142H5.455A3.458 3.458 0 0 0 2 45.052v9.897a3.458 3.458 0 0 0 3.455 3.454h36.139v36.142A3.458 3.458 0 0 0 45.049 98h9.9a3.459 3.459 0 0 0 3.456-3.455V58.403h36.14A3.459 3.459 0 0 0 98 54.948v-9.896c0-.922-.359-1.789-1.013-2.443z"/></svg><svg width="100" height="100" viewBox="0 0 100 100" id="add2" x="300" y="300" xmlns="http://www.w3.org/2000/svg"><path fill="#3498DB" d="M96.985 42.609a3.427 3.427 0 0 0-2.438-1.013H58.403V5.454A3.457 3.457 0 0 0 54.949 2H45.05a3.457 3.457 0 0 0-3.454 3.454v36.142H5.454A3.457 3.457 0 0 0 2 45.05v9.898a3.457 3.457 0 0 0 3.454 3.454h36.142v36.143A3.458 3.458 0 0 0 45.05 98h9.898a3.458 3.458 0 0 0 3.454-3.455V58.403h36.143A3.458 3.458 0 0 0 98 54.949V45.05c0-.92-.36-1.787-1.015-2.441z"/></svg><svg width="100" height="100" viewBox="0 0 100 100" id="add2-disabled" x="400" y="400" xmlns="http://www.w3.org/2000/svg"><path fill="#C1C1C1" d="M96.984 42.609a3.426 3.426 0 0 0-2.438-1.013H58.403V5.454A3.459 3.459 0 0 0 54.949 2H45.05a3.457 3.457 0 0 0-3.454 3.454v36.142H5.454A3.457 3.457 0 0 0 2 45.05v9.899a3.456 3.456 0 0 0 3.454 3.452h36.142v36.144A3.459 3.459 0 0 0 45.05 98h9.899a3.458 3.458 0 0 0 3.452-3.455V58.403h36.144A3.46 3.46 0 0 0 98 54.949V45.05c0-.92-.36-1.787-1.016-2.441z"/></svg><svg width="100" height="100" viewBox="0 0 100 100" id="add2-hover" x="500" y="500" xmlns="http://www.w3.org/2000/svg"><path fill="#1F74AD" d="M96.985 42.609a3.427 3.427 0 0 0-2.438-1.013H58.403V5.454A3.457 3.457 0 0 0 54.949 2H45.05a3.457 3.457 0 0 0-3.454 3.454v36.142H5.454A3.457 3.457 0 0 0 2 45.05v9.898a3.457 3.457 0 0 0 3.454 3.454h36.142v36.143A3.458 3.458 0 0 0 45.05 98h9.898a3.458 3.458 0 0 0 3.454-3.455V58.403h36.143A3.458 3.458 0 0 0 98 54.949V45.05c0-.92-.36-1.787-1.015-2.441z"/></svg><svg width="100" height="100" viewBox="0 0 100 100" id="alert-help" x="600" y="600" xmlns="http://www.w3.org/2000/svg"><path fill="#2975A8" d="M71.818 8.575C65.745 4.187 58.102 2 48.905 2 41.912 2 35.999 3.551 31.21 6.637c-7.62 4.826-11.657 13.039-12.144 24.602h17.633c0-3.369.995-6.601 2.951-9.732 1.976-3.132 5.313-4.694 10.025-4.694 4.788 0 8.088 1.275 9.89 3.813 1.799 2.538 2.705 5.351 2.705 8.438 0 2.688-1.35 5.144-2.968 7.375-.889 1.3-2.068 2.5-3.526 3.588 0 0-9.563 6.125-13.763 11.068-2.431 2.857-2.65 7.132-2.875 13.277-.006.431.162 1.336 1.688 1.336h13.708c1.361 0 1.65-1.012 1.669-1.467.101-2.232.349-3.377.751-4.663.768-2.438 2.867-4.559 5.225-6.401l4.842-3.338c4.396-3.413 7.883-6.225 9.427-8.406 2.638-3.607 4.488-8.057 4.488-13.338.003-8.631-3.036-15.125-9.118-19.52zM48.625 76.281c-6.082-.188-11.089 3.998-11.289 10.6-.187 6.58 4.577 10.938 10.664 11.113 6.332.188 11.214-3.877 11.415-10.463.18-6.601-4.439-11.062-10.79-11.25z"/></svg><svg width="100" height="100" viewBox="0 0 100 100" id="alert-help-disabled" x="700" y="700" xmlns="http://www.w3.org/2000/svg"><path fill="#C1C1C1" d="M71.818 8.575C65.745 4.187 58.102 2 48.905 2c-6.996 0-12.903 1.55-17.697 4.637-7.617 4.826-11.654 13.039-12.142 24.602h17.633c0-3.369.995-6.601 2.951-9.732 1.972-3.132 5.313-4.694 10.026-4.694 4.787 0 8.087 1.275 9.889 3.813 1.799 2.538 2.705 5.351 2.705 8.438 0 2.688-1.35 5.144-2.968 7.375-.889 1.3-2.068 2.5-3.53 3.588 0 0-9.559 6.125-13.759 11.069-2.432 2.857-2.65 7.131-2.872 13.277-.009.43.159 1.336 1.681 1.336h13.711c1.362 0 1.649-1.012 1.669-1.468.098-2.231.348-3.376.75-4.663.769-2.438 2.869-4.558 5.225-6.4l4.843-3.338c4.396-3.413 7.883-6.225 9.427-8.406 2.639-3.606 4.488-8.057 4.488-13.338.004-8.633-3.035-15.128-9.117-19.521zM48.625 76.281c-6.081-.188-11.088 3.999-11.291 10.601-.184 6.58 4.582 10.938 10.664 11.112 6.335.187 11.216-3.876 11.417-10.464.18-6.599-4.442-11.06-10.79-11.249z"/></svg><svg width="100" height="100" viewBox="0 0 100 100" id="alert-help-hover" x="800" y="800" xmlns="http://www.w3.org/2000/svg"><path fill="#236490" d="M71.818 8.575C65.745 4.187 58.102 2 48.905 2 41.912 2 35.999 3.551 31.21 6.637c-7.62 4.826-11.657 13.039-12.144 24.602h17.633c0-3.369.995-6.601 2.951-9.732 1.976-3.132 5.313-4.694 10.025-4.694 4.788 0 8.088 1.275 9.89 3.813 1.799 2.538 2.705 5.351 2.705 8.438 0 2.688-1.35 5.144-2.968 7.375-.889 1.3-2.068 2.5-3.526 3.588 0 0-9.563 6.125-13.763 11.068-2.431 2.857-2.65 7.132-2.875 13.277-.006.431.162 1.336 1.688 1.336h13.708c1.361 0 1.65-1.012 1.669-1.467.101-2.232.349-3.377.751-4.663.768-2.438 2.867-4.559 5.225-6.401l4.842-3.338c4.396-3.413 7.883-6.225 9.427-8.406 2.638-3.607 4.488-8.057 4.488-13.338.003-8.631-3.036-15.125-9.118-19.52zM48.625 76.281c-6.082-.188-11.089 3.998-11.289 10.6-.187 6.58 4.577 10.938 10.664 11.113 6.332.188 11.214-3.877 11.415-10.463.18-6.601-4.439-11.062-10.79-11.25z"/></svg><svg width="100" height="100" viewBox="0 0 100 100" id="arrow-down" x="900" y="900" xmlns="http://www.w3.org/2000/svg"><path fill="#878787" d="M12.46 19.758l37.528 37.516 37.527-37.516L99 31.242l-49 49-49-49 11.46-11.484z"/><title>keyboard_arrow_up</title></svg><svg width="100" height="100" viewBox="0 0 100 100" id="arrow-up" x="1000" y="1000" xmlns="http://www.w3.org/2000/svg"><path fill="#878787" d="M87.539 80.242L50.012 42.727 12.484 80.242 1 68.758l49-49 49 49-11.461 11.484z"/><title>keyboard_arrow_up</title></svg><svg width="100" height="100" viewBox="0 0 100 100" id="arrow_down" x="1100" y="1100" xmlns="http://www.w3.org/2000/svg"><path fill="#878787" d="M12.46 19.758l37.528 37.516 37.527-37.516L99 31.242l-49 49-49-49 11.46-11.484z"/><title>keyboard_arrow_up</title></svg><svg width="100" height="100" viewBox="0 0 100 100" id="arrow_down_off" x="1200" y="1200" xmlns="http://www.w3.org/2000/svg"><path fill="#2D2D2D" d="M12.46 19.758l37.528 37.516 37.527-37.516L99 31.242l-49 49-49-49 11.46-11.484z"/><title>keyboard_arrow_up</title></svg><svg width="100" height="100" viewBox="0 0 100 100" id="arrow_up" x="1300" y="1300" xmlns="http://www.w3.org/2000/svg"><path fill="#878787" d="M87.539 80.242L50.012 42.727 12.484 80.242 1 68.758l49-49 49 49-11.461 11.484z"/><title>keyboard_arrow_up</title></svg><svg width="100" height="100" viewBox="0 0 100 100" id="arrow_up_off" x="1400" y="1400" xmlns="http://www.w3.org/2000/svg"><path fill="#2D2D2D" d="M87.539 80.242L50.012 42.727 12.484 80.242 1 68.758l49-49 49 49-11.461 11.484z"/><title>keyboard_arrow_up</title></svg><svg width="10" height="10" viewBox="0 0 10 10" id="ascending" x="1500" y="1500" xmlns="http://www.w3.org/2000/svg"><title>keyboard_arrow_down</title><title>keyboard_arrow_up</title><path fill="#828282" d="M6 .5h3.999v2H6zM3.002 4H10v2H3.002zM.002 7.5H10v1.999H.002z"/></svg><svg width="100" height="100" viewBox="0 0 100 100" id="att-ref" x="1510" y="1510" xmlns="http://www.w3.org/2000/svg"><g fill="#C93232"><path d="M96.824 72.15c-.521-.777-12.969-18.75-29.054-18.75-16.078 0-28.527 17.973-29.055 18.75l-1.183 1.718 1.183 1.729c.523.771 12.959 18.75 29.055 18.75 16.086 0 28.533-17.979 29.055-18.744L98 73.879l-1.176-1.729zm-32.531-9.709c2.968 0 5.373 2.421 5.373 5.381.011 2.962-2.405 5.381-5.373 5.381a5.362 5.362 0 0 1-5.375-5.381 5.383 5.383 0 0 1 5.375-5.381zm3.482 25.782c-10.265 0-19.393-10.197-22.682-14.332 1.937-2.466 5.932-6.99 10.979-10.308a12.76 12.76 0 0 0-1.115 5.183c0 7.082 5.735 12.801 12.813 12.801 7.074 0 12.803-5.729 12.803-12.801a12.7 12.7 0 0 0-1.099-5.156c5.03 3.316 9.03 7.832 10.975 10.281-3.298 4.15-12.418 14.332-22.674 14.332z"/><path d="M43.019 56.836H30.422c-3.136 0-5.68-2.557-5.68-5.691 0-3.163 2.54-5.68 5.68-5.68h14.229a5.684 5.684 0 0 1 5.68 5.68c0 .117-.041.258-.041.375 5.034-3.037 10.939-5.271 17.476-5.271 1.824 0 3.584.213 5.303.54V28.4L58.859 5.653h-42.64L2 28.387v45.482h26.864v.021l3.93-5.771c.748-1.095 4.437-6.26 10.225-11.283zM17.914 8.483h39.237l12.447 19.903H5.482L17.914 8.483z"/><path d="M53.177 11.338H21.898l-1.7 2.838h34.677zM56.871 17.006H18.203l-1.708 2.855h42.087zM60.275 22.708H14.794l-1.707 2.838h48.901z"/></g></svg><svg width="100" height="100" viewBox="0 0 100 100" id="att-ref-disabled" x="1610" y="1610" xmlns="http://www.w3.org/2000/svg"><g fill="#C1C1C1"><path d="M96.824 72.15c-.521-.777-12.969-18.75-29.054-18.75-16.078 0-28.527 17.973-29.055 18.75l-1.183 1.718 1.183 1.729c.523.771 12.959 18.75 29.055 18.75 16.086 0 28.533-17.979 29.055-18.744L98 73.879l-1.176-1.729zm-32.531-9.709c2.968 0 5.373 2.421 5.373 5.381.011 2.962-2.405 5.381-5.373 5.381a5.362 5.362 0 0 1-5.375-5.381 5.383 5.383 0 0 1 5.375-5.381zm3.482 25.782c-10.265 0-19.393-10.197-22.682-14.332 1.937-2.466 5.932-6.99 10.979-10.308a12.76 12.76 0 0 0-1.115 5.183c0 7.082 5.735 12.801 12.813 12.801 7.074 0 12.803-5.729 12.803-12.801a12.7 12.7 0 0 0-1.099-5.156c5.03 3.316 9.03 7.832 10.975 10.281-3.298 4.15-12.418 14.332-22.674 14.332z"/><path d="M43.019 56.836H30.422c-3.136 0-5.68-2.557-5.68-5.691 0-3.163 2.54-5.68 5.68-5.68h14.229a5.684 5.684 0 0 1 5.68 5.68c0 .117-.041.258-.041.375 5.034-3.037 10.939-5.271 17.476-5.271 1.824 0 3.584.213 5.303.54V28.4L58.859 5.653h-42.64L2 28.387v45.482h26.864v.021l3.93-5.771c.748-1.095 4.437-6.26 10.225-11.283zM17.914 8.483h39.237l12.447 19.903H5.482L17.914 8.483z"/><path d="M53.177 11.338H21.898l-1.7 2.838h34.677zM56.871 17.006H18.203l-1.708 2.855h42.087zM60.275 22.708H14.794l-1.707 2.838h48.901z"/></g></svg><svg width="100" height="100" viewBox="0 0 100 100" id="att-ref-hover" x="1710" y="1710" xmlns="http://www.w3.org/2000/svg"><g fill="#AD1717"><path d="M96.824 72.15c-.521-.777-12.969-18.75-29.054-18.75-16.078 0-28.527 17.973-29.055 18.75l-1.183 1.718 1.183 1.729c.523.771 12.959 18.75 29.055 18.75 16.086 0 28.533-17.979 29.055-18.744L98 73.879l-1.176-1.729zm-32.531-9.709c2.968 0 5.373 2.421 5.373 5.381.011 2.962-2.405 5.381-5.373 5.381a5.362 5.362 0 0 1-5.375-5.381 5.383 5.383 0 0 1 5.375-5.381zm3.482 25.782c-10.265 0-19.393-10.197-22.682-14.332 1.937-2.466 5.932-6.99 10.979-10.308a12.76 12.76 0 0 0-1.115 5.183c0 7.082 5.735 12.801 12.813 12.801 7.074 0 12.803-5.729 12.803-12.801a12.7 12.7 0 0 0-1.099-5.156c5.03 3.316 9.03 7.832 10.975 10.281-3.298 4.15-12.418 14.332-22.674 14.332z"/><path d="M43.019 56.836H30.422c-3.136 0-5.68-2.557-5.68-5.691 0-3.163 2.54-5.68 5.68-5.68h14.229a5.684 5.684 0 0 1 5.68 5.68c0 .117-.041.258-.041.375 5.034-3.037 10.939-5.271 17.476-5.271 1.824 0 3.584.213 5.303.54V28.4L58.859 5.653h-42.64L2 28.387v45.482h26.864v.021l3.93-5.771c.748-1.095 4.437-6.26 10.225-11.283zM17.914 8.483h39.237l12.447 19.903H5.482L17.914 8.483z"/><path d="M53.177 11.338H21.898l-1.7 2.838h34.677zM56.871 17.006H18.203l-1.708 2.855h42.087zM60.275 22.708H14.794l-1.707 2.838h48.901z"/></g></svg><svg width="100" height="100" viewBox="0 0 100 100" id="attachment" x="1810" y="1810" xmlns="http://www.w3.org/2000/svg"><path fill="#494949" d="M67.408 32.672l-6.1-6.093L30.877 57c-5.047 5.04-5.047 13.23 0 18.267 5.043 5.043 13.228 5.043 18.266 0L85.684 38.73c8.418-8.388 8.418-22.021 0-30.428C77.277-.1 63.649-.1 55.237 8.302L16.881 46.666c-.035.029-.06.069-.091.079-11.716 11.733-11.716 30.739 0 42.462 11.718 11.724 30.741 11.724 42.456 0 .029-.034.055-.069.089-.09l.011.01 26.185-26.18-6.095-6.089-26.199 26.166c-.02.029-.049.059-.073.094-8.351 8.344-21.932 8.344-30.29 0-8.346-8.348-8.346-21.938 0-30.285.027-.021.047-.06.086-.074v-.016l38.364-38.352c5.028-5.038 13.238-5.038 18.262 0 5.041 5.038 5.041 13.228 0 18.261L43.059 69.179c-1.683 1.674-4.421 1.674-6.093 0a4.328 4.328 0 0 1 0-6.095l30.442-30.432h-.01v.02h.01z"/></svg><svg width="100" height="100" viewBox="0 0 100 100" id="attachment-disabled" x="1910" y="1910" xmlns="http://www.w3.org/2000/svg"><path fill="#C1C1C1" d="M67.408 32.672l-6.1-6.093L30.877 57c-5.047 5.04-5.047 13.23 0 18.267 5.043 5.043 13.228 5.043 18.266 0L85.684 38.73c8.418-8.388 8.418-22.021 0-30.428C77.277-.1 63.649-.1 55.237 8.302L16.881 46.666c-.035.029-.06.069-.091.079-11.716 11.733-11.716 30.739 0 42.462 11.718 11.724 30.741 11.724 42.456 0 .029-.034.055-.069.089-.09l.011.01 26.185-26.18-6.095-6.089-26.199 26.166c-.02.029-.049.059-.073.094-8.351 8.344-21.932 8.344-30.29 0-8.346-8.348-8.346-21.938 0-30.285.027-.021.047-.06.086-.074v-.016l38.364-38.352c5.028-5.038 13.238-5.038 18.262 0 5.041 5.038 5.041 13.228 0 18.261L43.059 69.179c-1.683 1.674-4.421 1.674-6.093 0a4.328 4.328 0 0 1 0-6.095l30.442-30.432h-.01v.02h.01z"/></svg><svg width="100" height="100" viewBox="0 0 100 100" id="attachment-hover" x="2010" y="2010" xmlns="http://www.w3.org/2000/svg"><path fill="#2D2D2D" d="M67.407 32.673l-6.099-6.093L30.877 57c-5.047 5.041-5.047 13.229 0 18.266 5.042 5.044 13.228 5.044 18.266 0l36.54-36.536c8.42-8.388 8.42-22.021 0-30.427C77.277-.1 63.649-.1 55.237 8.303L16.881 46.666c-.035.03-.06.069-.092.079-11.715 11.734-11.715 30.739 0 42.464 11.718 11.723 30.742 11.723 42.457 0 .029-.035.056-.069.088-.09l.012.01 26.185-26.18-6.095-6.089-26.2 26.164c-.018.028-.048.059-.072.094-8.351 8.345-21.932 8.345-30.29 0-8.346-8.348-8.346-21.937 0-30.284.027-.021.047-.062.086-.074v-.016l38.364-38.352c5.028-5.038 13.238-5.038 18.261 0 5.043 5.038 5.043 13.227 0 18.261L43.059 69.178c-1.682 1.675-4.421 1.675-6.093 0a4.327 4.327 0 0 1 0-6.094l30.441-30.432h-.01v.02l.01.001z"/></svg><svg width="100" height="100" viewBox="0 0 100 100" id="back" x="2110" y="2110" xmlns="http://www.w3.org/2000/svg"><path fill="#62B65C" d="M49.997 30.846V15.495a6.048 6.048 0 0 0-1.754-4.25c-1.171-1.163-2.709-1.744-4.244-1.744s-3.072.593-4.244 1.744L2 48.497l37.756 37.247C40.927 86.912 42.465 87.5 44 87.5a6 6 0 0 0 4.244-1.756 6.013 6.013 0 0 0 1.754-4.246V66.561c16.5.413 34.527 3.4 48.002 23.939v-6c0-27.802-21-50.666-48.003-53.654z"/></svg><svg width="100" height="100" viewBox="0 0 100 100" id="back-disabled" x="2210" y="2210" xmlns="http://www.w3.org/2000/svg"><path fill="#C1C1C1" d="M49.997 30.846V15.495a6.048 6.048 0 0 0-1.754-4.25c-1.171-1.163-2.709-1.744-4.244-1.744s-3.072.593-4.244 1.744L2 48.497l37.756 37.247C40.927 86.912 42.465 87.5 44 87.5a6 6 0 0 0 4.244-1.756 6.013 6.013 0 0 0 1.754-4.246V66.561c16.5.413 34.527 3.4 48.002 23.939v-6c0-27.802-21-50.666-48.003-53.654z"/></svg><svg width="100" height="100" viewBox="0 0 100 100" id="back-hover" x="2310" y="2310" xmlns="http://www.w3.org/2000/svg"><path fill="#090" d="M49.997 30.846V15.495a6.048 6.048 0 0 0-1.754-4.25c-1.171-1.163-2.709-1.744-4.244-1.744s-3.072.593-4.244 1.744L2 48.497l37.756 37.247C40.927 86.912 42.465 87.5 44 87.5a6 6 0 0 0 4.244-1.756 6.013 6.013 0 0 0 1.754-4.246V66.561c16.5.413 34.527 3.4 48.002 23.939v-6c0-27.802-21-50.666-48.003-53.654z"/></svg><svg width="100" height="100" viewBox="0 0 100 100" id="blank-file" x="2410" y="2410" xmlns="http://www.w3.org/2000/svg"><g fill="#3280B7"><path d="M31.52 42.667h15.334a3 3 0 0 0 2.998-3 3 3 0 0 0-2.998-3.004H31.52a3.001 3.001 0 0 0-2.997 3.004 3 3 0 0 0 2.997 3zM52.188 63.334H31.52a3 3 0 0 0-2.997 3 3.002 3.002 0 0 0 2.997 3.005h20.668a3.002 3.002 0 0 0 2.997-3.005c0-1.658-1.339-3-2.997-3zM68.189 50H31.52a3.001 3.001 0 0 0-2.997 3 3.002 3.002 0 0 0 2.997 3.005h36.67A3 3 0 0 0 71.184 53c0-1.655-1.338-3-2.995-3z"/><path d="M85.23 23.469c-2.084-2.834-4.984-6.151-8.178-9.345-3.182-3.188-6.504-6.088-9.342-8.165C62.867 2.411 60.529 2 59.184 2H18.316c-4.135 0-7.5 3.365-7.5 7.5v81c0 4.131 3.365 7.5 7.5 7.5H81.683c4.137 0 7.5-3.365 7.5-7.5V32.005c.006-1.349-.406-3.692-3.953-8.536zM65.189 11.568c2.156 1.672 4.75 3.921 7.627 6.807 2.885 2.865 5.135 5.469 6.805 7.625H65.189V11.568zm18 32.374v46.552c0 .812-.688 1.5-1.5 1.5H18.322a1.52 1.52 0 0 1-1.5-1.5V9.49c0-.808.688-1.495 1.5-1.495h40.867V29c0 1.657 1.346 3 3 3h21.006v11.942h-.006z"/></g></svg><svg width="100" height="100" viewBox="0 0 100 100" id="blank-file-disabled" x="2510" y="2510" xmlns="http://www.w3.org/2000/svg"><g fill="#C1C1C1"><path d="M31.52 42.667h15.334a3 3 0 0 0 2.998-3 3 3 0 0 0-2.998-3.004H31.52a3.001 3.001 0 0 0-2.997 3.004 3 3 0 0 0 2.997 3zM52.188 63.334H31.52a3 3 0 0 0-2.997 3 3.002 3.002 0 0 0 2.997 3.005h20.668a3.002 3.002 0 0 0 2.997-3.005c0-1.658-1.339-3-2.997-3zM68.189 50H31.52a3.001 3.001 0 0 0-2.997 3 3.002 3.002 0 0 0 2.997 3.005h36.67A3 3 0 0 0 71.184 53c0-1.655-1.338-3-2.995-3z"/><path d="M85.23 23.469c-2.084-2.834-4.984-6.151-8.178-9.345-3.182-3.188-6.504-6.088-9.342-8.165C62.867 2.411 60.529 2 59.184 2H18.316c-4.135 0-7.5 3.365-7.5 7.5v81c0 4.131 3.365 7.5 7.5 7.5H81.683c4.137 0 7.5-3.365 7.5-7.5V32.005c.006-1.349-.406-3.692-3.953-8.536zM65.189 11.568c2.156 1.672 4.75 3.921 7.627 6.807 2.885 2.865 5.135 5.469 6.805 7.625H65.189V11.568zm18 32.374v46.552c0 .812-.688 1.5-1.5 1.5H18.322a1.52 1.52 0 0 1-1.5-1.5V9.49c0-.808.688-1.495 1.5-1.495h40.867V29c0 1.657 1.346 3 3 3h21.006v11.942h-.006z"/></g></svg><svg width="100" height="100" viewBox="0 0 100 100" id="blank-file-hover" x="2610" y="2610" xmlns="http://www.w3.org/2000/svg"><g fill="#0F5D8A"><path d="M31.52 42.667h15.334a3 3 0 0 0 2.998-3 3 3 0 0 0-2.998-3.004H31.52a3.001 3.001 0 0 0-2.997 3.004 3 3 0 0 0 2.997 3zM52.188 63.334H31.52a3 3 0 0 0-2.997 3 3.002 3.002 0 0 0 2.997 3.005h20.668a3.002 3.002 0 0 0 2.997-3.005c0-1.658-1.339-3-2.997-3zM68.189 50H31.52a3.001 3.001 0 0 0-2.997 3 3.002 3.002 0 0 0 2.997 3.005h36.67A3 3 0 0 0 71.184 53c0-1.655-1.338-3-2.995-3z"/><path d="M85.23 23.469c-2.084-2.834-4.984-6.151-8.178-9.345-3.182-3.188-6.504-6.088-9.342-8.165C62.867 2.411 60.529 2 59.184 2H18.316c-4.135 0-7.5 3.365-7.5 7.5v81c0 4.131 3.365 7.5 7.5 7.5H81.683c4.137 0 7.5-3.365 7.5-7.5V32.005c.006-1.349-.406-3.692-3.953-8.536zM65.189 11.568c2.156 1.672 4.75 3.921 7.627 6.807 2.885 2.865 5.135 5.469 6.805 7.625H65.189V11.568zm18 32.374v46.552c0 .812-.688 1.5-1.5 1.5H18.322a1.52 1.52 0 0 1-1.5-1.5V9.49c0-.808.688-1.495 1.5-1.495h40.867V29c0 1.657 1.346 3 3 3h21.006v11.942h-.006z"/></g></svg><svg width="100" height="100" viewBox="0 0 100 100" id="browse" x="2710" y="2710" xmlns="http://www.w3.org/2000/svg"><path fill="#3280B7" d="M2 9.581h77.389v8.931H2V9.581zM96.702 82.875L78.096 64.264a21.757 21.757 0 0 0 2.508-10.156c0-5.82-2.27-11.298-6.395-15.428-4.066-4.056-9.44-6.316-15.172-6.385l-.254-.01c-12.029 0-21.809 9.794-21.809 21.813 0 12.03 9.79 21.812 21.809 21.812a21.79 21.79 0 0 0 13.65-4.797l18.004 18.005a4.393 4.393 0 0 0 3.133 1.302c1.195 0 2.301-.463 3.133-1.302S98 87.177 98 85.993s-.459-2.29-1.298-3.118zM58.793 67.076c-7.15 0-12.967-5.813-12.967-12.969 0-7.143 5.817-12.951 12.967-12.951 3.469 0 6.721 1.347 9.159 3.789 2.451 2.442 3.799 5.693 3.799 9.162s-1.348 6.721-3.799 9.163a12.822 12.822 0 0 1-9.159 3.806zM34.073 69.945H2v8.922h41.022a29.654 29.654 0 0 1-8.949-8.922zM29.4 54.107c0-1.459.143-2.881.35-4.288H2v8.936h27.804c-.241-1.517-.404-3.064-.404-4.648zM42.426 29.703H2v8.931h31.846c2.21-3.542 5.12-6.602 8.58-8.931z"/></svg><svg width="100" height="100" viewBox="0 0 100 100" id="browse-disabled" x="2810" y="2810" xmlns="http://www.w3.org/2000/svg"><path fill="#C1C1C1" d="M2 9.581h77.389v8.931H2V9.581zM96.702 82.875L78.096 64.264a21.757 21.757 0 0 0 2.508-10.156c0-5.82-2.27-11.298-6.395-15.428-4.066-4.056-9.44-6.316-15.172-6.385l-.254-.01c-12.029 0-21.809 9.794-21.809 21.813 0 12.03 9.79 21.812 21.809 21.812a21.79 21.79 0 0 0 13.65-4.797l18.004 18.005a4.393 4.393 0 0 0 3.133 1.302c1.195 0 2.301-.463 3.133-1.302S98 87.177 98 85.993s-.459-2.29-1.298-3.118zM58.793 67.076c-7.15 0-12.967-5.813-12.967-12.969 0-7.143 5.817-12.951 12.967-12.951 3.469 0 6.721 1.347 9.159 3.789 2.451 2.442 3.799 5.693 3.799 9.162s-1.348 6.721-3.799 9.163a12.822 12.822 0 0 1-9.159 3.806zM34.073 69.945H2v8.922h41.022a29.654 29.654 0 0 1-8.949-8.922zM29.4 54.107c0-1.459.143-2.881.35-4.288H2v8.936h27.804c-.241-1.517-.404-3.064-.404-4.648zM42.426 29.703H2v8.931h31.846c2.21-3.542 5.12-6.602 8.58-8.931z"/></svg><svg width="100" height="100" viewBox="0 0 100 100" id="browse-hover" x="2910" y="2910" xmlns="http://www.w3.org/2000/svg"><path fill="#0F5D8A" d="M2 9.581h77.389v8.931H2V9.581zM96.702 82.875L78.096 64.264a21.757 21.757 0 0 0 2.508-10.156c0-5.82-2.27-11.298-6.395-15.428-4.066-4.056-9.44-6.316-15.172-6.385l-.254-.01c-12.029 0-21.809 9.794-21.809 21.813 0 12.03 9.79 21.812 21.809 21.812a21.79 21.79 0 0 0 13.65-4.797l18.004 18.005a4.393 4.393 0 0 0 3.133 1.302c1.195 0 2.301-.463 3.133-1.302S98 87.177 98 85.993s-.459-2.29-1.298-3.118zM58.793 67.076c-7.15 0-12.967-5.813-12.967-12.969 0-7.143 5.817-12.951 12.967-12.951 3.469 0 6.721 1.347 9.159 3.789 2.451 2.442 3.799 5.693 3.799 9.162s-1.348 6.721-3.799 9.163a12.822 12.822 0 0 1-9.159 3.806zM34.073 69.945H2v8.922h41.022a29.654 29.654 0 0 1-8.949-8.922zM29.4 54.107c0-1.459.143-2.881.35-4.288H2v8.936h27.804c-.241-1.517-.404-3.064-.404-4.648zM42.426 29.703H2v8.931h31.846c2.21-3.542 5.12-6.602 8.58-8.931z"/></svg></svg>