<?xml version="1.0" encoding="utf-8"?><!DOCTYPE svg PUBLIC "-//W3C//DTD SVG 1.1//EN" "http://www.w3.org/Graphics/SVG/1.1/DTD/svg11.dtd"><svg width="3020" height="3050" viewBox="0 0 3020 3050" xmlns="http://www.w3.org/2000/svg" xmlns:xlink="http://www.w3.org/1999/xlink"><svg width="100" height="100" viewBox="0.5 20.5 100 100" id="calculator" xmlns="http://www.w3.org/2000/svg"><path fill="#EF603F" d="M12.101 32.102c0-5.279 4.319-9.602 9.6-9.602h57.606c5.3 0 9.593 4.293 9.593 9.602v76.797c0 5.309-4.298 9.602-9.593 9.602H21.7c-5.3 0-9.6-4.293-9.6-9.602V32.102zm14.4 4.796V46.5h48v-9.602h-48zm0 19.204V65.7h9.6v-9.598h-9.6zm19.199 0V65.7h9.602v-9.598H45.7zm19.199 0V65.7h9.602v-9.598h-9.602zM26.501 75.301v9.598h9.6v-9.598h-9.6zm19.199 0v9.598h9.602v-9.598H45.7zm19.199 0v28.801h9.602V75.301h-9.602zM26.501 94.5v9.602h9.6V94.5h-9.6zm19.199 0v9.602h9.602V94.5H45.7z"/></svg><svg width="100" height="100" viewBox="0 0 100 100" id="calculator-disabled" x="100" y="100" xmlns="http://www.w3.org/2000/svg"><path fill="#C1C1C1" d="M11.601 11.602c0-5.279 4.319-9.602 9.6-9.602h57.605c5.301 0 9.594 4.293 9.594 9.602v76.797c0 5.309-4.299 9.602-9.594 9.602H21.2a9.599 9.599 0 0 1-9.601-9.602l.002-76.797zm14.4 4.795V26h48v-9.602h-48zm0 19.204V45.2h9.6v-9.599h-9.6zm19.199 0V45.2h9.602v-9.599H45.2zm19.198 0V45.2h9.603v-9.599h-9.603zm-38.397 19.2v9.598h9.6v-9.598h-9.6zm19.199 0v9.598h9.602v-9.598H45.2zm19.198 0v28.801h9.603V54.801h-9.603zM26.001 74v9.602h9.6V74h-9.6zM45.2 74v9.602h9.602V74H45.2z"/></svg><svg width="100" height="100" viewBox="0.5 20.5 100 100" id="calculator-hover" x="200" y="200" xmlns="http://www.w3.org/2000/svg"><path fill="#D84835" d="M12.101 32.102c0-5.279 4.319-9.602 9.6-9.602h57.606c5.3 0 9.593 4.293 9.593 9.602v76.797c0 5.309-4.298 9.602-9.593 9.602H21.7c-5.3 0-9.6-4.293-9.6-9.602V32.102zm14.4 4.796V46.5h48v-9.602h-48zm0 19.204V65.7h9.6v-9.598h-9.6zm19.199 0V65.7h9.602v-9.598H45.7zm19.199 0V65.7h9.602v-9.598h-9.602zM26.501 75.301v9.598h9.6v-9.598h-9.6zm19.199 0v9.598h9.602v-9.598H45.7zm19.199 0v28.801h9.602V75.301h-9.602zM26.501 94.5v9.602h9.6V94.5h-9.6zm19.199 0v9.602h9.602V94.5H45.7z"/></svg><svg width="20" height="50" viewBox="0 0 20 50" id="calendar" x="300" y="300" xmlns="http://www.w3.org/2000/svg"><title>calendar</title><path fill="#606060" d="M-11.039 18.109h-1.75v1.75h1.75v-1.75zm1.75 0h-.875v2.625h-3.5v-2.625h-3.5v2.625h-3.5v-2.625h-.875a.875.875 0 0 0-.875.875v12.25c0 .482.391.875.875.875h12.25a.876.876 0 0 0 .875-.875v-12.25a.875.875 0 0 0-.875-.875zm-.875 12.25h-10.5v-7.875h10.5v7.875zm-7.875-12.25h-1.75v1.75h1.75v-1.75zm3.5 6.125h-1.75v1.75h1.75v-1.75zm2.625 0h-1.75v1.75h1.75v-1.75zm-5.25 2.625h-1.75v1.75h1.75v-1.75zm0-2.625h-1.75v1.75h1.75v-1.75zm2.625 2.625h-1.75v1.75h1.75v-1.75zm2.625 0h-1.75v1.75h1.75v-1.75z"/><path fill="#3A3A3A" d="M12.658 19.604c.133 0 .244.111.244.244v2.136H1.099v-2.136c0-.133.111-.244.243-.244h11.316zM1.342 18.5C.602 18.5 0 19.104 0 19.849v10.303c0 .742.602 1.348 1.342 1.348h11.316c.74 0 1.342-.604 1.342-1.349V19.849c0-.742-.602-1.348-1.342-1.348L1.342 18.5zM1.1 23.088h11.802v7.063a.246.246 0 0 1-.242.244H1.344a.246.246 0 0 1-.243-.244L1.1 23.088z"/><path fill="#606060" d="M-30.295 19H-41.73c-.7 0-1.27.581-1.27 1.295v10.412c0 .713.581 1.293 1.295 1.293h11.436c.7 0 1.27-.58 1.27-1.293V20.295A1.298 1.298 0 0 0-30.295 19zm-.068 3.67h-11.273v-2.294h11.273v2.294zm-11.273 1.383h11.273v6.573h-11.273v-6.573z"/><circle fill="#606060" cx="-36" cy="26.026" r=".875"/><circle fill="#606060" cx="-33.375" cy="26.026" r=".875"/><circle fill="#606060" cx="-38.625" cy="28.65" r=".875"/><circle fill="#606060" cx="-38.625" cy="26.026" r=".875"/><circle fill="#606060" cx="-36" cy="28.65" r=".875"/><circle fill="#606060" cx="-33.375" cy="28.65" r=".875"/><path fill="#0B486B" d="M-32.25 51.666h-14v-12.25h1.75v10.5H-34v-10.5h1.75v12.25zm-11.375-8.75h1.75v1.75h-1.75v-1.75zm3.5 0h1.75v1.75h-1.75v-1.75zm3.5 0h1.75v1.75h-1.75v-1.75zm-7 3.5h1.75v1.75h-1.75v-1.75zm3.5 0h1.75v1.75h-1.75v-1.75zm3.5 1.75v-1.75h1.75l-1.75 1.75zm-6.125-7.875v-1.75a.876.876 0 0 1 1.75 0v1.75a.876.876 0 0 1-1.75 0zm5.25 0v-1.75a.876.876 0 0 1 1.75 0v1.75a.876.876 0 0 1-1.75 0z"/><path fill="#212121" d="M-10.241 66.02c0 .166-.146.299-.324.299-.178 0-.323-.133-.323-.299v-1.602h-2.6v1.602c0 .166-.145.299-.324.299-.178 0-.323-.133-.323-.299v-1.602h-2.602v1.602c0 .166-.145.299-.323.299-.178 0-.323-.133-.323-.299v-1.602h-1.288c-.178 0-.323-.133-.323-.295 0-.166.145-.299.323-.299h1.288V61.72h-1.288c-.178 0-.323-.131-.323-.299 0-.167.145-.299.323-.299h1.288v-1.6c0-.166.145-.297.323-.297.178 0 .323.131.323.297v1.6h2.602v-1.6c0-.166.145-.297.323-.297.179 0 .324.131.324.297v1.6h2.6v-1.6c0-.166.145-.297.323-.297.18 0 .324.131.324.297v1.6h1.285c.18 0 .324.132.324.299 0 .168-.145.299-.324.299h-1.285v2.104h1.285c.18 0 .324.133.324.299 0 .162-.145.295-.324.295h-1.285v1.602zm-9.495-8.282H-7.89v-.784c0-.294-.133-.567-.345-.765l-.002-.006a1.263 1.263 0 0 0-.832-.313h-.291v.568c0 .275-.24.5-.538.5s-.538-.225-.538-.5v-.568h-6.755v.568c0 .275-.242.5-.54.5-.296 0-.538-.225-.538-.5v-.568h-.29c-.323 0-.619.123-.832.318h-.001a1.038 1.038 0 0 0-.346.765l.002.785zm11.846.991h-11.847v7.002c0 .295.133.568.347.766l-.001.006h.001c.213.189.507.316.832.316h9.49c.322 0 .617-.127.832-.322h.001c.214-.195.347-.467.347-.766v-7.002h-.002zm-10.669-3.853h.291v-.573c0-.273.242-.494.537-.494.298 0 .54.221.54.494v.573h6.755v-.573c0-.273.24-.494.538-.494.297 0 .538.221.538.494v.573h.291c.618 0 1.182.235 1.591.606l.003.006.009.01c.402.373.652.893.652 1.456v8.779c0 .568-.255 1.086-.664 1.465h.001a2.342 2.342 0 0 1-1.592.611h-9.49a2.343 2.343 0 0 1-1.591-.611l-.001.004a1.992 1.992 0 0 1-.663-1.471v-8.778c0-.568.253-1.087.661-1.465h.001l-.001-.006c.408-.37.974-.606 1.594-.606zm1.822 6.847v2.102h2.602v-2.102h-2.602zm3.249 0v2.102h2.6v-2.102h-2.6z"/><g fill="#3A3A3A"><circle cx="7.001" cy="25.43" r=".875"/><circle cx="9.625" cy="25.43" r=".875"/><circle cx="4.376" cy="28.055" r=".875"/><circle cx="4.376" cy="25.43" r=".875"/><circle cx="7.001" cy="28.055" r=".875"/><circle cx="9.625" cy="28.055" r=".875"/></g><g fill="#3A3A3A"><path d="M-13.217 37.785h-1.42v1.104h1.42c.132 0 .243.111.243.244v2.137h-11.803v-2.137c0-.133.111-.244.243-.244h1.433v.975c0 .304.247.552.549.552.303 0 .55-.248.55-.552V37.01a.551.551 0 0 0-.55-.552.551.551 0 0 0-.549.552v.775h-1.433c-.74 0-1.342.604-1.342 1.349v9.977c0 .742.602 1.349 1.342 1.349h11.316c.74 0 1.342-.604 1.342-1.349v-9.977a1.346 1.346 0 0 0-1.341-1.349zm-11.559 4.588h11.803v6.736a.246.246 0 0 1-.243.244h-11.316a.246.246 0 0 1-.243-.244l-.001-6.736z"/><path d="M-16.45 39.863c0 .304.247.552.549.552.303 0 .55-.248.55-.552v-2.854a.55.55 0 0 0-1.099 0v.775h-1.369v1.104h1.369v.975zM-19.791 39.863c0 .304.247.552.549.552a.552.552 0 0 0 .549-.552v-2.854a.551.551 0 0 0-.549-.552.551.551 0 0 0-.549.552v.775h-1.369v1.104h1.369v.975z"/></g><path fill="#3A3A3A" d="M-23.625 43.964h2.5v.802h-2.5zM-20.125 43.964h2.5v.802h-2.5zM-16.625 43.964h2.5v.802h-2.5zM-23.625 45.464h2.5v.802h-2.5zM-20.125 45.464h2.5v.802h-2.5zM-16.625 45.464h2.5v.802h-2.5zM-23.625 46.964h2.5v.802h-2.5zM-20.125 46.964h2.5v.802h-2.5zM-16.625 46.964h2.5v.802h-2.5z"/></svg><svg width="100" height="100" viewBox="0 0 100 100" id="capture" x="320" y="350" xmlns="http://www.w3.org/2000/svg"><path fill="#2975A8" d="M79.766 65.769c-1.859-1.146-4.421-.496-5.526 1.323l-9.614 20.19H21.334l-9.093-24.667h5.83c2.219 0 4.02-1.815 4.02-4.036a4.03 4.03 0 0 0-4.02-4.02H6.017c-1.365 0-2.63.688-3.365 1.845a3.967 3.967 0 0 0-.294 3.827l12.711 32.734a4.03 4.03 0 0 0 3.664 2.363h48.142c1.387 0 2.699-.74 3.418-1.916l10.785-22.107a3.971 3.971 0 0 0 .474-3.043c-.234-1.058-.88-1.921-1.786-2.493z"/><path fill="#2975A8" d="M97.207 31.435L71.24 5.467a2.734 2.734 0 0 0-3.858 0L66.038 6.8a2.755 2.755 0 0 0 0 3.869l2.802 2.796c-.912 1.063-1.827 2.021-2.845 2.516-2.087 1.026-4.513 1.506-7.093 2.005-2.229.438-4.09.813-5.963 1.427-5.259 1.683-8.682 5.636-11.69 9.104l-1.492 1.687c-.749.823-1.623 1.636-2.529 2.459-3.145 2.884-7.06 6.484-6.926 12.072.073 2.688.026 5.407-.005 8.11v2.697c.18 1.609.037 3.641-.096 5.604-.375 5.499.362 19.671 9.721 17.702 4.604-.967 4.428-8.62 4.915-12.123.954-6.932 1.823-14.656 5.013-20.969.633-1.262 2.042-2.246 3.762-2.63 1.475-.338 3.048-.109 3.871.525.875.677.363 1.938.307 2.084-.391.891-.817 1.812-1.334 2.9-2.473 5.246-5.558 11.786-2.314 17.286 1.109 1.857 3.389 3.844 6.775 3.844 5.879-.115 9.211-5.338 11.659-9.139l.229-.365c.678-1.018 1.301-1.984 1.904-2.71 1.288-1.474 2.668-2.849 4.211-4.369 2.791-2.765 5.676-5.61 7.903-9.261.804-1.307 1.313-3.438 2.438-8.718l.147-.667c.019-.135.051-.281.082-.406l2.515 2.521a2.737 2.737 0 0 0 3.86 0l1.332-1.34c1.069-1.075 1.069-2.814.01-3.876z"/></svg><svg width="100" height="100" viewBox="0 0 100 100" id="capture-disabled" x="420" y="450" xmlns="http://www.w3.org/2000/svg"><path fill="#C1C1C1" d="M79.766 65.769c-1.859-1.146-4.421-.496-5.526 1.323l-9.614 20.19H21.334l-9.093-24.667h5.83c2.219 0 4.02-1.815 4.02-4.036a4.03 4.03 0 0 0-4.02-4.02H6.017c-1.365 0-2.63.688-3.365 1.845a3.967 3.967 0 0 0-.294 3.827l12.711 32.734a4.03 4.03 0 0 0 3.664 2.363h48.142c1.387 0 2.699-.74 3.418-1.916l10.785-22.107a3.971 3.971 0 0 0 .474-3.043c-.234-1.058-.88-1.921-1.786-2.493z"/><path fill="#C1C1C1" d="M97.207 31.435L71.24 5.467a2.734 2.734 0 0 0-3.858 0L66.038 6.8a2.755 2.755 0 0 0 0 3.869l2.802 2.796c-.912 1.063-1.827 2.021-2.845 2.516-2.087 1.026-4.513 1.506-7.093 2.005-2.229.438-4.09.813-5.963 1.427-5.259 1.683-8.682 5.636-11.69 9.104l-1.492 1.687c-.749.823-1.623 1.636-2.529 2.459-3.145 2.884-7.06 6.484-6.926 12.072.073 2.688.026 5.407-.005 8.11v2.697c.18 1.609.037 3.641-.096 5.604-.375 5.499.362 19.671 9.721 17.702 4.604-.967 4.428-8.62 4.915-12.123.954-6.932 1.823-14.656 5.013-20.969.633-1.262 2.042-2.246 3.762-2.63 1.475-.338 3.048-.109 3.871.525.875.677.363 1.938.307 2.084-.391.891-.817 1.812-1.334 2.9-2.473 5.246-5.558 11.786-2.314 17.286 1.109 1.857 3.389 3.844 6.775 3.844 5.879-.115 9.211-5.338 11.659-9.139l.229-.365c.678-1.018 1.301-1.984 1.904-2.71 1.288-1.474 2.668-2.849 4.211-4.369 2.791-2.765 5.676-5.61 7.903-9.261.804-1.307 1.313-3.438 2.438-8.718l.147-.667c.019-.135.051-.281.082-.406l2.515 2.521a2.737 2.737 0 0 0 3.86 0l1.332-1.34c1.069-1.075 1.069-2.814.01-3.876z"/></svg><svg width="100" height="100" viewBox="0 0 100 100" id="capture-hover" x="520" y="550" xmlns="http://www.w3.org/2000/svg"><path fill="#236490" d="M79.766 65.769c-1.859-1.146-4.421-.496-5.526 1.323l-9.614 20.19H21.334l-9.093-24.667h5.83c2.219 0 4.02-1.815 4.02-4.036a4.03 4.03 0 0 0-4.02-4.02H6.017c-1.365 0-2.63.688-3.365 1.845a3.967 3.967 0 0 0-.294 3.827l12.711 32.734a4.03 4.03 0 0 0 3.664 2.363h48.142c1.387 0 2.699-.74 3.418-1.916l10.785-22.107a3.971 3.971 0 0 0 .474-3.043c-.234-1.058-.88-1.921-1.786-2.493z"/><path fill="#236490" d="M97.207 31.435L71.24 5.467a2.734 2.734 0 0 0-3.858 0L66.038 6.8a2.755 2.755 0 0 0 0 3.869l2.802 2.796c-.912 1.063-1.827 2.021-2.845 2.516-2.087 1.026-4.513 1.506-7.093 2.005-2.229.438-4.09.813-5.963 1.427-5.259 1.683-8.682 5.636-11.69 9.104l-1.492 1.687c-.749.823-1.623 1.636-2.529 2.459-3.145 2.884-7.06 6.484-6.926 12.072.073 2.688.026 5.407-.005 8.11v2.697c.18 1.609.037 3.641-.096 5.604-.375 5.499.362 19.671 9.721 17.702 4.604-.967 4.428-8.62 4.915-12.123.954-6.932 1.823-14.656 5.013-20.969.633-1.262 2.042-2.246 3.762-2.63 1.475-.338 3.048-.109 3.871.525.875.677.363 1.938.307 2.084-.391.891-.817 1.812-1.334 2.9-2.473 5.246-5.558 11.786-2.314 17.286 1.109 1.857 3.389 3.844 6.775 3.844 5.879-.115 9.211-5.338 11.659-9.139l.229-.365c.678-1.018 1.301-1.984 1.904-2.71 1.288-1.474 2.668-2.849 4.211-4.369 2.791-2.765 5.676-5.61 7.903-9.261.804-1.307 1.313-3.438 2.438-8.718l.147-.667c.019-.135.051-.281.082-.406l2.515 2.521a2.737 2.737 0 0 0 3.86 0l1.332-1.34c1.069-1.075 1.069-2.814.01-3.876z"/></svg><svg width="100" height="100" viewBox="0 0 100 100" id="change" x="620" y="650" xmlns="http://www.w3.org/2000/svg"><path fill="#62B65C" d="M65.787 62.783H21.589l13.58-13.465 1.023-1.002L28.881 41 2.984 66.711 2 67.707l26.104 26.274L29.105 95l7.311-7.305-14.364-14.486h43.735zM71.896 6.019l-1-1.019-7.311 7.304 14.363 14.487H34.213v10.425h44.198L64.832 50.682l-1.024 1.002L71.119 59l25.897-25.711.984-.995z"/></svg><svg width="100" height="100" viewBox="0 0 100 100" id="change-disabled" x="720" y="750" xmlns="http://www.w3.org/2000/svg"><path fill="#C1C1C1" d="M65.787 62.783H21.589l13.58-13.465 1.023-1.002L28.881 41 2.984 66.711 2 67.707 28.104 93.98 29.105 95l7.311-7.305-14.364-14.486h43.735zM71.896 6.019l-1-1.019-7.311 7.304 14.363 14.487H34.213v10.425h44.198L64.832 50.682l-1.023 1.002L71.119 59l25.897-25.711.984-.995z"/></svg><svg width="100" height="100" viewBox="0 0 100 100" id="change-hover" x="820" y="850" xmlns="http://www.w3.org/2000/svg"><path fill="#090" d="M65.787 62.783H21.589l13.58-13.465 1.023-1.002L28.881 41 2.984 66.711 2 67.707l26.104 26.274L29.105 95l7.311-7.305-14.364-14.486h43.735zM71.896 6.019l-1-1.019-7.311 7.304 14.363 14.487H34.213v10.425h44.198L64.832 50.682l-1.024 1.002L71.119 59l25.897-25.711.984-.995z"/></svg><svg width="100" height="100" viewBox="0 0 100 100" id="check" x="920" y="950" xmlns="http://www.w3.org/2000/svg"><path fill="#3280B7" d="M98 27.579c0 1.653-.586 3.06-1.738 4.208L42.998 85.054c-1.157 1.155-2.561 1.735-4.212 1.735-1.649 0-3.046-.58-4.213-1.735L3.735 54.21C2.574 53.056 2 51.65 2 50.003c0-1.647.574-3.052 1.735-4.213l8.422-8.425c1.151-1.148 2.558-1.735 4.208-1.735 1.649 0 3.051.585 4.209 1.735l18.211 18.282 40.629-40.694c1.161-1.162 2.561-1.741 4.207-1.741 1.653 0 3.059.58 4.213 1.741l8.422 8.419c1.16 1.149 1.734 2.561 1.734 4.206l.01.001z"/></svg><svg width="100" height="100" viewBox="0 0 100 100" id="check-disabled" x="1020" y="1050" xmlns="http://www.w3.org/2000/svg"><path fill="#C1C1C1" d="M98 27.579c0 1.653-.586 3.06-1.738 4.208L42.998 85.054c-1.157 1.155-2.561 1.735-4.212 1.735-1.649 0-3.046-.58-4.213-1.735L3.735 54.21C2.574 53.056 2 51.65 2 50.003c0-1.647.574-3.052 1.735-4.213l8.422-8.425c1.151-1.148 2.558-1.735 4.208-1.735 1.649 0 3.051.585 4.209 1.735l18.211 18.282 40.629-40.694c1.161-1.162 2.561-1.741 4.207-1.741 1.653 0 3.059.58 4.213 1.741l8.422 8.419c1.16 1.149 1.734 2.561 1.734 4.206l.01.001z"/></svg><svg width="100" height="100" viewBox="0 0 100 100" id="check-hover" x="1120" y="1150" xmlns="http://www.w3.org/2000/svg"><path fill="#0F5D8A" d="M98 27.579c0 1.653-.586 3.06-1.738 4.208L42.998 85.054c-1.157 1.155-2.561 1.735-4.212 1.735-1.649 0-3.046-.58-4.213-1.735L3.735 54.21C2.574 53.056 2 51.65 2 50.003c0-1.647.574-3.052 1.735-4.213l8.422-8.425c1.151-1.148 2.558-1.735 4.208-1.735 1.649 0 3.051.585 4.209 1.735l18.211 18.282 40.629-40.694c1.161-1.162 2.561-1.741 4.207-1.741 1.653 0 3.059.58 4.213 1.741l8.422 8.419c1.16 1.149 1.734 2.561 1.734 4.206l.01.001z"/></svg><svg width="100" height="100" viewBox="0 0 100 100" id="circle-down" x="1220" y="1250" xmlns="http://www.w3.org/2000/svg"><path fill="#34495E" d="M50 98c26.51 0 48-21.49 48-48S76.51 2 50 2 2 23.49 2 50s21.49 48 48 48zm0-87c21.542 0 39 17.46 39 39 0 21.542-17.457 39.001-39 39.001-21.539 0-39-17.458-39-39.001 0-21.539 17.461-39 39-39z"/><path fill="#34495E" d="M74 48.633c0-.857-.35-1.681-.979-2.313l-2.387-2.388a3.199 3.199 0 0 0-2.312-.978c-.874 0-1.715.352-2.306.964L55.334 54.566V30.319c0-1.942-1.657-2.947-3.295-2.947h-4.065c-1.644 0-3.304 1.011-3.304 2.947v24.247L34.005 43.933a3.211 3.211 0 0 0-2.316-.985c-.871 0-1.725.359-2.347.979l-2.384 2.391a3.331 3.331 0 0 0-.955 2.316c0 .864.35 1.721.955 2.356l20.691 20.693a3.376 3.376 0 0 0 2.354.952c.89 0 1.731-.348 2.306-.941L73.024 50.98A3.362 3.362 0 0 0 74 48.633z"/></svg><svg width="100" height="100" viewBox="0 0 100 100" id="circle-down-disabled" x="1320" y="1350" xmlns="http://www.w3.org/2000/svg"><path fill="#C1C1C1" d="M50 98c26.51 0 48-21.49 48-48S76.51 2 50 2 2 23.49 2 50s21.49 48 48 48zm0-87c21.542 0 39 17.46 39 39 0 21.542-17.457 39.001-39 39.001-21.539 0-39-17.458-39-39.001 0-21.539 17.461-39 39-39z"/><path fill="#C1C1C1" d="M74 48.633c0-.857-.35-1.681-.979-2.313l-2.387-2.388a3.199 3.199 0 0 0-2.312-.978c-.874 0-1.715.352-2.306.964L55.334 54.566V30.319c0-1.942-1.657-2.947-3.295-2.947h-4.065c-1.644 0-3.304 1.011-3.304 2.947v24.247L34.005 43.933a3.211 3.211 0 0 0-2.316-.985c-.871 0-1.725.359-2.347.979l-2.384 2.391a3.331 3.331 0 0 0-.955 2.316c0 .864.35 1.721.955 2.356l20.691 20.693a3.376 3.376 0 0 0 2.354.952c.89 0 1.731-.348 2.306-.941L73.024 50.98A3.362 3.362 0 0 0 74 48.633z"/></svg><svg width="100" height="100" viewBox="0 0 100 100" id="circle-down-hover" x="1420" y="1450" xmlns="http://www.w3.org/2000/svg"><path fill="#253544" d="M50 98c26.51 0 48-21.49 48-48S76.51 2 50 2 2 23.49 2 50s21.49 48 48 48zm0-87c21.542 0 39 17.46 39 39 0 21.542-17.457 39.001-39 39.001-21.539 0-39-17.458-39-39.001 0-21.539 17.461-39 39-39z"/><path fill="#253544" d="M74 48.633c0-.857-.35-1.681-.979-2.313l-2.387-2.388a3.199 3.199 0 0 0-2.312-.978c-.874 0-1.715.352-2.306.964L55.334 54.566V30.319c0-1.942-1.657-2.947-3.295-2.947h-4.065c-1.644 0-3.304 1.011-3.304 2.947v24.247L34.005 43.933a3.211 3.211 0 0 0-2.316-.985c-.871 0-1.725.359-2.347.979l-2.384 2.391a3.331 3.331 0 0 0-.955 2.316c0 .864.35 1.721.955 2.356l20.691 20.693a3.376 3.376 0 0 0 2.354.952c.89 0 1.731-.348 2.306-.941L73.024 50.98A3.362 3.362 0 0 0 74 48.633z"/></svg><svg width="100" height="100" viewBox="0 0 100 100" id="circle-up" x="1520" y="1550" xmlns="http://www.w3.org/2000/svg"><path fill="#34495E" d="M50 2C23.491 2 2 23.49 2 50s21.491 48 48 48c26.51 0 48-21.49 48-48S76.51 2 50 2zm0 87c-21.542 0-39-17.46-39-39 0-21.542 17.458-39 39-39 21.539 0 39 17.458 39 39 0 21.539-17.461 39-39 39z"/><path fill="#34495E" d="M26 51.365c0 .857.35 1.682.978 2.314l2.388 2.387c.601.632 1.44.979 2.312.979.874 0 1.714-.351 2.304-.964l10.683-10.647v24.248c0 1.941 1.658 2.947 3.296 2.947h4.064c1.645 0 3.305-1.012 3.305-2.947V45.433l10.664 10.634a3.204 3.204 0 0 0 2.318.985c.868 0 1.723-.358 2.347-.979l2.384-2.39a3.334 3.334 0 0 0 .954-2.318c0-.861-.351-1.719-.954-2.355L52.35 28.317a3.364 3.364 0 0 0-2.354-.952c-.891 0-1.731.345-2.307.94L26.975 49.02A3.373 3.373 0 0 0 26 51.365z"/></svg><svg width="100" height="100" viewBox="0 0 100 100" id="circle-up-disabled" x="1620" y="1650" xmlns="http://www.w3.org/2000/svg"><path fill="#C1C1C1" d="M50 2C23.491 2 2 23.49 2 50s21.491 48 48 48c26.51 0 48-21.49 48-48S76.51 2 50 2zm0 87c-21.542 0-39-17.46-39-39 0-21.542 17.458-39 39-39 21.539 0 39 17.458 39 39 0 21.539-17.461 39-39 39z"/><path fill="#C1C1C1" d="M26 51.365c0 .857.35 1.682.978 2.314l2.388 2.387c.601.632 1.44.979 2.312.979.874 0 1.714-.351 2.304-.964l10.683-10.647v24.248c0 1.941 1.658 2.947 3.296 2.947h4.064c1.645 0 3.305-1.012 3.305-2.947V45.433l10.664 10.634a3.204 3.204 0 0 0 2.318.985c.868 0 1.723-.358 2.347-.979l2.384-2.39a3.334 3.334 0 0 0 .954-2.318c0-.861-.351-1.719-.954-2.355L52.35 28.317a3.364 3.364 0 0 0-2.354-.952c-.891 0-1.731.345-2.307.94L26.975 49.02A3.373 3.373 0 0 0 26 51.365z"/></svg><svg width="100" height="100" viewBox="0 0 100 100" id="circle-up-hover" x="1720" y="1750" xmlns="http://www.w3.org/2000/svg"><path fill="#253544" d="M50 2C23.491 2 2 23.49 2 50s21.491 48 48 48c26.51 0 48-21.49 48-48S76.51 2 50 2zm0 87c-21.542 0-39-17.46-39-39 0-21.542 17.458-39 39-39 21.539 0 39 17.458 39 39 0 21.539-17.461 39-39 39z"/><path fill="#253544" d="M26 51.365c0 .857.35 1.682.978 2.314l2.388 2.387c.601.632 1.44.979 2.312.979.874 0 1.714-.351 2.304-.964l10.683-10.647v24.248c0 1.941 1.658 2.947 3.296 2.947h4.064c1.645 0 3.305-1.012 3.305-2.947V45.433l10.664 10.634a3.204 3.204 0 0 0 2.318.985c.868 0 1.723-.358 2.347-.979l2.384-2.39a3.334 3.334 0 0 0 .954-2.318c0-.861-.351-1.719-.954-2.355L52.35 28.317a3.364 3.364 0 0 0-2.354-.952c-.891 0-1.731.345-2.307.94L26.975 49.02A3.373 3.373 0 0 0 26 51.365z"/></svg><svg width="100" height="100" viewBox="0 0 100 100" id="close-window-blue" x="1820" y="1850" xmlns="http://www.w3.org/2000/svg"><path fill="#327CCB" d="M51.005 44l11.906 11.91a1.977 1.977 0 0 1 0 2.811l-4.197 4.199a1.983 1.983 0 0 1-2.805 0L43.992 51.006 32.08 62.92a1.985 1.985 0 0 1-2.807 0l-4.192-4.199a1.983 1.983 0 0 1 0-2.811L36.994 44 25.083 32.083a1.977 1.977 0 0 1 0-2.806l4.201-4.2a1.971 1.971 0 0 1 2.797 0l11.91 11.917 11.918-11.917a1.98 1.98 0 0 1 2.805 0l4.197 4.204a1.97 1.97 0 0 1 0 2.805L51.005 44z"/><path fill="#327CCB" d="M85.589 5.519c-.016-.026-.016-.064-.029-.095-.09-.214-.216-.404-.332-.603-.063-.111-.115-.243-.189-.345-.091-.145-.217-.267-.329-.396-.115-.145-.225-.306-.35-.434-.164-.161-.35-.295-.53-.436-.102-.081-.196-.175-.307-.248-.163-.113-.357-.197-.54-.294-.138-.072-.266-.165-.413-.224A5.451 5.451 0 0 0 80.398 2H7.596c-.186 0-.365.037-.55.058-.174.018-.35.018-.517.047a5.537 5.537 0 0 0-.97.291.943.943 0 0 1-.039.012c-.027.015-.065.022-.095.036-.215.087-.405.212-.605.328-.11.063-.24.109-.343.186-.025.019-.044.037-.068.058-.122.084-.233.19-.351.289-.138.111-.287.21-.411.341-.161.16-.295.344-.438.521-.084.108-.175.2-.251.306-.114.168-.198.357-.293.539-.068.138-.165.263-.221.412A5.51 5.51 0 0 0 2 7.6v72.804c0 .385.037.766.114 1.127.142.684.425 1.336.794 1.913.021.027.032.06.05.081A5.604 5.604 0 0 0 7.596 86h72.806C83.479 86 86 83.475 86 80.401V7.6c0-.737-.149-1.435-.411-2.081zM74.798 74.8H13.2V13.2h61.598v61.6z"/></svg><svg width="100" height="100" viewBox="0 0 100 100" id="close-window-blue-hover" x="1920" y="1950" xmlns="http://www.w3.org/2000/svg"><path fill="#0B486B" d="M51.005 44l11.906 11.91a1.977 1.977 0 0 1 0 2.811l-4.197 4.199a1.983 1.983 0 0 1-2.805 0L43.992 51.006 32.08 62.92a1.985 1.985 0 0 1-2.807 0l-4.192-4.199a1.983 1.983 0 0 1 0-2.811L36.994 44 25.083 32.083a1.977 1.977 0 0 1 0-2.806l4.201-4.2a1.971 1.971 0 0 1 2.797 0l11.91 11.917 11.918-11.917a1.98 1.98 0 0 1 2.805 0l4.197 4.204a1.97 1.97 0 0 1 0 2.805L51.005 44z"/><path fill="#0B486B" d="M85.589 5.519c-.016-.026-.016-.064-.029-.095-.09-.214-.216-.404-.332-.603-.063-.111-.115-.243-.189-.345-.091-.145-.217-.267-.329-.396-.115-.145-.225-.306-.35-.434-.164-.161-.35-.295-.53-.436-.102-.081-.196-.175-.307-.248-.163-.113-.357-.197-.54-.294-.138-.072-.266-.165-.413-.224A5.451 5.451 0 0 0 80.398 2H7.596c-.186 0-.365.037-.55.058-.174.018-.35.018-.517.047a5.537 5.537 0 0 0-.97.291.943.943 0 0 1-.039.012c-.027.015-.065.022-.095.036-.215.087-.405.212-.605.328-.11.063-.24.109-.343.186-.025.019-.044.037-.068.058-.122.084-.233.19-.351.289-.138.111-.287.21-.411.341-.161.16-.295.344-.438.521-.084.108-.175.2-.251.306-.114.168-.198.357-.293.539-.068.138-.165.263-.221.412A5.51 5.51 0 0 0 2 7.6v72.804c0 .385.037.766.114 1.127.142.684.425 1.336.794 1.913.021.027.032.06.05.081A5.604 5.604 0 0 0 7.596 86h72.806C83.479 86 86 83.475 86 80.401V7.6c0-.737-.149-1.435-.411-2.081zM74.798 74.8H13.2V13.2h61.598v61.6z"/></svg><svg width="100" height="100" viewBox="0 0 100 100" id="close-window-green" x="2020" y="2050" xmlns="http://www.w3.org/2000/svg"><path fill="#76A328" d="M51.005 44l11.906 11.91a1.977 1.977 0 0 1 0 2.811l-4.197 4.199a1.983 1.983 0 0 1-2.805 0L43.992 51.006 32.08 62.92a1.985 1.985 0 0 1-2.807 0l-4.192-4.199a1.983 1.983 0 0 1 0-2.811L36.994 44 25.083 32.083a1.977 1.977 0 0 1 0-2.806l4.201-4.2a1.971 1.971 0 0 1 2.797 0l11.91 11.917 11.918-11.917a1.98 1.98 0 0 1 2.805 0l4.197 4.204a1.97 1.97 0 0 1 0 2.805L51.005 44z"/><path fill="#76A328" d="M85.589 5.519c-.016-.026-.016-.064-.029-.095-.09-.214-.216-.404-.332-.603-.063-.111-.115-.243-.189-.345-.091-.145-.217-.267-.329-.396-.115-.145-.225-.306-.35-.434-.164-.161-.35-.295-.53-.436-.102-.081-.196-.175-.307-.248-.163-.113-.357-.197-.54-.294-.138-.072-.266-.165-.413-.224A5.451 5.451 0 0 0 80.398 2H7.596c-.186 0-.365.037-.55.058-.174.018-.35.018-.517.047a5.537 5.537 0 0 0-.97.291.943.943 0 0 1-.039.012c-.027.015-.065.022-.095.036-.215.087-.405.212-.605.328-.11.063-.24.109-.343.186-.025.019-.044.037-.068.058-.122.084-.233.19-.351.289-.138.111-.287.21-.411.341-.161.16-.295.344-.438.521-.084.108-.175.2-.251.306-.114.168-.198.357-.293.539-.068.138-.165.263-.221.412A5.51 5.51 0 0 0 2 7.6v72.804c0 .385.037.766.114 1.127.142.684.425 1.336.794 1.913.021.027.032.06.05.081A5.604 5.604 0 0 0 7.596 86h72.806C83.479 86 86 83.475 86 80.401V7.6c0-.737-.149-1.435-.411-2.081zM74.798 74.8H13.2V13.2h61.598v61.6z"/></svg><svg width="100" height="100" viewBox="0 0 100 100" id="close-window-green-hover" x="2120" y="2150" xmlns="http://www.w3.org/2000/svg"><path fill="#244805" d="M51.005 44l11.906 11.91a1.977 1.977 0 0 1 0 2.811l-4.197 4.199a1.983 1.983 0 0 1-2.805 0L43.992 51.006 32.08 62.92a1.985 1.985 0 0 1-2.807 0l-4.192-4.199a1.983 1.983 0 0 1 0-2.811L36.994 44 25.083 32.083a1.977 1.977 0 0 1 0-2.806l4.201-4.2a1.971 1.971 0 0 1 2.797 0l11.91 11.917 11.918-11.917a1.98 1.98 0 0 1 2.805 0l4.197 4.204a1.97 1.97 0 0 1 0 2.805L51.005 44z"/><path fill="#244805" d="M85.589 5.519c-.016-.026-.016-.064-.029-.095-.09-.214-.216-.404-.332-.603-.063-.111-.115-.243-.189-.345-.091-.145-.217-.267-.329-.396-.115-.145-.225-.306-.35-.434-.164-.161-.35-.295-.53-.436-.102-.081-.196-.175-.307-.248-.163-.113-.357-.197-.54-.294-.138-.072-.266-.165-.413-.224A5.451 5.451 0 0 0 80.398 2H7.596c-.186 0-.365.037-.55.058-.174.018-.35.018-.517.047a5.537 5.537 0 0 0-.97.291.943.943 0 0 1-.039.012c-.027.015-.065.022-.095.036-.215.087-.405.212-.605.328-.11.063-.24.109-.343.186-.025.019-.044.037-.068.058-.122.084-.233.19-.351.289-.138.111-.287.21-.411.341-.161.16-.295.344-.438.521-.084.108-.175.2-.251.306-.114.168-.198.357-.293.539-.068.138-.165.263-.221.412A5.51 5.51 0 0 0 2 7.6v72.804c0 .385.037.766.114 1.127.142.684.425 1.336.794 1.913.021.027.032.06.05.081A5.604 5.604 0 0 0 7.596 86h72.806C83.479 86 86 83.475 86 80.401V7.6c0-.737-.149-1.435-.411-2.081zM74.798 74.8H13.2V13.2h61.598v61.6z"/></svg><svg width="100" height="100" viewBox="0 0 100 100" id="close-window-orange" x="2220" y="2250" xmlns="http://www.w3.org/2000/svg"><path fill="#E46E34" d="M51.005 44l11.906 11.91a1.977 1.977 0 0 1 0 2.811l-4.197 4.199a1.983 1.983 0 0 1-2.805 0L43.992 51.006 32.08 62.92a1.985 1.985 0 0 1-2.807 0l-4.192-4.199a1.983 1.983 0 0 1 0-2.811L36.994 44 25.083 32.083a1.977 1.977 0 0 1 0-2.806l4.201-4.2a1.971 1.971 0 0 1 2.797 0l11.91 11.917 11.918-11.917a1.98 1.98 0 0 1 2.805 0l4.197 4.204a1.97 1.97 0 0 1 0 2.805L51.005 44z"/><path fill="#E46E34" d="M85.589 5.519c-.016-.026-.016-.064-.029-.095-.09-.214-.216-.404-.332-.603-.063-.111-.115-.243-.189-.345-.091-.145-.217-.267-.329-.396-.115-.145-.225-.306-.35-.434-.164-.161-.35-.295-.53-.436-.102-.081-.196-.175-.307-.248-.163-.113-.357-.197-.54-.294-.138-.072-.266-.165-.413-.224A5.451 5.451 0 0 0 80.398 2H7.596c-.186 0-.365.037-.55.058-.174.018-.35.018-.517.047a5.537 5.537 0 0 0-.97.291.943.943 0 0 1-.039.012c-.027.015-.065.022-.095.036-.215.087-.405.212-.605.328-.11.063-.24.109-.343.186-.025.019-.044.037-.068.058-.122.084-.233.19-.351.289-.138.111-.287.21-.411.341-.161.16-.295.344-.438.521-.084.108-.175.2-.251.306-.114.168-.198.357-.293.539-.068.138-.165.263-.221.412A5.51 5.51 0 0 0 2 7.6v72.804c0 .385.037.766.114 1.127.142.684.425 1.336.794 1.913.021.027.032.06.05.081A5.604 5.604 0 0 0 7.596 86h72.806C83.479 86 86 83.475 86 80.401V7.6c0-.737-.149-1.435-.411-2.081zM74.798 74.8H13.2V13.2h61.598v61.6z"/></svg><svg width="100" height="100" viewBox="0 0 100 100" id="close-window-orange-hover" x="2320" y="2350" xmlns="http://www.w3.org/2000/svg"><path fill="#AB4A08" d="M51.005 44l11.906 11.91a1.977 1.977 0 0 1 0 2.811l-4.197 4.199a1.983 1.983 0 0 1-2.805 0L43.992 51.006 32.08 62.92a1.985 1.985 0 0 1-2.807 0l-4.192-4.199a1.983 1.983 0 0 1 0-2.811L36.994 44 25.083 32.083a1.975 1.975 0 0 1 0-2.805l4.201-4.201a1.973 1.973 0 0 1 2.797 0l11.91 11.917 11.918-11.917a1.983 1.983 0 0 1 2.805 0l4.197 4.204a1.971 1.971 0 0 1 0 2.806L51.005 44z"/><path fill="#AB4A08" d="M85.589 5.52c-.016-.026-.016-.064-.029-.095-.09-.215-.216-.404-.332-.603-.063-.111-.115-.243-.189-.345-.091-.146-.217-.267-.329-.396-.115-.146-.225-.306-.35-.434-.164-.161-.35-.296-.53-.437-.102-.08-.196-.175-.307-.248-.163-.113-.357-.197-.54-.295-.138-.071-.266-.164-.413-.224A5.468 5.468 0 0 0 80.398 2H7.596c-.186 0-.365.037-.55.059-.174.018-.35.018-.517.046a5.713 5.713 0 0 0-.97.291.356.356 0 0 1-.039.013c-.027.015-.065.022-.095.035-.215.087-.405.212-.605.328-.11.064-.24.11-.343.186-.025.019-.044.038-.068.059-.122.084-.233.189-.351.288-.138.112-.287.211-.411.342-.161.16-.295.343-.438.521-.084.108-.175.2-.251.306-.114.167-.198.356-.293.539-.068.137-.165.262-.221.412A5.507 5.507 0 0 0 2 7.601v72.803c0 .385.037.766.114 1.127.142.684.425 1.336.794 1.913.021.027.032.06.05.08A5.6 5.6 0 0 0 7.596 86h72.806C83.479 86 86 83.475 86 80.402V7.601c0-.738-.149-1.436-.411-2.081zM74.798 74.8H13.2V13.2h61.598v61.6z"/></svg><svg width="100" height="100" viewBox="0 0 100 100" id="close-window-purple" x="2420" y="2450" xmlns="http://www.w3.org/2000/svg"><path fill="#B360BA" d="M51.005 44l11.906 11.91a1.977 1.977 0 0 1 0 2.811l-4.197 4.199a1.983 1.983 0 0 1-2.805 0L43.992 51.006 32.08 62.92a1.985 1.985 0 0 1-2.807 0l-4.192-4.199a1.983 1.983 0 0 1 0-2.811L36.994 44 25.083 32.083a1.975 1.975 0 0 1 0-2.805l4.201-4.201a1.973 1.973 0 0 1 2.797 0l11.91 11.917 11.918-11.917a1.983 1.983 0 0 1 2.805 0l4.197 4.204a1.971 1.971 0 0 1 0 2.806L51.005 44z"/><path fill="#B360BA" d="M85.589 5.52c-.016-.026-.016-.064-.029-.095-.09-.215-.216-.404-.332-.603-.063-.111-.115-.243-.189-.345-.091-.146-.217-.267-.329-.396-.115-.146-.225-.306-.35-.434-.164-.161-.35-.296-.53-.437-.102-.08-.196-.175-.307-.248-.163-.113-.357-.197-.54-.295-.138-.071-.266-.164-.413-.224A5.468 5.468 0 0 0 80.398 2H7.596c-.186 0-.365.037-.55.059-.174.018-.35.018-.517.046a5.713 5.713 0 0 0-.97.291.356.356 0 0 1-.039.013c-.027.015-.065.022-.095.035-.215.087-.405.212-.605.328-.11.064-.24.11-.343.186-.025.019-.044.038-.068.059-.122.084-.233.189-.351.288-.138.112-.287.211-.411.342-.161.16-.295.343-.438.521-.084.108-.175.2-.251.306-.114.167-.198.356-.293.539-.068.137-.165.262-.221.412A5.507 5.507 0 0 0 2 7.601v72.803c0 .385.037.766.114 1.127.142.684.425 1.336.794 1.913.021.027.032.06.05.08A5.6 5.6 0 0 0 7.596 86h72.806C83.479 86 86 83.475 86 80.402V7.601c0-.738-.149-1.436-.411-2.081zM74.798 74.8H13.2V13.2h61.598v61.6z"/></svg><svg width="100" height="100" viewBox="0 0 100 100" id="close-window-purple-hover" x="2520" y="2550" xmlns="http://www.w3.org/2000/svg"><path fill="#663267" d="M51.005 44l11.906 11.91a1.977 1.977 0 0 1 0 2.811l-4.197 4.199a1.986 1.986 0 0 1-2.805 0L43.992 51.006 32.08 62.92a1.989 1.989 0 0 1-2.807 0l-4.192-4.199a1.983 1.983 0 0 1 0-2.811L36.994 44 25.083 32.083a1.975 1.975 0 0 1 0-2.805l4.201-4.201a1.971 1.971 0 0 1 2.797 0l11.91 11.917 11.918-11.917a1.98 1.98 0 0 1 2.805 0l4.197 4.205a1.97 1.97 0 0 1 0 2.805L51.005 44z"/><path fill="#663267" d="M85.589 5.52c-.016-.026-.016-.065-.029-.095-.09-.215-.216-.405-.332-.603-.063-.111-.115-.243-.189-.345-.091-.145-.217-.266-.329-.396-.115-.145-.225-.306-.35-.434-.164-.161-.35-.295-.53-.437-.102-.08-.196-.175-.307-.248-.163-.113-.357-.198-.54-.295-.138-.071-.266-.165-.413-.224A5.468 5.468 0 0 0 80.398 2H7.596c-.186 0-.365.038-.55.059-.174.018-.35.018-.517.047a5.623 5.623 0 0 0-.97.291.943.943 0 0 1-.039.012c-.027.015-.065.022-.095.035-.215.087-.405.213-.605.328-.11.064-.24.11-.343.186-.025.019-.044.038-.068.059-.122.084-.233.189-.351.288-.138.112-.287.211-.411.342-.161.16-.295.343-.438.521-.084.108-.175.2-.251.306-.114.167-.198.357-.293.539-.068.137-.165.263-.221.412A5.507 5.507 0 0 0 2 7.601v72.802c0 .385.037.766.114 1.127.142.684.425 1.336.794 1.914.021.027.032.059.05.08A5.605 5.605 0 0 0 7.596 86h72.806C83.479 86 86 83.475 86 80.402V7.601c0-.737-.149-1.435-.411-2.081zM74.798 74.799H13.2V13.2h61.598v61.599z"/></svg><svg width="100" height="100" viewBox="0 0 100 100" id="close-window-red" x="2620" y="2650" xmlns="http://www.w3.org/2000/svg"><path fill="#B74E4E" d="M51.005 44l11.906 11.91a1.977 1.977 0 0 1 0 2.811l-4.197 4.199a1.983 1.983 0 0 1-2.805 0L43.992 51.006 32.08 62.92a1.985 1.985 0 0 1-2.807 0l-4.192-4.199a1.983 1.983 0 0 1 0-2.811L36.994 44 25.083 32.083a1.975 1.975 0 0 1 0-2.805l4.201-4.201a1.973 1.973 0 0 1 2.797 0l11.91 11.917 11.918-11.917a1.983 1.983 0 0 1 2.805 0l4.197 4.204a1.971 1.971 0 0 1 0 2.806L51.005 44z"/><path fill="#B74E4E" d="M85.589 5.52c-.016-.026-.016-.064-.029-.095-.09-.215-.216-.404-.332-.603-.063-.111-.115-.243-.189-.345-.091-.146-.217-.267-.329-.396-.115-.146-.225-.306-.35-.434-.164-.161-.35-.296-.53-.437-.102-.08-.196-.175-.307-.248-.163-.113-.357-.197-.54-.295-.138-.071-.266-.164-.413-.224A5.468 5.468 0 0 0 80.398 2H7.596c-.186 0-.365.037-.55.059-.174.018-.35.018-.517.046a5.713 5.713 0 0 0-.97.291.356.356 0 0 1-.039.013c-.027.015-.065.022-.095.035-.215.087-.405.212-.605.328-.11.064-.24.11-.343.186-.025.019-.044.038-.068.059-.122.084-.233.189-.351.288-.138.112-.287.211-.411.342-.161.16-.295.343-.438.521-.084.108-.175.2-.251.306-.114.167-.198.356-.293.539-.068.137-.165.262-.221.412A5.507 5.507 0 0 0 2 7.601v72.803c0 .385.037.766.114 1.127.142.684.425 1.336.794 1.913.021.027.032.06.05.08A5.6 5.6 0 0 0 7.596 86h72.806C83.479 86 86 83.475 86 80.402V7.601c0-.738-.149-1.436-.411-2.081zM74.798 74.8H13.2V13.2h61.598v61.6z"/></svg><svg width="100" height="100" viewBox="0 0 100 100" id="close-window-red-hover" x="2720" y="2750" xmlns="http://www.w3.org/2000/svg"><path fill="#63211C" d="M51.005 44l11.906 11.91a1.977 1.977 0 0 1 0 2.811l-4.197 4.199a1.983 1.983 0 0 1-2.805 0L43.992 51.006 32.08 62.92a1.985 1.985 0 0 1-2.807 0l-4.192-4.199a1.983 1.983 0 0 1 0-2.811L36.994 44 25.083 32.083a1.975 1.975 0 0 1 0-2.805l4.201-4.201a1.973 1.973 0 0 1 2.797 0l11.91 11.917 11.918-11.917a1.983 1.983 0 0 1 2.805 0l4.197 4.204a1.971 1.971 0 0 1 0 2.806L51.005 44z"/><path fill="#63211C" d="M85.589 5.52c-.016-.026-.016-.064-.029-.095-.09-.215-.216-.404-.332-.603-.063-.111-.115-.243-.189-.345-.091-.146-.217-.267-.329-.396-.115-.146-.225-.306-.35-.434-.164-.161-.35-.296-.53-.437-.102-.08-.196-.175-.307-.248-.163-.113-.357-.197-.54-.295-.138-.071-.266-.164-.413-.224A5.468 5.468 0 0 0 80.398 2H7.596c-.186 0-.365.037-.55.059-.174.018-.35.018-.517.046a5.713 5.713 0 0 0-.97.291.356.356 0 0 1-.039.013c-.027.015-.065.022-.095.035-.215.087-.405.212-.605.328-.11.064-.24.11-.343.186-.025.019-.044.038-.068.059-.122.084-.233.189-.351.288-.138.112-.287.211-.411.342-.161.16-.295.343-.438.521-.084.108-.175.2-.251.306-.114.167-.198.356-.293.539-.068.137-.165.262-.221.412A5.507 5.507 0 0 0 2 7.601v72.803c0 .385.037.766.114 1.127.142.684.425 1.336.794 1.913.021.027.032.06.05.08A5.6 5.6 0 0 0 7.596 86h72.806C83.479 86 86 83.475 86 80.402V7.601c0-.738-.149-1.436-.411-2.081zM74.798 74.8H13.2V13.2h61.598v61.6z"/></svg><svg width="100" height="100" viewBox="0 0 100 100" id="close-window-teal" x="2820" y="2850" xmlns="http://www.w3.org/2000/svg"><path fill="#38A2A0" d="M51.005 44l11.906 11.91a1.977 1.977 0 0 1 0 2.811l-4.197 4.199a1.984 1.984 0 0 1-2.805 0L43.992 51.006 32.08 62.92a1.987 1.987 0 0 1-2.807 0l-4.192-4.199a1.983 1.983 0 0 1 0-2.811L36.994 44 25.083 32.083a1.977 1.977 0 0 1 0-2.806l4.201-4.201a1.971 1.971 0 0 1 2.797 0l11.91 11.917 11.918-11.917a1.98 1.98 0 0 1 2.805 0l4.197 4.205a1.971 1.971 0 0 1 0 2.806L51.005 44z"/><path fill="#38A2A0" d="M85.589 5.52c-.016-.026-.016-.065-.029-.095-.09-.215-.216-.405-.332-.603-.063-.111-.115-.243-.189-.345-.091-.145-.217-.266-.329-.396-.115-.145-.225-.306-.35-.434-.164-.161-.35-.295-.53-.437-.102-.08-.196-.175-.307-.248-.163-.113-.357-.198-.54-.295-.138-.072-.266-.165-.413-.224A5.468 5.468 0 0 0 80.398 2H7.596c-.186 0-.365.037-.55.058-.174.019-.35.019-.517.047a5.623 5.623 0 0 0-.97.291.356.356 0 0 1-.039.013c-.027.014-.065.021-.095.035-.215.087-.405.212-.605.328-.11.063-.24.109-.343.186-.025.019-.044.037-.068.058-.122.084-.233.19-.351.289-.138.111-.287.21-.411.342-.161.159-.295.343-.438.52-.084.108-.175.2-.251.306-.114.168-.198.357-.293.539-.068.138-.165.263-.221.413A5.505 5.505 0 0 0 2 7.6v72.804c0 .384.037.765.114 1.126.142.684.425 1.336.794 1.914.021.026.032.059.05.08A5.603 5.603 0 0 0 7.596 86h72.806C83.479 86 86 83.475 86 80.402V7.6c0-.737-.149-1.435-.411-2.08zM74.798 74.8H13.2V13.2h61.598v61.6z"/></svg><svg width="100" height="100" viewBox="0 0 100 100" id="close-window-teal-hover" x="2920" y="2950" xmlns="http://www.w3.org/2000/svg"><path fill="#1F605F" d="M51.005 44l11.906 11.91a1.976 1.976 0 0 1 0 2.811l-4.197 4.199a1.983 1.983 0 0 1-2.805 0L43.992 51.006 32.08 62.92a1.985 1.985 0 0 1-2.807 0l-4.192-4.199a1.983 1.983 0 0 1 0-2.811L36.994 44l-11.91-11.917a1.975 1.975 0 0 1 0-2.805l4.2-4.201a1.974 1.974 0 0 1 2.798 0l11.909 11.917 11.918-11.917a1.983 1.983 0 0 1 2.805 0l4.197 4.204a1.97 1.97 0 0 1 0 2.806L51.005 44z"/><path fill="#1F605F" d="M85.589 5.52c-.015-.026-.015-.064-.028-.095-.09-.215-.216-.404-.333-.603-.063-.111-.115-.243-.189-.345-.09-.146-.216-.267-.329-.396-.114-.146-.224-.306-.349-.434-.165-.161-.35-.296-.53-.437-.103-.08-.197-.175-.308-.248-.162-.113-.357-.197-.539-.295-.138-.071-.266-.164-.413-.224A5.473 5.473 0 0 0 80.398 2H7.596c-.186 0-.366.037-.549.059-.176.018-.351.018-.519.046a5.713 5.713 0 0 0-1.008.304c-.027.015-.065.022-.095.035-.215.087-.405.212-.605.328-.11.064-.24.11-.343.186-.026.019-.044.038-.069.059-.121.084-.232.189-.35.288-.138.112-.287.211-.412.342-.16.16-.294.343-.437.521-.084.108-.175.2-.251.306-.114.167-.198.356-.294.539-.067.137-.165.262-.221.412A5.506 5.506 0 0 0 2 7.601v72.803c0 .385.037.766.113 1.127.142.684.425 1.336.794 1.913.021.027.032.06.051.08A5.6 5.6 0 0 0 7.596 86h72.807C83.479 86 86 83.475 86 80.402V7.601c0-.738-.148-1.436-.411-2.081zM74.799 74.8h-61.6V13.2h61.6v61.6z"/></svg></svg>