<?xml version="1.0" encoding="utf-8"?><!DOCTYPE svg PUBLIC "-//W3C//DTD SVG 1.1//EN" "http://www.w3.org/Graphics/SVG/1.1/DTD/svg11.dtd"><svg width="2742" height="2742" viewBox="0 0 2742 2742" xmlns="http://www.w3.org/2000/svg" xmlns:xlink="http://www.w3.org/1999/xlink"><svg width="100" height="100" viewBox="0 0 100 100" id="common-description-blue" xmlns="http://www.w3.org/2000/svg"><path fill="#327CCB" d="M44.045 74.803H13.203V13.2h61.598v30.842c3.979.102 7.746.961 11.198 2.469V7.601A5.613 5.613 0 0 0 80.396 2H7.604C4.905 2 2.641 3.933 2.116 6.475A5.165 5.165 0 0 0 2 7.601v72.802c0 3.08 2.523 5.599 5.601 5.599h38.904a30.004 30.004 0 0 1-2.46-11.199z"/><path fill="#327CCB" d="M53.354 22.262c-2.605-1.877-5.877-2.829-9.742-2.829-2.988 0-5.565.684-7.645 2.03-3.363 2.133-5.181 5.736-5.39 10.722l-.072 1.558h9.885v-1.497c0-1.022.299-1.993.91-2.976.303-.477.899-1.118 2.609-1.118.916 0 2.12.149 2.607.844.521.735.775 1.519.775 2.4 0 .539-.275 1.169-.884 2.007a4.28 4.28 0 0 1-.937.979c-.161.102-3.905 2.514-5.653 4.564-1.31 1.534-1.381 3.627-1.474 6.081a1.97 1.97 0 0 0 .557 1.423c.28.283.782.622 1.592.622h5.31c1.34 0 2.092-1.001 2.141-2.003.03-.751.111-1.061.222-1.417.157-.495.667-1.083 1.447-1.691l1.95-1.34c1.848-1.445 3.222-2.552 3.926-3.558 1.346-1.829 2.028-3.866 2.028-6.042-.012-3.824-1.411-6.772-4.162-8.759zM43.351 51.158c-3.209 0-5.613 2.34-5.708 5.563-.089 3.233 2.305 5.744 5.572 5.838l.212.009c3.281 0 5.646-2.267 5.753-5.514.088-3.32-2.283-5.797-5.829-5.896zm.076 9.891zM74.004 50c-13.232 0-24 10.766-24 23.994 0 13.241 10.76 24.006 24 24.006C87.236 98 98 87.235 98 73.994 98 60.766 87.236 50 74.004 50zm17.294 14.002h-3.782c-.719-2.604-1.703-4.941-2.918-6.926a20.266 20.266 0 0 1 6.7 6.926zm-6.47 9.992a34.43 34.43 0 0 1-.521 5.998h-8.312v-12h8.312c.341 1.914.521 3.93.521 6.002zm-21.658 0c0-2.072.185-4.088.52-5.99h8.315v12.004H63.69c-.335-1.91-.52-3.93-.52-6.014zm8.828-19.619v9.627h-7.313c1.575-4.892 4.231-8.516 7.313-9.627zm0 29.623v9.623c-3.082-1.115-5.738-4.728-7.313-9.623h7.313zm4.004 9.63v-9.626h7.313c-1.575 4.883-4.235 8.514-7.313 9.626zm0-29.626v-9.627c3.082 1.111 5.746 4.735 7.313 9.627h-7.313zm-12.598-6.926c-1.208 1.984-2.201 4.338-2.923 6.926h-3.778a20.315 20.315 0 0 1 6.701-6.926zm-8.482 10.928h4.716a39.314 39.314 0 0 0-.47 5.99c0 2.084.172 4.088.47 5.998h-4.716a19.986 19.986 0 0 1 0-11.988zm1.783 15.994h3.779c.719 2.6 1.711 4.944 2.918 6.924a20.147 20.147 0 0 1-6.697-6.924zm27.899 6.924c1.207-1.98 2.193-4.32 2.916-6.921h3.778a20.165 20.165 0 0 1-6.694 6.921zM93.078 80h-4.72c.303-1.918.474-3.914.474-5.994a38.87 38.87 0 0 0-.474-5.994h4.72a19.818 19.818 0 0 1 0 11.988z"/></svg><svg width="100" height="100" viewBox="0 0 100 100" id="common-description-blue-hover" x="100" y="100" xmlns="http://www.w3.org/2000/svg"><path fill="#0B486B" d="M44.045 74.803H13.203V13.2h61.598v30.842c3.979.102 7.746.961 11.198 2.469V7.601A5.613 5.613 0 0 0 80.396 2H7.604C4.905 2 2.641 3.933 2.116 6.475A5.165 5.165 0 0 0 2 7.601v72.802c0 3.08 2.523 5.599 5.601 5.599h38.904a30.004 30.004 0 0 1-2.46-11.199z"/><path fill="#0B486B" d="M53.354 22.262c-2.605-1.877-5.877-2.829-9.742-2.829-2.988 0-5.565.684-7.645 2.03-3.363 2.133-5.181 5.736-5.39 10.722l-.072 1.558h9.885v-1.497c0-1.022.299-1.993.91-2.976.303-.477.899-1.118 2.609-1.118.916 0 2.12.149 2.607.844.521.735.775 1.519.775 2.4 0 .539-.275 1.169-.884 2.007a4.28 4.28 0 0 1-.937.979c-.161.102-3.905 2.514-5.653 4.564-1.31 1.534-1.381 3.627-1.474 6.081a1.97 1.97 0 0 0 .557 1.423c.28.283.782.622 1.592.622h5.31c1.34 0 2.092-1.001 2.141-2.003.03-.751.111-1.061.222-1.417.157-.495.667-1.083 1.447-1.691l1.95-1.34c1.848-1.445 3.222-2.552 3.926-3.558 1.346-1.829 2.028-3.866 2.028-6.042-.012-3.824-1.411-6.772-4.162-8.759zM43.351 51.158c-3.209 0-5.613 2.34-5.708 5.563-.089 3.233 2.305 5.744 5.572 5.838l.212.009c3.281 0 5.646-2.267 5.753-5.514.088-3.32-2.283-5.797-5.829-5.896zm.076 9.891zM74.004 50c-13.232 0-24 10.766-24 23.994 0 13.241 10.76 24.006 24 24.006C87.236 98 98 87.235 98 73.994 98 60.766 87.236 50 74.004 50zm17.294 14.002h-3.782c-.719-2.604-1.703-4.941-2.918-6.926a20.266 20.266 0 0 1 6.7 6.926zm-6.47 9.992a34.43 34.43 0 0 1-.521 5.998h-8.312v-12h8.312c.341 1.914.521 3.93.521 6.002zm-21.658 0c0-2.072.185-4.088.52-5.99h8.315v12.004H63.69c-.335-1.91-.52-3.93-.52-6.014zm8.828-19.619v9.627h-7.313c1.575-4.892 4.231-8.516 7.313-9.627zm0 29.623v9.623c-3.082-1.115-5.738-4.728-7.313-9.623h7.313zm4.004 9.63v-9.626h7.313c-1.575 4.883-4.235 8.514-7.313 9.626zm0-29.626v-9.627c3.082 1.111 5.746 4.735 7.313 9.627h-7.313zm-12.598-6.926c-1.208 1.984-2.201 4.338-2.923 6.926h-3.778a20.315 20.315 0 0 1 6.701-6.926zm-8.482 10.928h4.716a39.314 39.314 0 0 0-.47 5.99c0 2.084.172 4.088.47 5.998h-4.716a19.986 19.986 0 0 1 0-11.988zm1.783 15.994h3.779c.719 2.6 1.711 4.944 2.918 6.924a20.147 20.147 0 0 1-6.697-6.924zm27.899 6.924c1.207-1.98 2.193-4.32 2.916-6.921h3.778a20.165 20.165 0 0 1-6.694 6.921zM93.078 80h-4.72c.303-1.918.474-3.914.474-5.994a38.87 38.87 0 0 0-.474-5.994h4.72a19.818 19.818 0 0 1 0 11.988z"/></svg><svg width="100" height="100" viewBox="0 0 100 100" id="common-description-green" x="200" y="200" xmlns="http://www.w3.org/2000/svg"><path fill="#76A328" d="M44.045 74.803H13.203V13.2h61.598v30.842c3.979.102 7.746.961 11.198 2.469V7.601A5.613 5.613 0 0 0 80.396 2H7.604C4.905 2 2.641 3.933 2.116 6.475A5.165 5.165 0 0 0 2 7.601v72.802c0 3.08 2.523 5.599 5.601 5.599h38.904a30.004 30.004 0 0 1-2.46-11.199z"/><path fill="#76A328" d="M53.354 22.262c-2.605-1.877-5.877-2.829-9.742-2.829-2.988 0-5.565.684-7.645 2.03-3.363 2.133-5.181 5.736-5.39 10.722l-.072 1.558h9.885v-1.497c0-1.022.299-1.993.91-2.976.303-.477.899-1.118 2.609-1.118.916 0 2.12.149 2.607.844.521.735.775 1.519.775 2.4 0 .539-.275 1.169-.884 2.007a4.28 4.28 0 0 1-.937.979c-.161.102-3.905 2.514-5.653 4.564-1.31 1.534-1.381 3.627-1.474 6.081a1.97 1.97 0 0 0 .557 1.423c.28.283.782.622 1.592.622h5.31c1.34 0 2.092-1.001 2.141-2.003.03-.751.111-1.061.222-1.417.157-.495.667-1.083 1.447-1.691l1.95-1.34c1.848-1.445 3.222-2.552 3.926-3.558 1.346-1.829 2.028-3.866 2.028-6.042-.012-3.824-1.411-6.772-4.162-8.759zM43.351 51.158c-3.209 0-5.613 2.34-5.708 5.563-.089 3.233 2.305 5.744 5.572 5.838l.212.009c3.281 0 5.646-2.267 5.753-5.514.088-3.32-2.283-5.797-5.829-5.896zm.076 9.891zM74.004 50c-13.232 0-24 10.766-24 23.994 0 13.241 10.76 24.006 24 24.006C87.236 98 98 87.235 98 73.994 98 60.766 87.236 50 74.004 50zm17.294 14.002h-3.782c-.719-2.604-1.703-4.941-2.918-6.926a20.266 20.266 0 0 1 6.7 6.926zm-6.47 9.992a34.43 34.43 0 0 1-.521 5.998h-8.312v-12h8.312c.341 1.914.521 3.93.521 6.002zm-21.658 0c0-2.072.185-4.088.52-5.99h8.315v12.004H63.69c-.335-1.91-.52-3.93-.52-6.014zm8.828-19.619v9.627h-7.313c1.575-4.892 4.231-8.516 7.313-9.627zm0 29.623v9.623c-3.082-1.115-5.738-4.728-7.313-9.623h7.313zm4.004 9.63v-9.626h7.313c-1.575 4.883-4.235 8.514-7.313 9.626zm0-29.626v-9.627c3.082 1.111 5.746 4.735 7.313 9.627h-7.313zm-12.598-6.926c-1.208 1.984-2.201 4.338-2.923 6.926h-3.778a20.315 20.315 0 0 1 6.701-6.926zm-8.482 10.928h4.716a39.314 39.314 0 0 0-.47 5.99c0 2.084.172 4.088.47 5.998h-4.716a19.986 19.986 0 0 1 0-11.988zm1.783 15.994h3.779c.719 2.6 1.711 4.944 2.918 6.924a20.147 20.147 0 0 1-6.697-6.924zm27.899 6.924c1.207-1.98 2.193-4.32 2.916-6.921h3.778a20.165 20.165 0 0 1-6.694 6.921zM93.078 80h-4.72c.303-1.918.474-3.914.474-5.994a38.87 38.87 0 0 0-.474-5.994h4.72a19.818 19.818 0 0 1 0 11.988z"/></svg><svg width="100" height="100" viewBox="0 0 100 100" id="common-description-green-hover" x="300" y="300" xmlns="http://www.w3.org/2000/svg"><path fill="#244805" d="M44.045 74.803H13.203V13.2h61.598v30.842c3.979.102 7.746.961 11.198 2.469V7.601A5.613 5.613 0 0 0 80.396 2H7.604C4.905 2 2.641 3.933 2.116 6.475A5.165 5.165 0 0 0 2 7.601v72.802c0 3.08 2.523 5.599 5.601 5.599h38.904a30.004 30.004 0 0 1-2.46-11.199z"/><path fill="#244805" d="M53.354 22.262c-2.605-1.877-5.877-2.829-9.742-2.829-2.988 0-5.565.684-7.645 2.03-3.363 2.133-5.181 5.736-5.39 10.722l-.072 1.558h9.885v-1.497c0-1.022.299-1.993.91-2.976.303-.477.899-1.118 2.609-1.118.916 0 2.12.149 2.607.844.521.735.775 1.519.775 2.4 0 .539-.275 1.169-.884 2.007a4.28 4.28 0 0 1-.937.979c-.161.102-3.905 2.514-5.653 4.564-1.31 1.534-1.381 3.627-1.474 6.081a1.97 1.97 0 0 0 .557 1.423c.28.283.782.622 1.592.622h5.31c1.34 0 2.092-1.001 2.141-2.003.03-.751.111-1.061.222-1.417.157-.495.667-1.083 1.447-1.691l1.95-1.34c1.848-1.445 3.222-2.552 3.926-3.558 1.346-1.829 2.028-3.866 2.028-6.042-.012-3.824-1.411-6.772-4.162-8.759zM43.351 51.158c-3.209 0-5.613 2.34-5.708 5.563-.089 3.233 2.305 5.744 5.572 5.838l.212.009c3.281 0 5.646-2.267 5.753-5.514.088-3.32-2.283-5.797-5.829-5.896zm.076 9.891zM74.004 50c-13.232 0-24 10.766-24 23.994 0 13.241 10.76 24.006 24 24.006C87.236 98 98 87.235 98 73.994 98 60.766 87.236 50 74.004 50zm17.294 14.002h-3.782c-.719-2.604-1.703-4.941-2.918-6.926a20.266 20.266 0 0 1 6.7 6.926zm-6.47 9.992a34.43 34.43 0 0 1-.521 5.998h-8.312v-12h8.312c.341 1.914.521 3.93.521 6.002zm-21.658 0c0-2.072.185-4.088.52-5.99h8.315v12.004H63.69c-.335-1.91-.52-3.93-.52-6.014zm8.828-19.619v9.627h-7.313c1.575-4.892 4.231-8.516 7.313-9.627zm0 29.623v9.623c-3.082-1.115-5.738-4.728-7.313-9.623h7.313zm4.004 9.63v-9.626h7.313c-1.575 4.883-4.235 8.514-7.313 9.626zm0-29.626v-9.627c3.082 1.111 5.746 4.735 7.313 9.627h-7.313zm-12.598-6.926c-1.208 1.984-2.201 4.338-2.923 6.926h-3.778a20.315 20.315 0 0 1 6.701-6.926zm-8.482 10.928h4.716a39.314 39.314 0 0 0-.47 5.99c0 2.084.172 4.088.47 5.998h-4.716a19.986 19.986 0 0 1 0-11.988zm1.783 15.994h3.779c.719 2.6 1.711 4.944 2.918 6.924a20.147 20.147 0 0 1-6.697-6.924zm27.899 6.924c1.207-1.98 2.193-4.32 2.916-6.921h3.778a20.165 20.165 0 0 1-6.694 6.921zM93.078 80h-4.72c.303-1.918.474-3.914.474-5.994a38.87 38.87 0 0 0-.474-5.994h4.72a19.818 19.818 0 0 1 0 11.988z"/></svg><svg width="100" height="100" viewBox="0 0 100 100" id="common-description-orange" x="400" y="400" xmlns="http://www.w3.org/2000/svg"><path fill="#E46E34" d="M44.045 74.803H13.203V13.2h61.598v30.842c3.979.102 7.746.961 11.198 2.469V7.601A5.613 5.613 0 0 0 80.396 2H7.604C4.905 2 2.641 3.933 2.116 6.475A5.165 5.165 0 0 0 2 7.601v72.802c0 3.08 2.523 5.599 5.601 5.599h38.904a30.004 30.004 0 0 1-2.46-11.199z"/><path fill="#E46E34" d="M53.354 22.262c-2.605-1.877-5.877-2.829-9.742-2.829-2.988 0-5.565.684-7.645 2.03-3.363 2.133-5.181 5.736-5.39 10.722l-.072 1.558h9.885v-1.497c0-1.022.299-1.993.91-2.976.303-.477.899-1.118 2.609-1.118.916 0 2.12.149 2.607.844.521.735.775 1.519.775 2.4 0 .539-.275 1.169-.884 2.007a4.28 4.28 0 0 1-.937.979c-.161.102-3.905 2.514-5.653 4.564-1.31 1.534-1.381 3.627-1.474 6.081a1.97 1.97 0 0 0 .557 1.423c.28.283.782.622 1.592.622h5.31c1.34 0 2.092-1.001 2.141-2.003.03-.751.111-1.061.222-1.417.157-.495.667-1.083 1.447-1.691l1.95-1.34c1.848-1.445 3.222-2.552 3.926-3.558 1.346-1.829 2.028-3.866 2.028-6.042-.012-3.824-1.411-6.772-4.162-8.759zM43.351 51.158c-3.209 0-5.613 2.34-5.708 5.563-.089 3.233 2.305 5.744 5.572 5.838l.212.009c3.281 0 5.646-2.267 5.753-5.514.088-3.32-2.283-5.797-5.829-5.896zm.076 9.891zM74.004 50c-13.232 0-24 10.766-24 23.994 0 13.241 10.76 24.006 24 24.006C87.236 98 98 87.235 98 73.994 98 60.766 87.236 50 74.004 50zm17.294 14.002h-3.782c-.719-2.604-1.703-4.941-2.918-6.926a20.266 20.266 0 0 1 6.7 6.926zm-6.47 9.992a34.43 34.43 0 0 1-.521 5.998h-8.312v-12h8.312c.341 1.914.521 3.93.521 6.002zm-21.658 0c0-2.072.185-4.088.52-5.99h8.315v12.004H63.69c-.335-1.91-.52-3.93-.52-6.014zm8.828-19.619v9.627h-7.313c1.575-4.892 4.231-8.516 7.313-9.627zm0 29.623v9.623c-3.082-1.115-5.738-4.728-7.313-9.623h7.313zm4.004 9.63v-9.626h7.313c-1.575 4.883-4.235 8.514-7.313 9.626zm0-29.626v-9.627c3.082 1.111 5.746 4.735 7.313 9.627h-7.313zm-12.598-6.926c-1.208 1.984-2.201 4.338-2.923 6.926h-3.778a20.315 20.315 0 0 1 6.701-6.926zm-8.482 10.928h4.716a39.314 39.314 0 0 0-.47 5.99c0 2.084.172 4.088.47 5.998h-4.716a19.986 19.986 0 0 1 0-11.988zm1.783 15.994h3.779c.719 2.6 1.711 4.944 2.918 6.924a20.147 20.147 0 0 1-6.697-6.924zm27.899 6.924c1.207-1.98 2.193-4.32 2.916-6.921h3.778a20.165 20.165 0 0 1-6.694 6.921zM93.078 80h-4.72c.303-1.918.474-3.914.474-5.994a38.87 38.87 0 0 0-.474-5.994h4.72a19.818 19.818 0 0 1 0 11.988z"/></svg><svg width="100" height="100" viewBox="0 0 100 100" id="common-description-orange-hover" x="500" y="500" xmlns="http://www.w3.org/2000/svg"><path fill="#AB4A08" d="M44.045 74.803H13.203V13.2h61.598v30.842c3.979.102 7.746.961 11.198 2.469V7.601A5.613 5.613 0 0 0 80.396 2H7.604C4.905 2 2.641 3.933 2.116 6.475A5.165 5.165 0 0 0 2 7.601v72.802c0 3.08 2.523 5.599 5.601 5.599h38.904a30.004 30.004 0 0 1-2.46-11.199z"/><path fill="#AB4A08" d="M53.354 22.262c-2.605-1.877-5.877-2.829-9.742-2.829-2.988 0-5.565.684-7.645 2.03-3.363 2.133-5.181 5.736-5.39 10.722l-.072 1.558h9.885v-1.497c0-1.022.299-1.993.91-2.976.303-.477.899-1.118 2.609-1.118.916 0 2.12.149 2.607.844.521.735.775 1.519.775 2.4 0 .539-.275 1.169-.884 2.007a4.28 4.28 0 0 1-.937.979c-.161.102-3.905 2.514-5.653 4.564-1.31 1.534-1.381 3.627-1.474 6.081a1.97 1.97 0 0 0 .557 1.423c.28.283.782.622 1.592.622h5.31c1.34 0 2.092-1.001 2.141-2.003.03-.751.111-1.061.222-1.417.157-.495.667-1.083 1.447-1.691l1.95-1.34c1.848-1.445 3.222-2.552 3.926-3.558 1.346-1.829 2.028-3.866 2.028-6.042-.012-3.824-1.411-6.772-4.162-8.759zM43.351 51.158c-3.209 0-5.613 2.34-5.708 5.563-.089 3.233 2.305 5.744 5.572 5.838l.212.009c3.281 0 5.646-2.267 5.753-5.514.088-3.32-2.283-5.797-5.829-5.896zm.076 9.891zM74.004 50c-13.232 0-24 10.766-24 23.994 0 13.241 10.76 24.006 24 24.006C87.236 98 98 87.235 98 73.994 98 60.766 87.236 50 74.004 50zm17.294 14.002h-3.782c-.719-2.604-1.703-4.941-2.918-6.926a20.266 20.266 0 0 1 6.7 6.926zm-6.47 9.992a34.43 34.43 0 0 1-.521 5.998h-8.312v-12h8.312c.341 1.914.521 3.93.521 6.002zm-21.658 0c0-2.072.185-4.088.52-5.99h8.315v12.004H63.69c-.335-1.91-.52-3.93-.52-6.014zm8.828-19.619v9.627h-7.313c1.575-4.892 4.231-8.516 7.313-9.627zm0 29.623v9.623c-3.082-1.115-5.738-4.728-7.313-9.623h7.313zm4.004 9.63v-9.626h7.313c-1.575 4.883-4.235 8.514-7.313 9.626zm0-29.626v-9.627c3.082 1.111 5.746 4.735 7.313 9.627h-7.313zm-12.598-6.926c-1.208 1.984-2.201 4.338-2.923 6.926h-3.778a20.315 20.315 0 0 1 6.701-6.926zm-8.482 10.928h4.716a39.314 39.314 0 0 0-.47 5.99c0 2.084.172 4.088.47 5.998h-4.716a19.986 19.986 0 0 1 0-11.988zm1.783 15.994h3.779c.719 2.6 1.711 4.944 2.918 6.924a20.147 20.147 0 0 1-6.697-6.924zm27.899 6.924c1.207-1.98 2.193-4.32 2.916-6.921h3.778a20.165 20.165 0 0 1-6.694 6.921zM93.078 80h-4.72c.303-1.918.474-3.914.474-5.994a38.87 38.87 0 0 0-.474-5.994h4.72a19.818 19.818 0 0 1 0 11.988z"/></svg><svg width="100" height="100" viewBox="0 0 100 100" id="common-description-purple" x="600" y="600" xmlns="http://www.w3.org/2000/svg"><path fill="#B360BA" d="M44.045 74.803H13.203V13.2h61.598v30.842c3.979.102 7.746.961 11.198 2.469V7.601A5.613 5.613 0 0 0 80.396 2H7.604C4.905 2 2.641 3.933 2.116 6.475A5.165 5.165 0 0 0 2 7.601v72.802c0 3.08 2.523 5.599 5.601 5.599h38.904a30.004 30.004 0 0 1-2.46-11.199z"/><path fill="#B360BA" d="M53.354 22.262c-2.605-1.877-5.877-2.829-9.742-2.829-2.988 0-5.565.684-7.645 2.03-3.363 2.133-5.181 5.736-5.39 10.722l-.072 1.558h9.885v-1.497c0-1.022.299-1.993.91-2.976.303-.477.899-1.118 2.609-1.118.916 0 2.12.149 2.607.844.521.735.775 1.519.775 2.4 0 .539-.275 1.169-.884 2.007a4.28 4.28 0 0 1-.937.979c-.161.102-3.905 2.514-5.653 4.564-1.31 1.534-1.381 3.627-1.474 6.081a1.97 1.97 0 0 0 .557 1.423c.28.283.782.622 1.592.622h5.31c1.34 0 2.092-1.001 2.141-2.003.03-.751.111-1.061.222-1.417.157-.495.667-1.083 1.447-1.691l1.95-1.34c1.848-1.445 3.222-2.552 3.926-3.558 1.346-1.829 2.028-3.866 2.028-6.042-.012-3.824-1.411-6.772-4.162-8.759zM43.351 51.158c-3.209 0-5.613 2.34-5.708 5.563-.089 3.233 2.305 5.744 5.572 5.838l.212.009c3.281 0 5.646-2.267 5.753-5.514.088-3.32-2.283-5.797-5.829-5.896zm.076 9.891zM74.004 50c-13.232 0-24 10.766-24 23.994 0 13.241 10.76 24.006 24 24.006C87.236 98 98 87.235 98 73.994 98 60.766 87.236 50 74.004 50zm17.294 14.002h-3.782c-.719-2.604-1.703-4.941-2.918-6.926a20.266 20.266 0 0 1 6.7 6.926zm-6.47 9.992a34.43 34.43 0 0 1-.521 5.998h-8.312v-12h8.312c.341 1.914.521 3.93.521 6.002zm-21.658 0c0-2.072.185-4.088.52-5.99h8.315v12.004H63.69c-.335-1.91-.52-3.93-.52-6.014zm8.828-19.619v9.627h-7.313c1.575-4.892 4.231-8.516 7.313-9.627zm0 29.623v9.623c-3.082-1.115-5.738-4.728-7.313-9.623h7.313zm4.004 9.63v-9.626h7.313c-1.575 4.883-4.235 8.514-7.313 9.626zm0-29.626v-9.627c3.082 1.111 5.746 4.735 7.313 9.627h-7.313zm-12.598-6.926c-1.208 1.984-2.201 4.338-2.923 6.926h-3.778a20.315 20.315 0 0 1 6.701-6.926zm-8.482 10.928h4.716a39.314 39.314 0 0 0-.47 5.99c0 2.084.172 4.088.47 5.998h-4.716a19.986 19.986 0 0 1 0-11.988zm1.783 15.994h3.779c.719 2.6 1.711 4.944 2.918 6.924a20.147 20.147 0 0 1-6.697-6.924zm27.899 6.924c1.207-1.98 2.193-4.32 2.916-6.921h3.778a20.165 20.165 0 0 1-6.694 6.921zM93.078 80h-4.72c.303-1.918.474-3.914.474-5.994a38.87 38.87 0 0 0-.474-5.994h4.72a19.818 19.818 0 0 1 0 11.988z"/></svg><svg width="100" height="100" viewBox="0 0 100 100" id="common-description-purple-hover" x="700" y="700" xmlns="http://www.w3.org/2000/svg"><path fill="#663267" d="M44.045 74.803H13.203V13.2h61.598v30.842c3.979.102 7.746.961 11.198 2.469V7.601A5.613 5.613 0 0 0 80.396 2H7.604C4.905 2 2.641 3.933 2.116 6.475A5.165 5.165 0 0 0 2 7.601v72.802c0 3.08 2.523 5.599 5.601 5.599h38.904a30.004 30.004 0 0 1-2.46-11.199z"/><path fill="#663267" d="M53.354 22.262c-2.605-1.877-5.877-2.829-9.742-2.829-2.988 0-5.565.684-7.645 2.03-3.363 2.133-5.181 5.736-5.39 10.722l-.072 1.558h9.885v-1.497c0-1.022.299-1.993.91-2.976.303-.477.899-1.118 2.609-1.118.916 0 2.12.149 2.607.844.521.735.775 1.519.775 2.4 0 .539-.275 1.169-.884 2.007a4.28 4.28 0 0 1-.937.979c-.161.102-3.905 2.514-5.653 4.564-1.31 1.534-1.381 3.627-1.474 6.081a1.97 1.97 0 0 0 .557 1.423c.28.283.782.622 1.592.622h5.31c1.34 0 2.092-1.001 2.141-2.003.03-.751.111-1.061.222-1.417.157-.495.667-1.083 1.447-1.691l1.95-1.34c1.848-1.445 3.222-2.552 3.926-3.558 1.346-1.829 2.028-3.866 2.028-6.042-.012-3.824-1.411-6.772-4.162-8.759zM43.351 51.158c-3.209 0-5.613 2.34-5.708 5.563-.089 3.233 2.305 5.744 5.572 5.838l.212.009c3.281 0 5.646-2.267 5.753-5.514.088-3.32-2.283-5.797-5.829-5.896zm.076 9.891zM74.004 50c-13.232 0-24 10.766-24 23.994 0 13.241 10.76 24.006 24 24.006C87.236 98 98 87.235 98 73.994 98 60.766 87.236 50 74.004 50zm17.294 14.002h-3.782c-.719-2.604-1.703-4.941-2.918-6.926a20.266 20.266 0 0 1 6.7 6.926zm-6.47 9.992a34.43 34.43 0 0 1-.521 5.998h-8.312v-12h8.312c.341 1.914.521 3.93.521 6.002zm-21.658 0c0-2.072.185-4.088.52-5.99h8.315v12.004H63.69c-.335-1.91-.52-3.93-.52-6.014zm8.828-19.619v9.627h-7.313c1.575-4.892 4.231-8.516 7.313-9.627zm0 29.623v9.623c-3.082-1.115-5.738-4.728-7.313-9.623h7.313zm4.004 9.63v-9.626h7.313c-1.575 4.883-4.235 8.514-7.313 9.626zm0-29.626v-9.627c3.082 1.111 5.746 4.735 7.313 9.627h-7.313zm-12.598-6.926c-1.208 1.984-2.201 4.338-2.923 6.926h-3.778a20.315 20.315 0 0 1 6.701-6.926zm-8.482 10.928h4.716a39.314 39.314 0 0 0-.47 5.99c0 2.084.172 4.088.47 5.998h-4.716a19.986 19.986 0 0 1 0-11.988zm1.783 15.994h3.779c.719 2.6 1.711 4.944 2.918 6.924a20.147 20.147 0 0 1-6.697-6.924zm27.899 6.924c1.207-1.98 2.193-4.32 2.916-6.921h3.778a20.165 20.165 0 0 1-6.694 6.921zM93.078 80h-4.72c.303-1.918.474-3.914.474-5.994a38.87 38.87 0 0 0-.474-5.994h4.72a19.818 19.818 0 0 1 0 11.988z"/></svg><svg width="100" height="100" viewBox="0 0 100 100" id="common-description-red" x="800" y="800" xmlns="http://www.w3.org/2000/svg"><path fill="#B74E4E" d="M44.045 74.803H13.203V13.2h61.598v30.842c3.979.102 7.746.961 11.198 2.469V7.601A5.613 5.613 0 0 0 80.396 2H7.604C4.905 2 2.641 3.933 2.116 6.475A5.165 5.165 0 0 0 2 7.601v72.802c0 3.08 2.523 5.599 5.601 5.599h38.904a30.004 30.004 0 0 1-2.46-11.199z"/><path fill="#B74E4E" d="M53.354 22.262c-2.605-1.877-5.877-2.829-9.742-2.829-2.988 0-5.565.684-7.645 2.03-3.363 2.133-5.181 5.736-5.39 10.722l-.072 1.558h9.885v-1.497c0-1.022.299-1.993.91-2.976.303-.477.899-1.118 2.609-1.118.916 0 2.12.149 2.607.844.521.735.775 1.519.775 2.4 0 .539-.275 1.169-.884 2.007a4.28 4.28 0 0 1-.937.979c-.161.102-3.905 2.514-5.653 4.564-1.31 1.534-1.381 3.627-1.474 6.081a1.97 1.97 0 0 0 .557 1.423c.28.283.782.622 1.592.622h5.31c1.34 0 2.092-1.001 2.141-2.003.03-.751.111-1.061.222-1.417.157-.495.667-1.083 1.447-1.691l1.95-1.34c1.848-1.445 3.222-2.552 3.926-3.558 1.346-1.829 2.028-3.866 2.028-6.042-.012-3.824-1.411-6.772-4.162-8.759zM43.351 51.158c-3.209 0-5.613 2.34-5.708 5.563-.089 3.233 2.305 5.744 5.572 5.838l.212.009c3.281 0 5.646-2.267 5.753-5.514.088-3.32-2.283-5.797-5.829-5.896zm.076 9.891zM74.004 50c-13.232 0-24 10.766-24 23.994 0 13.241 10.76 24.006 24 24.006C87.236 98 98 87.235 98 73.994 98 60.766 87.236 50 74.004 50zm17.294 14.002h-3.782c-.719-2.604-1.703-4.941-2.918-6.926a20.266 20.266 0 0 1 6.7 6.926zm-6.47 9.992a34.43 34.43 0 0 1-.521 5.998h-8.312v-12h8.312c.341 1.914.521 3.93.521 6.002zm-21.658 0c0-2.072.185-4.088.52-5.99h8.315v12.004H63.69c-.335-1.91-.52-3.93-.52-6.014zm8.828-19.619v9.627h-7.313c1.575-4.892 4.231-8.516 7.313-9.627zm0 29.623v9.623c-3.082-1.115-5.738-4.728-7.313-9.623h7.313zm4.004 9.63v-9.626h7.313c-1.575 4.883-4.235 8.514-7.313 9.626zm0-29.626v-9.627c3.082 1.111 5.746 4.735 7.313 9.627h-7.313zm-12.598-6.926c-1.208 1.984-2.201 4.338-2.923 6.926h-3.778a20.315 20.315 0 0 1 6.701-6.926zm-8.482 10.928h4.716a39.314 39.314 0 0 0-.47 5.99c0 2.084.172 4.088.47 5.998h-4.716a19.986 19.986 0 0 1 0-11.988zm1.783 15.994h3.779c.719 2.6 1.711 4.944 2.918 6.924a20.147 20.147 0 0 1-6.697-6.924zm27.899 6.924c1.207-1.98 2.193-4.32 2.916-6.921h3.778a20.165 20.165 0 0 1-6.694 6.921zM93.078 80h-4.72c.303-1.918.474-3.914.474-5.994a38.87 38.87 0 0 0-.474-5.994h4.72a19.818 19.818 0 0 1 0 11.988z"/></svg><svg width="100" height="100" viewBox="0 0 100 100" id="common-description-red-hover" x="900" y="900" xmlns="http://www.w3.org/2000/svg"><path fill="#63211C" d="M44.045 74.803H13.203V13.2h61.598v30.842c3.979.102 7.746.961 11.198 2.469V7.601A5.613 5.613 0 0 0 80.396 2H7.604C4.905 2 2.641 3.933 2.116 6.475A5.165 5.165 0 0 0 2 7.601v72.802c0 3.08 2.523 5.599 5.601 5.599h38.904a30.004 30.004 0 0 1-2.46-11.199z"/><path fill="#63211C" d="M53.354 22.262c-2.605-1.877-5.877-2.829-9.742-2.829-2.988 0-5.565.684-7.645 2.03-3.363 2.133-5.181 5.736-5.39 10.722l-.072 1.558h9.885v-1.497c0-1.022.299-1.993.91-2.976.303-.477.899-1.118 2.609-1.118.916 0 2.12.149 2.607.844.521.735.775 1.519.775 2.4 0 .539-.275 1.169-.884 2.007a4.28 4.28 0 0 1-.937.979c-.161.102-3.905 2.514-5.653 4.564-1.31 1.534-1.381 3.627-1.474 6.081a1.97 1.97 0 0 0 .557 1.423c.28.283.782.622 1.592.622h5.31c1.34 0 2.092-1.001 2.141-2.003.03-.751.111-1.061.222-1.417.157-.495.667-1.083 1.447-1.691l1.95-1.34c1.848-1.445 3.222-2.552 3.926-3.558 1.346-1.829 2.028-3.866 2.028-6.042-.012-3.824-1.411-6.772-4.162-8.759zM43.351 51.158c-3.209 0-5.613 2.34-5.708 5.563-.089 3.233 2.305 5.744 5.572 5.838l.212.009c3.281 0 5.646-2.267 5.753-5.514.088-3.32-2.283-5.797-5.829-5.896zm.076 9.891zM74.004 50c-13.232 0-24 10.766-24 23.994 0 13.241 10.76 24.006 24 24.006C87.236 98 98 87.235 98 73.994 98 60.766 87.236 50 74.004 50zm17.294 14.002h-3.782c-.719-2.604-1.703-4.941-2.918-6.926a20.266 20.266 0 0 1 6.7 6.926zm-6.47 9.992a34.43 34.43 0 0 1-.521 5.998h-8.312v-12h8.312c.341 1.914.521 3.93.521 6.002zm-21.658 0c0-2.072.185-4.088.52-5.99h8.315v12.004H63.69c-.335-1.91-.52-3.93-.52-6.014zm8.828-19.619v9.627h-7.313c1.575-4.892 4.231-8.516 7.313-9.627zm0 29.623v9.623c-3.082-1.115-5.738-4.728-7.313-9.623h7.313zm4.004 9.63v-9.626h7.313c-1.575 4.883-4.235 8.514-7.313 9.626zm0-29.626v-9.627c3.082 1.111 5.746 4.735 7.313 9.627h-7.313zm-12.598-6.926c-1.208 1.984-2.201 4.338-2.923 6.926h-3.778a20.315 20.315 0 0 1 6.701-6.926zm-8.482 10.928h4.716a39.314 39.314 0 0 0-.47 5.99c0 2.084.172 4.088.47 5.998h-4.716a19.986 19.986 0 0 1 0-11.988zm1.783 15.994h3.779c.719 2.6 1.711 4.944 2.918 6.924a20.147 20.147 0 0 1-6.697-6.924zm27.899 6.924c1.207-1.98 2.193-4.32 2.916-6.921h3.778a20.165 20.165 0 0 1-6.694 6.921zM93.078 80h-4.72c.303-1.918.474-3.914.474-5.994a38.87 38.87 0 0 0-.474-5.994h4.72a19.818 19.818 0 0 1 0 11.988z"/></svg><svg width="100" height="100" viewBox="0 0 100 100" id="common-description-teal" x="1000" y="1000" xmlns="http://www.w3.org/2000/svg"><path fill="#38A2A0" d="M44.045 74.803H13.203V13.2h61.598v30.842c3.979.102 7.746.961 11.198 2.469V7.601A5.613 5.613 0 0 0 80.396 2H7.604C4.905 2 2.641 3.933 2.116 6.475A5.165 5.165 0 0 0 2 7.601v72.802c0 3.08 2.523 5.599 5.601 5.599h38.904a30.004 30.004 0 0 1-2.46-11.199z"/><path fill="#38A2A0" d="M53.354 22.262c-2.605-1.877-5.877-2.829-9.742-2.829-2.988 0-5.565.684-7.645 2.03-3.363 2.133-5.181 5.736-5.39 10.722l-.072 1.558h9.885v-1.497c0-1.022.299-1.993.91-2.976.303-.477.899-1.118 2.609-1.118.916 0 2.12.149 2.607.844.521.735.775 1.519.775 2.4 0 .539-.275 1.169-.884 2.007a4.28 4.28 0 0 1-.937.979c-.161.102-3.905 2.514-5.653 4.564-1.31 1.534-1.381 3.627-1.474 6.081a1.97 1.97 0 0 0 .557 1.423c.28.283.782.622 1.592.622h5.31c1.34 0 2.092-1.001 2.141-2.003.03-.751.111-1.061.222-1.417.157-.495.667-1.083 1.447-1.691l1.95-1.34c1.848-1.445 3.222-2.552 3.926-3.558 1.346-1.829 2.028-3.866 2.028-6.042-.012-3.824-1.411-6.772-4.162-8.759zM43.351 51.158c-3.209 0-5.613 2.34-5.708 5.563-.089 3.233 2.305 5.744 5.572 5.838l.212.009c3.281 0 5.646-2.267 5.753-5.514.088-3.32-2.283-5.797-5.829-5.896zm.076 9.891zM74.004 50c-13.232 0-24 10.766-24 23.994 0 13.241 10.76 24.006 24 24.006C87.236 98 98 87.235 98 73.994 98 60.766 87.236 50 74.004 50zm17.294 14.002h-3.782c-.719-2.604-1.703-4.941-2.918-6.926a20.266 20.266 0 0 1 6.7 6.926zm-6.47 9.992a34.43 34.43 0 0 1-.521 5.998h-8.312v-12h8.312c.341 1.914.521 3.93.521 6.002zm-21.658 0c0-2.072.185-4.088.52-5.99h8.315v12.004H63.69c-.335-1.91-.52-3.93-.52-6.014zm8.828-19.619v9.627h-7.313c1.575-4.892 4.231-8.516 7.313-9.627zm0 29.623v9.623c-3.082-1.115-5.738-4.728-7.313-9.623h7.313zm4.004 9.63v-9.626h7.313c-1.575 4.883-4.235 8.514-7.313 9.626zm0-29.626v-9.627c3.082 1.111 5.746 4.735 7.313 9.627h-7.313zm-12.598-6.926c-1.208 1.984-2.201 4.338-2.923 6.926h-3.778a20.315 20.315 0 0 1 6.701-6.926zm-8.482 10.928h4.716a39.314 39.314 0 0 0-.47 5.99c0 2.084.172 4.088.47 5.998h-4.716a19.986 19.986 0 0 1 0-11.988zm1.783 15.994h3.779c.719 2.6 1.711 4.944 2.918 6.924a20.147 20.147 0 0 1-6.697-6.924zm27.899 6.924c1.207-1.98 2.193-4.32 2.916-6.921h3.778a20.165 20.165 0 0 1-6.694 6.921zM93.078 80h-4.72c.303-1.918.474-3.914.474-5.994a38.87 38.87 0 0 0-.474-5.994h4.72a19.818 19.818 0 0 1 0 11.988z"/></svg><svg width="100" height="100" viewBox="0 0 100 100" id="common-description-teal-hover" x="1100" y="1100" xmlns="http://www.w3.org/2000/svg"><path fill="#1F605F" d="M44.045 74.803H13.203V13.2h61.598v30.842c3.979.102 7.746.961 11.198 2.469V7.601A5.613 5.613 0 0 0 80.396 2H7.604C4.905 2 2.641 3.933 2.116 6.475A5.165 5.165 0 0 0 2 7.601v72.802c0 3.08 2.523 5.599 5.601 5.599h38.904a30.004 30.004 0 0 1-2.46-11.199z"/><path fill="#1F605F" d="M53.354 22.262c-2.605-1.877-5.877-2.829-9.742-2.829-2.988 0-5.565.684-7.645 2.03-3.363 2.133-5.181 5.736-5.39 10.722l-.072 1.558h9.885v-1.497c0-1.022.299-1.993.91-2.976.303-.477.899-1.118 2.609-1.118.916 0 2.12.149 2.607.844.521.735.775 1.519.775 2.4 0 .539-.275 1.169-.884 2.007a4.28 4.28 0 0 1-.937.979c-.161.102-3.905 2.514-5.653 4.564-1.31 1.534-1.381 3.627-1.474 6.081a1.97 1.97 0 0 0 .557 1.423c.28.283.782.622 1.592.622h5.31c1.34 0 2.092-1.001 2.141-2.003.03-.751.111-1.061.222-1.417.157-.495.667-1.083 1.447-1.691l1.95-1.34c1.848-1.445 3.222-2.552 3.926-3.558 1.346-1.829 2.028-3.866 2.028-6.042-.012-3.824-1.411-6.772-4.162-8.759zM43.351 51.158c-3.209 0-5.613 2.34-5.708 5.563-.089 3.233 2.305 5.744 5.572 5.838l.212.009c3.281 0 5.646-2.267 5.753-5.514.088-3.32-2.283-5.797-5.829-5.896zm.076 9.891zM74.004 50c-13.232 0-24 10.766-24 23.994 0 13.241 10.76 24.006 24 24.006C87.236 98 98 87.235 98 73.994 98 60.766 87.236 50 74.004 50zm17.294 14.002h-3.782c-.719-2.604-1.703-4.941-2.918-6.926a20.266 20.266 0 0 1 6.7 6.926zm-6.47 9.992a34.43 34.43 0 0 1-.521 5.998h-8.312v-12h8.312c.341 1.914.521 3.93.521 6.002zm-21.658 0c0-2.072.185-4.088.52-5.99h8.315v12.004H63.69c-.335-1.91-.52-3.93-.52-6.014zm8.828-19.619v9.627h-7.313c1.575-4.892 4.231-8.516 7.313-9.627zm0 29.623v9.623c-3.082-1.115-5.738-4.728-7.313-9.623h7.313zm4.004 9.63v-9.626h7.313c-1.575 4.883-4.235 8.514-7.313 9.626zm0-29.626v-9.627c3.082 1.111 5.746 4.735 7.313 9.627h-7.313zm-12.598-6.926c-1.208 1.984-2.201 4.338-2.923 6.926h-3.778a20.315 20.315 0 0 1 6.701-6.926zm-8.482 10.928h4.716a39.314 39.314 0 0 0-.47 5.99c0 2.084.172 4.088.47 5.998h-4.716a19.986 19.986 0 0 1 0-11.988zm1.783 15.994h3.779c.719 2.6 1.711 4.944 2.918 6.924a20.147 20.147 0 0 1-6.697-6.924zm27.899 6.924c1.207-1.98 2.193-4.32 2.916-6.921h3.778a20.165 20.165 0 0 1-6.694 6.921zM93.078 80h-4.72c.303-1.918.474-3.914.474-5.994a38.87 38.87 0 0 0-.474-5.994h4.72a19.818 19.818 0 0 1 0 11.988z"/></svg><svg width="100" height="100" viewBox="0 0 100 100" id="delete" x="1200" y="1200" xmlns="http://www.w3.org/2000/svg"><path fill="#555" d="M83.621 2.922L50 36.542 16.373 2.922a3.2 3.2 0 0 0-4.478 0l-8.972 8.979c-1.23 1.219-1.23 3.24 0 4.479L36.55 50.004 2.923 83.629c-1.23 1.229-1.23 3.246 0 4.489l8.972 8.968c1.232 1.219 3.252 1.219 4.478 0L50 63.455l33.622 33.621c1.234 1.218 3.251 1.218 4.479 0l8.973-8.967c1.234-1.23 1.234-3.251 0-4.49l-33.627-33.62 33.627-33.62a3.184 3.184 0 0 0 0-4.489l-8.973-8.974a3.19 3.19 0 0 0-4.48.006z"/></svg><svg width="100" height="100" viewBox="0 0 100 100" id="delete-disabled" x="1300" y="1300" xmlns="http://www.w3.org/2000/svg"><path fill="#C1C1C1" d="M83.621 2.922L50 36.542 16.373 2.922a3.2 3.2 0 0 0-4.478 0l-8.972 8.979c-1.23 1.219-1.23 3.24 0 4.479L36.55 50.004 2.923 83.629c-1.23 1.229-1.23 3.246 0 4.489l8.972 8.968c1.232 1.219 3.252 1.219 4.478 0L50 63.455l33.622 33.621c1.234 1.218 3.251 1.218 4.479 0l8.973-8.967c1.234-1.23 1.234-3.251 0-4.49l-33.627-33.62 33.627-33.62a3.184 3.184 0 0 0 0-4.489l-8.973-8.974a3.19 3.19 0 0 0-4.48.006z"/></svg><svg width="100" height="100" viewBox="0 0 100 100" id="delete-hover" x="1400" y="1400" xmlns="http://www.w3.org/2000/svg"><path fill="#222" d="M83.622 2.922L50 36.542 16.373 2.922a3.202 3.202 0 0 0-4.479 0l-8.971 8.979c-1.231 1.219-1.231 3.24 0 4.479L36.55 50.004 2.923 83.629c-1.231 1.229-1.231 3.246 0 4.489l8.971 8.968c1.231 1.219 3.251 1.219 4.479 0L50 63.455l33.623 33.621c1.234 1.218 3.25 1.218 4.479 0l8.974-8.967c1.233-1.23 1.233-3.252 0-4.49l-33.628-33.62 33.628-33.62a3.186 3.186 0 0 0 0-4.489l-8.974-8.974a3.19 3.19 0 0 0-4.48.006z"/></svg><svg width="100" height="100" viewBox="0 0 100 100" id="delete2" x="1500" y="1500" xmlns="http://www.w3.org/2000/svg"><path fill="#D84A55" d="M83.621 2.922L50 36.542 16.373 2.922a3.2 3.2 0 0 0-4.478 0l-8.972 8.979c-1.23 1.219-1.23 3.24 0 4.479L36.55 50.004 2.923 83.629c-1.23 1.229-1.23 3.246 0 4.489l8.972 8.968c1.232 1.219 3.252 1.219 4.478 0L50 63.455l33.622 33.621c1.234 1.218 3.251 1.218 4.479 0l8.973-8.967c1.234-1.23 1.234-3.251 0-4.49l-33.627-33.62 33.627-33.62a3.184 3.184 0 0 0 0-4.489l-8.973-8.974a3.19 3.19 0 0 0-4.48.006z"/></svg><svg width="100" height="100" viewBox="0 0 100 100" id="delete2-disabled" x="1600" y="1600" xmlns="http://www.w3.org/2000/svg"><path fill="#C1C1C1" d="M83.621 2.922L50 36.542 16.373 2.922a3.2 3.2 0 0 0-4.478 0l-8.972 8.979c-1.23 1.219-1.23 3.24 0 4.479L36.55 50.004 2.923 83.629c-1.23 1.229-1.23 3.246 0 4.489l8.972 8.968c1.232 1.219 3.252 1.219 4.478 0L50 63.455l33.622 33.621c1.234 1.218 3.251 1.218 4.479 0l8.973-8.967c1.234-1.23 1.234-3.251 0-4.49l-33.627-33.62 33.627-33.62a3.184 3.184 0 0 0 0-4.489l-8.973-8.974a3.19 3.19 0 0 0-4.48.006z"/></svg><svg width="100" height="100" viewBox="0 0 100 100" id="delete2-hover" x="1700" y="1700" xmlns="http://www.w3.org/2000/svg"><path fill="#C00" d="M83.621 2.922L50 36.542 16.373 2.922a3.2 3.2 0 0 0-4.478 0l-8.972 8.979c-1.23 1.219-1.23 3.24 0 4.479L36.55 50.004 2.923 83.629c-1.23 1.229-1.23 3.246 0 4.489l8.972 8.968c1.232 1.219 3.252 1.219 4.478 0L50 63.455l33.622 33.621c1.234 1.218 3.251 1.218 4.479 0l8.973-8.967c1.234-1.23 1.234-3.251 0-4.49l-33.627-33.62 33.627-33.62a3.184 3.184 0 0 0 0-4.489l-8.973-8.974a3.19 3.19 0 0 0-4.48.006z"/></svg><svg width="10" height="10" viewBox="0 0 10 10" id="descending" x="1800" y="1800" xmlns="http://www.w3.org/2000/svg"><title>keyboard_arrow_down</title><title>keyboard_arrow_up</title><path fill="#828282" d="M6 7.5h3.999v2H6zM3.002 4H10v2H3.002zM.002.5H10v1.999H.002z"/></svg><svg width="16" height="16" viewBox="-0.5 42.5 16 16" id="down-btn" x="1810" y="1810" xmlns="http://www.w3.org/2000/svg"><title>arrow-up</title><path d="M2.613 51.273c-.151.151-.151.356.001.51l4.632 4.631c.019.019.03.029.034.035l.092.044c.12.012.19.007.247-.006a.798.798 0 0 1 .125-.071l4.643-4.634c.152-.152.152-.357 0-.511a.35.35 0 0 0-.508.002l-4.011 4.012V44.867c0-.241-.126-.367-.367-.367s-.367.126-.367.367v10.418l-4.012-4.014c-.136-.132-.35-.159-.509.002z"/></svg><svg width="16" height="16" viewBox="-4.5 38.5 16 16" id="down-btn-disabled" x="1826" y="1826" xmlns="http://www.w3.org/2000/svg"><title>arrow-up</title><path fill="#BCBCBC" d="M-1.387 47.273c-.151.15-.151.355.001.51l4.631 4.631c.019.02.03.029.034.035l.092.044c.12.012.19.007.247-.007a.778.778 0 0 1 .125-.07l4.642-4.634c.152-.152.152-.357 0-.511a.349.349 0 0 0-.508.002l-4.01 4.012V40.867c0-.241-.126-.367-.367-.367s-.367.126-.367.367v10.418l-4.011-4.014c-.136-.132-.35-.16-.509.002z"/></svg><svg width="100" height="100" viewBox="0 0 100 100" id="down-circle" x="1842" y="1842" xmlns="http://www.w3.org/2000/svg"><path fill="#555" d="M50 2C23.407 2 2 23.398 2 50s21.407 48 48 48c26.59 0 48-21.398 48-48S76.59 2 50 2zm27.693 41.45l-28.01 27.826-.302-.299-27.377-27.574 6.428-6.422.305.31 20.958 21.135 21.891-21.704 6.415 6.422-.308.306z"/></svg><svg width="100" height="100" viewBox="0 0 100 100" id="download" x="1942" y="1942" xmlns="http://www.w3.org/2000/svg"><g fill="#3F5CA9"><path d="M85.771 66.343a5.522 5.522 0 0 0-5.514 5.515v15.121H19.743V71.857a5.523 5.523 0 0 0-5.518-5.515 5.519 5.519 0 0 0-5.509 5.515v20.635c0 2.478 1.719 4.64 4.164 5.251l.188.054c.33.095.705.203 1.157.203h71.54a5.521 5.521 0 0 0 5.518-5.515l.002-20.628a5.521 5.521 0 0 0-5.514-5.514z"/><path d="M23.843 57.004l22.13 19.674c.279.244.557.4.851.567l.182.104c.165.111.414.281.794.427.761.286 1.484.425 2.209.425.77 0 1.53-.15 2.26-.448.313-.127.553-.282.829-.461l.084-.055c.211-.11.529-.276.879-.574l22.111-19.659c2.498-2.227 2.722-6.081.497-8.592-1.121-1.265-2.792-1.991-4.586-1.991-1.525 0-2.953.527-4.019 1.483L56.098 58.545V8.093A6.1 6.1 0 0 0 50.004 2a6.1 6.1 0 0 0-6.094 6.093V58.54L31.942 47.898c-1.076-.956-2.504-1.482-4.023-1.482-1.791 0-3.461.727-4.579 1.99a6.049 6.049 0 0 0-1.532 4.414 6.003 6.003 0 0 0 2.035 4.184z"/></g></svg><svg width="100" height="100" viewBox="0 0 100 100" id="download-disabled" x="2042" y="2042" xmlns="http://www.w3.org/2000/svg"><g fill="#C1C1C1"><path d="M85.771 66.343a5.522 5.522 0 0 0-5.514 5.515v15.121H19.743V71.857a5.523 5.523 0 0 0-5.518-5.515 5.519 5.519 0 0 0-5.509 5.515v20.635c0 2.478 1.719 4.64 4.164 5.251l.188.054c.33.095.705.203 1.157.203h71.54a5.521 5.521 0 0 0 5.518-5.515l.002-20.628a5.521 5.521 0 0 0-5.514-5.514z"/><path d="M23.843 57.004l22.13 19.674c.279.244.557.4.851.567l.182.104c.165.111.414.281.794.427.761.286 1.484.425 2.209.425.77 0 1.53-.15 2.26-.448.313-.127.553-.282.829-.461l.084-.055c.211-.11.529-.276.879-.574l22.111-19.659c2.498-2.227 2.722-6.081.497-8.592-1.121-1.265-2.792-1.991-4.586-1.991-1.525 0-2.953.527-4.019 1.483L56.098 58.545V8.093A6.1 6.1 0 0 0 50.004 2a6.1 6.1 0 0 0-6.094 6.093V58.54L31.942 47.898c-1.076-.956-2.504-1.482-4.023-1.482-1.791 0-3.461.727-4.579 1.99a6.049 6.049 0 0 0-1.532 4.414 6.003 6.003 0 0 0 2.035 4.184z"/></g></svg><svg width="100" height="100" viewBox="0 0 100 100" id="download-hover" x="2142" y="2142" xmlns="http://www.w3.org/2000/svg"><g fill="#284877"><path d="M85.771 66.343a5.522 5.522 0 0 0-5.514 5.515v15.121H19.743V71.857a5.523 5.523 0 0 0-5.517-5.515 5.519 5.519 0 0 0-5.509 5.515v20.634c0 2.479 1.72 4.641 4.161 5.251l.185.052c.332.097.708.206 1.162.206h71.542a5.521 5.521 0 0 0 5.516-5.516V71.857a5.52 5.52 0 0 0-5.512-5.514z"/><path d="M23.843 57.006l22.13 19.672c.283.248.567.406.867.576l.16.089c.165.113.414.284.799.434.764.286 1.486.425 2.209.425a5.94 5.94 0 0 0 2.259-.449c.312-.126.55-.28.824-.458l.078-.051c.213-.111.534-.278.892-.581l22.11-19.658c2.497-2.226 2.722-6.08.497-8.593-1.121-1.265-2.793-1.99-4.587-1.99-1.524 0-2.952.527-4.019 1.483L56.098 58.544V8.094A6.101 6.101 0 0 0 50.004 2a6.101 6.101 0 0 0-6.094 6.094v50.445L31.941 47.898c-1.075-.956-2.503-1.481-4.022-1.481-1.791 0-3.461.727-4.58 1.99a6.045 6.045 0 0 0-1.531 4.414 6.013 6.013 0 0 0 2.035 4.185z"/></g></svg><svg width="100" height="100" viewBox="0 0 100 100" id="edit" x="2242" y="2242" xmlns="http://www.w3.org/2000/svg"><path fill="#3280B7" d="M96.5 29.701l-4.905 4.92L76.21 19.245l4.919-4.919c.992-.993 2.205-1.49 3.631-1.49 1.422 0 2.632.509 3.638 1.49l8.112 8.117c.986 1.002 1.49 2.206 1.49 3.637-.005 1.415-.514 2.624-1.5 3.621zM72.787 22.66L36.915 58.548v15.374h15.38l35.876-35.881L72.787 22.66zM50.158 68.8h-2.989v-5.122h-5.128v-2.985l6.195-6.213 8.104 8.117-6.182 6.203zm4.75-17.996c-.613.609-1.201.634-1.77.062-.563-.567-.541-1.16.063-1.781l18.682-18.676c.611-.607 1.188-.628 1.762-.064.572.572.552 1.161-.046 1.772L54.908 50.804z"/><path fill="#3280B7" d="M78.076 60.541l-7.747 7.751v3.913c.011 2.166-.74 3.957-2.289 5.506-1.54 1.54-3.347 2.29-5.508 2.29h-44.42c-2.163 0-3.961-.75-5.496-2.29-1.542-1.554-2.29-3.345-2.29-5.506V27.776c-.005-2.156.743-3.947 2.29-5.507 1.514-1.52 3.366-2.29 5.496-2.29h44.42c.149 0 .312.049.464.061l6.598-6.603c-.162-.128-.291-.291-.489-.385-1.997-.933-4.203-1.407-6.562-1.407H18.122c-4.43 0-8.265 1.594-11.399 4.742C3.587 19.536 2 23.365 2 27.787v44.428c-.005 4.421 1.581 8.261 4.725 11.397 3.133 3.148 6.967 4.742 11.398 4.742h44.42c4.412 0 8.25-1.594 11.398-4.742 3.139-3.146 4.736-6.977 4.736-11.397V62.08c.001-.622-.236-1.124-.601-1.539z"/></svg><svg width="100" height="100" viewBox="0 0 100 100" id="edit-disabled" x="2342" y="2342" xmlns="http://www.w3.org/2000/svg"><path fill="#C1C1C1" d="M96.5 29.701l-4.905 4.92L76.21 19.245l4.919-4.919c.992-.993 2.205-1.49 3.631-1.49 1.422 0 2.632.509 3.638 1.49l8.112 8.117c.986 1.002 1.49 2.206 1.49 3.637-.005 1.415-.514 2.624-1.5 3.621zM72.787 22.66L36.915 58.548v15.374h15.38l35.876-35.881L72.787 22.66zM50.158 68.8h-2.989v-5.122h-5.128v-2.985l6.195-6.213 8.104 8.117-6.182 6.203zm4.75-17.996c-.613.609-1.201.634-1.77.062-.563-.567-.541-1.16.063-1.781l18.682-18.676c.611-.607 1.188-.628 1.762-.064.572.572.552 1.161-.046 1.772L54.908 50.804z"/><path fill="#C1C1C1" d="M78.076 60.541l-7.747 7.751v3.913c.011 2.166-.74 3.957-2.289 5.506-1.54 1.54-3.347 2.29-5.508 2.29h-44.42c-2.163 0-3.961-.75-5.496-2.29-1.542-1.554-2.29-3.345-2.29-5.506V27.776c-.005-2.156.743-3.947 2.29-5.507 1.514-1.52 3.366-2.29 5.496-2.29h44.42c.149 0 .312.049.464.061l6.598-6.603c-.162-.128-.291-.291-.489-.385-1.997-.933-4.203-1.407-6.562-1.407H18.122c-4.43 0-8.265 1.594-11.399 4.742C3.587 19.536 2 23.365 2 27.787v44.428c-.005 4.421 1.581 8.261 4.725 11.397 3.133 3.148 6.967 4.742 11.398 4.742h44.42c4.412 0 8.25-1.594 11.398-4.742 3.139-3.146 4.736-6.977 4.736-11.397V62.08c.001-.622-.236-1.124-.601-1.539z"/></svg><svg width="100" height="100" viewBox="0 0 100 100" id="edit-hover" x="2442" y="2442" xmlns="http://www.w3.org/2000/svg"><path fill="#0F5D8A" d="M96.5 29.701l-4.905 4.92L76.21 19.245l4.919-4.919c.992-.993 2.205-1.49 3.631-1.49 1.422 0 2.632.509 3.638 1.49l8.112 8.117c.986 1.002 1.49 2.206 1.49 3.637-.005 1.415-.514 2.624-1.5 3.621zM72.787 22.66L36.915 58.548v15.374h15.38l35.876-35.881L72.787 22.66zM50.158 68.8h-2.989v-5.122h-5.128v-2.985l6.195-6.213 8.104 8.117-6.182 6.203zm4.75-17.996c-.613.609-1.201.634-1.77.062-.563-.567-.541-1.16.063-1.781l18.682-18.676c.611-.607 1.188-.628 1.762-.064.572.572.552 1.161-.046 1.772L54.908 50.804z"/><path fill="#0F5D8A" d="M78.076 60.541l-7.747 7.751v3.913c.011 2.166-.74 3.957-2.289 5.506-1.54 1.54-3.347 2.29-5.508 2.29h-44.42c-2.163 0-3.961-.75-5.496-2.29-1.542-1.554-2.29-3.345-2.29-5.506V27.776c-.005-2.156.743-3.947 2.29-5.507 1.514-1.52 3.366-2.29 5.496-2.29h44.42c.149 0 .312.049.464.061l6.598-6.603c-.162-.128-.291-.291-.489-.385-1.997-.933-4.203-1.407-6.562-1.407H18.122c-4.43 0-8.265 1.594-11.399 4.742C3.587 19.536 2 23.365 2 27.787v44.428c-.005 4.421 1.581 8.261 4.725 11.397 3.133 3.148 6.967 4.742 11.398 4.742h44.42c4.412 0 8.25-1.594 11.398-4.742 3.139-3.146 4.736-6.977 4.736-11.397V62.08c.001-.622-.236-1.124-.601-1.539z"/></svg><svg width="100" height="100" viewBox="0 0 100 100" id="error" x="2542" y="2542" xmlns="http://www.w3.org/2000/svg"><path fill="#FFF" d="M98 82.235L82.235 98 50 65.75 17.75 98 2 82.235 34.257 50 2 17.76 17.75 2 50 34.245 82.235 2 98 17.74 65.755 50 98 82.235z"/></svg><svg width="100" height="100" viewBox="0 0 100 100" id="exclamation" x="2642" y="2642" xmlns="http://www.w3.org/2000/svg"><path fill="#FFF" d="M63.364 78.954v15.592c0 2.436-2.019 4.454-4.455 4.454H41.091c-2.436 0-4.455-2.019-4.455-4.454V78.954c0-2.436 2.019-4.454 4.455-4.454h17.818c2.437 0 4.455 2.019 4.455 4.454zm2.088-73.499L63.503 58.91c-.071 2.436-2.157 4.454-4.594 4.454H41.091c-2.436 0-4.526-2.019-4.594-4.454L34.548 5.455A4.324 4.324 0 0 1 38.864 1h22.273c2.436 0 4.383 2.019 4.315 4.455z"/></svg></svg>