<?xml version="1.0" encoding="utf-8"?><!DOCTYPE svg PUBLIC "-//W3C//DTD SVG 1.1//EN" "http://www.w3.org/Graphics/SVG/1.1/DTD/svg11.dtd"><svg width="3300" height="3300" viewBox="0 0 3300 3300" xmlns="http://www.w3.org/2000/svg" xmlns:xlink="http://www.w3.org/1999/xlink"><svg width="100" height="100" viewBox="0 0 100 100" id="file-text" xmlns="http://www.w3.org/2000/svg"><path fill="#8F27AA" d="M85.082 2H14.919c-4.95 0-9.001 4.047-9.001 9v77.996C5.918 93.953 9.97 98 14.919 98h70.163c4.958 0 9-4.047 9-9.004V11c0-4.953-4.042-9-9-9zm0 87.267H14.919V10.729h70.163v78.538z"/><path fill="#8F27AA" d="M24.737 24.911h50.528v6.547H24.737zM24.737 39.447h50.528v6.551H24.737zM24.737 53.997h50.528v6.552H24.737zM24.737 68.549h50.528v6.542H24.737z"/></svg><svg width="100" height="100" viewBox="0 0 100 100" id="file-text-disabled" x="100" y="100" xmlns="http://www.w3.org/2000/svg"><path fill="#C1C1C1" d="M85.082 2H14.919c-4.95 0-9.001 4.047-9.001 9v77.996C5.918 93.953 9.97 98 14.919 98h70.163c4.958 0 9-4.047 9-9.004V11c0-4.953-4.042-9-9-9zm0 87.267H14.919V10.729h70.163v78.538z"/><path fill="#C1C1C1" d="M24.737 24.911h50.528v6.547H24.737zM24.737 39.447h50.528v6.551H24.737zM24.737 53.997h50.528v6.552H24.737zM24.737 68.549h50.528v6.542H24.737z"/></svg><svg width="100" height="100" viewBox="0 0 100 100" id="file-text-hover" x="200" y="200" xmlns="http://www.w3.org/2000/svg"><path fill="#7D1F9B" d="M85.082 2H14.919c-4.95 0-9.001 4.047-9.001 9v77.996C5.918 93.953 9.97 98 14.919 98h70.163c4.958 0 9-4.047 9-9.004V11c0-4.953-4.042-9-9-9zm0 87.267H14.919V10.729h70.163v78.538z"/><path fill="#7D1F9B" d="M24.737 24.911h50.528v6.547H24.737zM24.737 39.447h50.528v6.551H24.737zM24.737 53.997h50.528v6.552H24.737zM24.737 68.549h50.528v6.542H24.737z"/></svg><svg width="100" height="100" viewBox="-39.5 60.5 100 100" id="file-upload" x="300" y="300" xmlns="http://www.w3.org/2000/svg"><path fill="#282828" d="M13.096 148.395v-35.299l8.762 8.748 3.8-3.78L10.5 102.921l-15.158 15.143 3.789 3.78 8.771-8.748v35.299z"/><path fill="#282828" d="M51.315 85.651H12.521l-6.365-12.69-.163-.355h-36.328c-3.95 0-7.165 3.197-7.165 7.12v61.549c0 3.923 3.202 7.12 7.145 7.12h28.577v-4.51H-30.36a2.613 2.613 0 0 1-2.618-2.62V79.721a2.614 2.614 0 0 1 2.613-2.615H3.254l6.331 12.907.072.139h41.685c1.46 0 2.649 1.18 2.649 2.64v48.43a2.634 2.634 0 0 1-2.63 2.635H22.776v4.515h28.589c3.938 0 7.135-3.202 7.135-7.13V92.767c-.01-3.918-3.227-7.116-7.185-7.116z"/></svg><svg width="100" height="100" viewBox="-39.5 60.5 100 100" id="file-upload-disabled" x="400" y="400" xmlns="http://www.w3.org/2000/svg"><path fill="#BCBCBC" d="M13.096 148.395v-35.299l8.762 8.748 3.8-3.78L10.5 102.921l-15.158 15.143 3.789 3.78 8.771-8.748v35.299z"/><path fill="#BCBCBC" d="M51.315 85.651H12.521l-6.365-12.69-.163-.355h-36.328c-3.95 0-7.165 3.197-7.165 7.12v61.549c0 3.923 3.202 7.12 7.145 7.12h28.577v-4.51H-30.36a2.613 2.613 0 0 1-2.618-2.62V79.721a2.614 2.614 0 0 1 2.613-2.615H3.254l6.331 12.907.072.139h41.685c1.46 0 2.649 1.18 2.649 2.64v48.43a2.634 2.634 0 0 1-2.63 2.635H22.776v4.515h28.589c3.938 0 7.135-3.202 7.135-7.13V92.767c-.01-3.918-3.227-7.116-7.185-7.116z"/></svg><svg width="100" height="100" viewBox="0 0 100 100" id="floppy" x="500" y="500" xmlns="http://www.w3.org/2000/svg"><path fill="#2975A8" d="M44 69a5.002 5.002 0 1 0 10.004.006A5.002 5.002 0 0 0 44 69zM10 2c-4.421 0-8 3.579-8 8v80c0 4.422 3.579 8 8 8h80c4.422 0 8-3.578 8-8.001V21.844c0-2.682-1.058-5.063-2.762-6.782l-10.16-10.12a9.942 9.942 0 0 0-7.083-2.938H10V2zm6.401 10h5.598v15.599A4.388 4.388 0 0 0 26.4 32h5.2a4.386 4.386 0 0 0 4.401-4.401V12h37.598c2.442 0 4.4 1.958 4.4 4.401v19.197a4.388 4.388 0 0 1-4.4 4.401H16.401a4.384 4.384 0 0 1-4.401-4.4V16.401A4.39 4.39 0 0 1 16.401 12zM36 69c0-7.176 5.818-13 13.001-13 7.184 0 13.002 5.822 13.002 13 0 7.184-5.816 13.006-13.002 13.006C41.817 82.006 36 76.178 36 69z"/></svg><svg width="100" height="100" viewBox="0 0 100 100" id="floppy-disabled" x="600" y="600" xmlns="http://www.w3.org/2000/svg"><path fill="#C1C1C1" d="M44 69a5.002 5.002 0 1 0 10.004.006A5.002 5.002 0 0 0 44 69zM10 2c-4.421 0-8 3.579-8 8v80c0 4.422 3.579 8 8 8h80c4.422 0 8-3.578 8-8.001V21.844c0-2.682-1.058-5.063-2.762-6.782l-10.16-10.12a9.942 9.942 0 0 0-7.083-2.938H10V2zm6.401 10h5.598v15.599A4.388 4.388 0 0 0 26.4 32h5.2a4.386 4.386 0 0 0 4.401-4.401V12h37.598c2.442 0 4.4 1.958 4.4 4.401v19.197a4.388 4.388 0 0 1-4.4 4.401H16.401a4.384 4.384 0 0 1-4.401-4.4V16.401A4.39 4.39 0 0 1 16.401 12zM36 69c0-7.176 5.818-13 13.001-13 7.184 0 13.002 5.822 13.002 13 0 7.184-5.816 13.006-13.002 13.006C41.817 82.006 36 76.178 36 69z"/></svg><svg width="100" height="100" viewBox="0 0 100 100" id="floppy-hover" x="700" y="700" xmlns="http://www.w3.org/2000/svg"><path fill="#236490" d="M44 69a5.002 5.002 0 1 0 10.004.006A5.002 5.002 0 0 0 44 69zM10 2c-4.421 0-8 3.579-8 8v80c0 4.422 3.579 8 8 8h80c4.422 0 8-3.578 8-8.001V21.844c0-2.682-1.058-5.063-2.762-6.782l-10.16-10.12a9.942 9.942 0 0 0-7.083-2.938H10V2zm6.401 10h5.598v15.599A4.388 4.388 0 0 0 26.4 32h5.2a4.386 4.386 0 0 0 4.401-4.401V12h37.598c2.442 0 4.4 1.958 4.4 4.401v19.197a4.388 4.388 0 0 1-4.4 4.401H16.401a4.384 4.384 0 0 1-4.401-4.4V16.401A4.39 4.39 0 0 1 16.401 12zM36 69c0-7.176 5.818-13 13.001-13 7.184 0 13.002 5.822 13.002 13 0 7.184-5.816 13.006-13.002 13.006C41.817 82.006 36 76.178 36 69z"/></svg><svg width="100" height="100" viewBox="0 0 100 100" id="go-top" x="800" y="800" xmlns="http://www.w3.org/2000/svg"><title>keyboard_arrow_up</title><title>keyboard_arrow_up</title><title>go-top</title><path fill="#FFF" d="M93.443 89.671L53.84 32.058s-1.604-2.236-3.847-2.236c-2.239 0-3.833 2.236-3.833 2.236L6.543 89.671C3.508 94.25 5.75 98 11.555 98H88.43c5.82 0 8.062-3.75 5.013-8.329zM98 18.009V9.997C98 5.577 97.617 2 93.197 2H6.799C2.382 2 2 5.577 2 9.997v8.012C2 22.423 2.382 26 6.792 26h86.405C97.617 26 98 22.423 98 18.009z"/></svg><svg width="100" height="100" viewBox="0 0 100 100" id="help-blue" x="900" y="900" xmlns="http://www.w3.org/2000/svg"><path fill="#327CCB" d="M71.816 8.572C65.737 4.19 58.1 2 48.902 2 41.906 2 36 3.54 31.211 6.624c-7.616 4.835-11.657 13.046-12.147 24.617h17.635c0-3.375.99-6.612 2.951-9.74 1.969-3.134 5.31-4.698 10.02-4.698 4.789 0 8.095 1.273 9.891 3.799 1.803 2.545 2.705 5.359 2.705 8.438 0 2.694-1.343 5.151-2.965 7.382-.894 1.293-2.067 2.497-3.528 3.592 0 0-9.563 6.128-13.763 11.059-2.43 2.847-2.647 7.135-2.869 13.269-.005.444.161 1.353 1.683 1.353h13.708c1.369 0 1.654-1.011 1.665-1.462.1-2.229.347-3.374.751-4.666.769-2.438 2.872-4.56 5.225-6.4l4.846-3.347c4.388-3.419 7.881-6.212 9.43-8.413 2.635-3.607 4.49-8.059 4.49-13.338-.003-8.611-3.043-15.1-9.123-19.497zm-23.198 67.7c-6.08-.187-11.085 4.013-11.282 10.614-.188 6.588 4.577 10.929 10.655 11.107 6.341.187 11.223-3.868 11.425-10.47.173-6.592-4.447-11.072-10.798-11.251z"/></svg><svg width="100" height="100" viewBox="0 0 100 100" id="help-blue-hover" x="1000" y="1000" xmlns="http://www.w3.org/2000/svg"><path fill="#0B486B" d="M71.816 8.572C65.737 4.19 58.1 2 48.902 2 41.906 2 36 3.54 31.211 6.624c-7.616 4.835-11.657 13.046-12.147 24.617h17.635c0-3.375.99-6.612 2.951-9.74 1.969-3.134 5.31-4.698 10.02-4.698 4.789 0 8.095 1.273 9.891 3.799 1.803 2.545 2.705 5.359 2.705 8.438 0 2.694-1.343 5.151-2.965 7.382-.894 1.293-2.067 2.497-3.528 3.592 0 0-9.563 6.128-13.763 11.059-2.43 2.847-2.647 7.135-2.869 13.269-.005.444.161 1.353 1.683 1.353h13.708c1.369 0 1.654-1.011 1.665-1.462.1-2.229.347-3.374.751-4.666.769-2.438 2.872-4.56 5.225-6.4l4.846-3.347c4.388-3.419 7.881-6.212 9.43-8.413 2.635-3.607 4.49-8.059 4.49-13.338-.003-8.611-3.043-15.1-9.123-19.497zm-23.198 67.7c-6.08-.187-11.085 4.013-11.282 10.614-.188 6.588 4.577 10.929 10.655 11.107 6.341.187 11.223-3.868 11.425-10.47.173-6.592-4.447-11.072-10.798-11.251z"/></svg><svg width="100" height="100" viewBox="0 0 100 100" id="help-green" x="1100" y="1100" xmlns="http://www.w3.org/2000/svg"><path fill="#76A328" d="M71.816 8.572C65.737 4.19 58.1 2 48.902 2 41.906 2 36 3.54 31.211 6.624c-7.616 4.835-11.657 13.046-12.147 24.617h17.635c0-3.375.99-6.612 2.951-9.74 1.969-3.134 5.31-4.698 10.02-4.698 4.789 0 8.095 1.273 9.891 3.799 1.803 2.545 2.705 5.359 2.705 8.438 0 2.694-1.343 5.151-2.965 7.382-.894 1.293-2.067 2.497-3.528 3.592 0 0-9.563 6.128-13.763 11.059-2.43 2.847-2.647 7.135-2.869 13.269-.005.444.161 1.353 1.683 1.353h13.708c1.369 0 1.654-1.011 1.665-1.462.1-2.229.347-3.374.751-4.666.769-2.438 2.872-4.56 5.225-6.4l4.846-3.347c4.388-3.419 7.881-6.212 9.43-8.413 2.635-3.607 4.49-8.059 4.49-13.338-.003-8.611-3.043-15.1-9.123-19.497zm-23.198 67.7c-6.08-.187-11.085 4.013-11.282 10.614-.188 6.588 4.577 10.929 10.655 11.107 6.341.187 11.223-3.868 11.425-10.47.173-6.592-4.447-11.072-10.798-11.251z"/></svg><svg width="100" height="100" viewBox="0 0 100 100" id="help-green-hover" x="1200" y="1200" xmlns="http://www.w3.org/2000/svg"><path fill="#244805" d="M71.816 8.572C65.737 4.19 58.1 2 48.902 2 41.906 2 36 3.54 31.211 6.624c-7.616 4.835-11.657 13.046-12.147 24.617h17.635c0-3.375.99-6.612 2.951-9.74 1.969-3.134 5.31-4.698 10.02-4.698 4.789 0 8.095 1.273 9.891 3.799 1.803 2.545 2.705 5.359 2.705 8.438 0 2.694-1.343 5.151-2.965 7.382-.894 1.293-2.067 2.497-3.528 3.592 0 0-9.563 6.128-13.763 11.059-2.43 2.847-2.647 7.135-2.869 13.269-.005.444.161 1.353 1.683 1.353h13.708c1.369 0 1.654-1.011 1.665-1.462.1-2.229.347-3.374.751-4.666.769-2.438 2.872-4.56 5.225-6.4l4.846-3.347c4.388-3.419 7.881-6.212 9.43-8.413 2.635-3.607 4.49-8.059 4.49-13.338-.003-8.611-3.043-15.1-9.123-19.497zm-23.198 67.7c-6.08-.187-11.085 4.013-11.282 10.614-.188 6.588 4.577 10.929 10.655 11.107 6.341.187 11.223-3.868 11.425-10.47.173-6.592-4.447-11.072-10.798-11.251z"/></svg><svg width="100" height="100" viewBox="0 0 100 100" id="help-orange" x="1300" y="1300" xmlns="http://www.w3.org/2000/svg"><path fill="#E46E34" d="M71.816 8.572C65.737 4.19 58.1 2 48.902 2 41.906 2 36 3.54 31.211 6.624c-7.616 4.835-11.657 13.046-12.147 24.617h17.635c0-3.375.99-6.612 2.951-9.74 1.969-3.134 5.31-4.698 10.02-4.698 4.789 0 8.095 1.273 9.891 3.799 1.803 2.545 2.705 5.359 2.705 8.438 0 2.694-1.343 5.151-2.965 7.382-.894 1.293-2.067 2.497-3.528 3.592 0 0-9.563 6.128-13.763 11.059-2.43 2.847-2.647 7.135-2.869 13.269-.005.444.161 1.353 1.683 1.353h13.708c1.369 0 1.654-1.011 1.665-1.462.1-2.229.347-3.374.751-4.666.769-2.438 2.872-4.56 5.225-6.4l4.846-3.347c4.388-3.419 7.881-6.212 9.43-8.413 2.635-3.607 4.49-8.059 4.49-13.338-.003-8.611-3.043-15.1-9.123-19.497zm-23.198 67.7c-6.08-.187-11.085 4.013-11.282 10.614-.188 6.588 4.577 10.929 10.655 11.107 6.341.187 11.223-3.868 11.425-10.47.173-6.592-4.447-11.072-10.798-11.251z"/></svg><svg width="100" height="100" viewBox="0 0 100 100" id="help-orange-hover" x="1400" y="1400" xmlns="http://www.w3.org/2000/svg"><path fill="#AB4A08" d="M71.816 8.572C65.737 4.19 58.1 2 48.902 2 41.906 2 36 3.54 31.211 6.624c-7.616 4.835-11.657 13.046-12.147 24.617h17.635c0-3.375.99-6.612 2.951-9.74 1.969-3.134 5.31-4.698 10.02-4.698 4.789 0 8.095 1.273 9.891 3.799 1.803 2.545 2.705 5.359 2.705 8.438 0 2.694-1.343 5.151-2.965 7.382-.894 1.293-2.067 2.497-3.528 3.592 0 0-9.563 6.128-13.763 11.059-2.43 2.847-2.647 7.135-2.869 13.269-.005.444.161 1.353 1.683 1.353h13.708c1.369 0 1.654-1.011 1.665-1.462.1-2.229.347-3.374.751-4.666.769-2.438 2.872-4.56 5.225-6.4l4.846-3.347c4.388-3.419 7.881-6.212 9.43-8.413 2.635-3.607 4.49-8.059 4.49-13.338-.003-8.611-3.043-15.1-9.123-19.497zm-23.198 67.7c-6.08-.187-11.085 4.013-11.282 10.614-.188 6.588 4.577 10.929 10.655 11.107 6.341.187 11.223-3.868 11.425-10.47.173-6.592-4.447-11.072-10.798-11.251z"/></svg><svg width="100" height="100" viewBox="0 0 100 100" id="help-purple" x="1500" y="1500" xmlns="http://www.w3.org/2000/svg"><path fill="#B360BA" d="M71.816 8.572C65.737 4.19 58.1 2 48.902 2 41.906 2 36 3.54 31.211 6.624c-7.616 4.835-11.657 13.046-12.147 24.617h17.635c0-3.375.99-6.612 2.951-9.74 1.969-3.134 5.31-4.698 10.02-4.698 4.789 0 8.095 1.273 9.891 3.799 1.803 2.545 2.705 5.359 2.705 8.438 0 2.694-1.343 5.151-2.965 7.382-.894 1.293-2.067 2.497-3.528 3.592 0 0-9.563 6.128-13.763 11.059-2.43 2.847-2.647 7.135-2.869 13.269-.005.444.161 1.353 1.683 1.353h13.708c1.369 0 1.654-1.011 1.665-1.462.1-2.229.347-3.374.751-4.666.769-2.438 2.872-4.56 5.225-6.4l4.846-3.347c4.388-3.419 7.881-6.212 9.43-8.413 2.635-3.607 4.49-8.059 4.49-13.338-.003-8.611-3.043-15.1-9.123-19.497zm-23.198 67.7c-6.08-.187-11.085 4.013-11.282 10.614-.188 6.588 4.577 10.929 10.655 11.107 6.341.187 11.223-3.868 11.425-10.47.173-6.592-4.447-11.072-10.798-11.251z"/></svg><svg width="100" height="100" viewBox="0 0 100 100" id="help-purple-hover" x="1600" y="1600" xmlns="http://www.w3.org/2000/svg"><path fill="#663267" d="M71.816 8.572C65.737 4.19 58.1 2 48.902 2 41.906 2 36 3.54 31.211 6.624c-7.616 4.835-11.657 13.046-12.147 24.617h17.635c0-3.375.99-6.612 2.951-9.74 1.969-3.134 5.31-4.698 10.02-4.698 4.789 0 8.095 1.273 9.891 3.799 1.803 2.545 2.705 5.359 2.705 8.438 0 2.694-1.343 5.151-2.965 7.382-.894 1.293-2.067 2.497-3.528 3.592 0 0-9.563 6.128-13.763 11.059-2.43 2.847-2.647 7.135-2.869 13.269-.005.444.161 1.353 1.683 1.353h13.708c1.369 0 1.654-1.011 1.665-1.462.1-2.229.347-3.374.751-4.666.769-2.438 2.872-4.56 5.225-6.4l4.846-3.347c4.388-3.419 7.881-6.212 9.43-8.413 2.635-3.607 4.49-8.059 4.49-13.338-.003-8.611-3.043-15.1-9.123-19.497zm-23.198 67.7c-6.08-.187-11.085 4.013-11.282 10.614-.188 6.588 4.577 10.929 10.655 11.107 6.341.187 11.223-3.868 11.425-10.47.173-6.592-4.447-11.072-10.798-11.251z"/></svg><svg width="100" height="100" viewBox="0 0 100 100" id="help-red" x="1700" y="1700" xmlns="http://www.w3.org/2000/svg"><path fill="#B74E4E" d="M71.816 8.572C65.737 4.19 58.1 2 48.902 2 41.906 2 36 3.54 31.211 6.624c-7.616 4.835-11.657 13.046-12.147 24.617h17.635c0-3.375.99-6.612 2.951-9.74 1.969-3.134 5.31-4.698 10.02-4.698 4.789 0 8.095 1.273 9.891 3.799 1.803 2.545 2.705 5.359 2.705 8.438 0 2.694-1.343 5.151-2.965 7.382-.894 1.293-2.067 2.497-3.528 3.592 0 0-9.563 6.128-13.763 11.059-2.43 2.847-2.647 7.135-2.869 13.269-.005.444.161 1.353 1.683 1.353h13.708c1.369 0 1.654-1.011 1.665-1.462.1-2.229.347-3.374.751-4.666.769-2.438 2.872-4.56 5.225-6.4l4.846-3.347c4.388-3.419 7.881-6.212 9.43-8.413 2.635-3.607 4.49-8.059 4.49-13.338-.003-8.611-3.043-15.1-9.123-19.497zm-23.198 67.7c-6.08-.187-11.085 4.013-11.282 10.614-.188 6.588 4.577 10.929 10.655 11.107 6.341.187 11.223-3.868 11.425-10.47.173-6.592-4.447-11.072-10.798-11.251z"/></svg><svg width="100" height="100" viewBox="0 0 100 100" id="help-red-hover" x="1800" y="1800" xmlns="http://www.w3.org/2000/svg"><path fill="#63211C" d="M71.816 8.572C65.737 4.19 58.1 2 48.902 2 41.906 2 36 3.54 31.211 6.624c-7.616 4.835-11.657 13.046-12.147 24.617h17.635c0-3.375.99-6.612 2.951-9.74 1.969-3.134 5.31-4.698 10.02-4.698 4.789 0 8.095 1.273 9.891 3.799 1.803 2.545 2.705 5.359 2.705 8.438 0 2.694-1.343 5.151-2.965 7.382-.894 1.293-2.067 2.497-3.528 3.592 0 0-9.563 6.128-13.763 11.059-2.43 2.847-2.647 7.135-2.869 13.269-.005.444.161 1.353 1.683 1.353h13.708c1.369 0 1.654-1.011 1.665-1.462.1-2.229.347-3.374.751-4.666.769-2.438 2.872-4.56 5.225-6.4l4.846-3.347c4.388-3.419 7.881-6.212 9.43-8.413 2.635-3.607 4.49-8.059 4.49-13.338-.003-8.611-3.043-15.1-9.123-19.497zm-23.198 67.7c-6.08-.187-11.085 4.013-11.282 10.614-.188 6.588 4.577 10.929 10.655 11.107 6.341.187 11.223-3.868 11.425-10.47.173-6.592-4.447-11.072-10.798-11.251z"/></svg><svg width="100" height="100" viewBox="0 0 100 100" id="help-teal" x="1900" y="1900" xmlns="http://www.w3.org/2000/svg"><path fill="#38A2A0" d="M71.816 8.572C65.737 4.19 58.1 2 48.902 2 41.906 2 36 3.54 31.211 6.624c-7.616 4.835-11.657 13.046-12.147 24.617h17.635c0-3.375.99-6.612 2.951-9.74 1.969-3.134 5.31-4.698 10.02-4.698 4.789 0 8.095 1.273 9.891 3.799 1.803 2.545 2.705 5.359 2.705 8.438 0 2.694-1.343 5.151-2.965 7.382-.894 1.293-2.067 2.497-3.528 3.592 0 0-9.563 6.128-13.763 11.059-2.43 2.847-2.647 7.135-2.869 13.269-.005.444.161 1.353 1.683 1.353h13.708c1.369 0 1.654-1.011 1.665-1.462.1-2.229.347-3.374.751-4.666.769-2.438 2.872-4.56 5.225-6.4l4.846-3.347c4.388-3.419 7.881-6.212 9.43-8.413 2.635-3.607 4.49-8.059 4.49-13.338-.003-8.611-3.043-15.1-9.123-19.497zm-23.198 67.7c-6.08-.187-11.085 4.013-11.282 10.614-.188 6.588 4.577 10.929 10.655 11.107 6.341.187 11.223-3.868 11.425-10.47.173-6.592-4.447-11.072-10.798-11.251z"/></svg><svg width="100" height="100" viewBox="0 0 100 100" id="help-teal-hover" x="2000" y="2000" xmlns="http://www.w3.org/2000/svg"><path fill="#1F605F" d="M71.816 8.572C65.737 4.19 58.1 2 48.902 2 41.906 2 36 3.54 31.211 6.624c-7.616 4.835-11.657 13.046-12.147 24.617h17.635c0-3.375.99-6.612 2.951-9.74 1.969-3.134 5.31-4.698 10.02-4.698 4.789 0 8.095 1.273 9.891 3.799 1.803 2.545 2.705 5.359 2.705 8.438 0 2.694-1.343 5.151-2.965 7.382-.894 1.293-2.067 2.497-3.528 3.592 0 0-9.563 6.128-13.763 11.059-2.43 2.847-2.647 7.135-2.869 13.269-.005.444.161 1.353 1.683 1.353h13.708c1.369 0 1.654-1.011 1.665-1.462.1-2.229.347-3.374.751-4.666.769-2.438 2.872-4.56 5.225-6.4l4.846-3.347c4.388-3.419 7.881-6.212 9.43-8.413 2.635-3.607 4.49-8.059 4.49-13.338-.003-8.611-3.043-15.1-9.123-19.497zm-23.198 67.7c-6.08-.187-11.085 4.013-11.282 10.614-.188 6.588 4.577 10.929 10.655 11.107 6.341.187 11.223-3.868 11.425-10.47.173-6.592-4.447-11.072-10.798-11.251z"/></svg><svg width="100" height="100" viewBox="0 0 100 100" id="home-blue" x="2100" y="2100" xmlns="http://www.w3.org/2000/svg"><path fill="#327CCB" d="M84.298 55.805v28.582c0 1.035-.382 1.923-1.131 2.67-.758.757-1.651 1.132-2.678 1.132H57.622v-22.86H42.384v22.857H19.516c-1.033 0-1.924-.375-2.681-1.131-.751-.746-1.128-1.644-1.128-2.671v-28.58c0-.036.007-.105.031-.18a.833.833 0 0 0 .031-.178l34.235-28.224 34.235 28.224a.96.96 0 0 1 .059.359zm13.273-4.11l-3.689 4.402c-.314.358-.735.562-1.252.656h-.173c-.521 0-.937-.14-1.253-.418L49.996 21.989 8.798 56.337c-.476.315-.952.459-1.432.417-.513-.079-.934-.297-1.251-.656l-3.69-4.402c-.319-.398-.456-.867-.418-1.396.043-.547.261-.967.656-1.286l42.804-35.661c1.274-1.031 2.782-1.541 4.529-1.541 1.751 0 3.261.51 4.529 1.541l14.527 12.142V13.89c0-.559.177-1.012.54-1.361.359-.364.817-.544 1.365-.544h11.437c.559 0 1.017.18 1.365.544.354.355.541.814.541 1.361v24.288l13.038 10.837c.4.319.618.739.656 1.286.036.535-.099 1.004-.423 1.394z"/></svg><svg width="100" height="100" viewBox="0 0 100 100" id="home-blue-hover" x="2200" y="2200" xmlns="http://www.w3.org/2000/svg"><path fill="#0B486B" d="M84.298 55.805v28.582c0 1.035-.382 1.923-1.131 2.67-.758.757-1.651 1.132-2.678 1.132H57.622v-22.86H42.384v22.857H19.516c-1.033 0-1.924-.375-2.681-1.131-.751-.746-1.128-1.644-1.128-2.671v-28.58c0-.036.007-.105.031-.18a.833.833 0 0 0 .031-.178l34.235-28.224 34.235 28.224a.96.96 0 0 1 .059.359zm13.273-4.11l-3.689 4.402c-.314.358-.735.562-1.252.656h-.173c-.521 0-.937-.14-1.253-.418L49.996 21.989 8.798 56.337c-.476.315-.952.459-1.432.417-.513-.079-.934-.297-1.251-.656l-3.69-4.402c-.319-.398-.456-.867-.418-1.396.043-.547.261-.967.656-1.286l42.804-35.661c1.274-1.031 2.782-1.541 4.529-1.541 1.751 0 3.261.51 4.529 1.541l14.527 12.142V13.89c0-.559.177-1.012.54-1.361.359-.364.817-.544 1.365-.544h11.437c.559 0 1.017.18 1.365.544.354.355.541.814.541 1.361v24.288l13.038 10.837c.4.319.618.739.656 1.286.036.535-.099 1.004-.423 1.394z"/></svg><svg width="100" height="100" viewBox="0 0 100 100" id="home-green" x="2300" y="2300" xmlns="http://www.w3.org/2000/svg"><path fill="#76A328" d="M84.298 55.805v28.582c0 1.035-.382 1.923-1.131 2.67-.758.757-1.651 1.132-2.678 1.132H57.622v-22.86H42.384v22.857H19.516c-1.033 0-1.924-.375-2.681-1.131-.751-.746-1.128-1.644-1.128-2.671v-28.58c0-.036.007-.105.031-.18a.833.833 0 0 0 .031-.178l34.235-28.224 34.235 28.224a.96.96 0 0 1 .059.359zm13.273-4.11l-3.689 4.402c-.314.358-.735.562-1.252.656h-.173c-.521 0-.937-.14-1.253-.418L49.996 21.989 8.798 56.337c-.476.315-.952.459-1.432.417-.513-.079-.934-.297-1.251-.656l-3.69-4.402c-.319-.398-.456-.867-.418-1.396.043-.547.261-.967.656-1.286l42.804-35.661c1.274-1.031 2.782-1.541 4.529-1.541 1.751 0 3.261.51 4.529 1.541l14.527 12.142V13.89c0-.559.177-1.012.54-1.361.359-.364.817-.544 1.365-.544h11.437c.559 0 1.017.18 1.365.544.354.355.541.814.541 1.361v24.288l13.038 10.837c.4.319.618.739.656 1.286.036.535-.099 1.004-.423 1.394z"/></svg><svg width="100" height="100" viewBox="0 0 100 100" id="home-green-hover" x="2400" y="2400" xmlns="http://www.w3.org/2000/svg"><path fill="#244805" d="M84.299 55.804v28.582c0 1.035-.382 1.924-1.131 2.67-.758.758-1.651 1.133-2.679 1.133H57.623v-22.86H42.385v22.856H19.517c-1.034 0-1.924-.375-2.681-1.131-.751-.746-1.128-1.644-1.128-2.671V55.804c0-.037.006-.105.03-.181a.771.771 0 0 0 .031-.179l34.236-28.223 34.234 28.223c.033.075.06.202.06.36zm13.272-4.11l-3.688 4.402c-.313.357-.735.562-1.252.655h-.174c-.521 0-.937-.14-1.252-.418L49.997 21.988 8.798 56.336c-.477.315-.953.459-1.432.417-.514-.079-.935-.297-1.252-.656l-3.69-4.402c-.319-.397-.456-.866-.418-1.396.043-.547.261-.967.656-1.285l42.804-35.662c1.274-1.031 2.782-1.541 4.529-1.541 1.751 0 3.261.51 4.528 1.541L69.05 25.495V13.889c0-.56.176-1.013.54-1.361.359-.364.817-.543 1.364-.543h11.438c.56 0 1.018.18 1.365.543.354.354.541.813.541 1.361v24.289l13.038 10.837c.399.318.618.738.656 1.285.038.535-.096 1.004-.421 1.394z"/></svg><svg width="100" height="100" viewBox="0 0 100 100" id="home-orange" x="2500" y="2500" xmlns="http://www.w3.org/2000/svg"><path fill="#E46E34" d="M84.299 55.804v28.582c0 1.035-.382 1.924-1.131 2.67-.758.758-1.651 1.133-2.679 1.133H57.623v-22.86H42.385v22.856H19.517c-1.034 0-1.924-.375-2.681-1.131-.751-.746-1.128-1.644-1.128-2.671V55.804c0-.037.006-.105.03-.181a.771.771 0 0 0 .031-.179l34.236-28.223 34.234 28.223c.033.075.06.202.06.36zm13.272-4.11l-3.688 4.402c-.313.357-.735.562-1.252.655h-.174c-.521 0-.937-.14-1.252-.418L49.997 21.988 8.798 56.336c-.477.315-.953.459-1.432.417-.514-.079-.935-.297-1.252-.656l-3.69-4.402c-.319-.397-.456-.866-.418-1.396.043-.547.261-.967.656-1.285l42.804-35.662c1.274-1.031 2.782-1.541 4.529-1.541 1.751 0 3.261.51 4.528 1.541L69.05 25.495V13.889c0-.56.176-1.013.54-1.361.359-.364.817-.543 1.364-.543h11.438c.56 0 1.018.18 1.365.543.354.354.541.813.541 1.361v24.289l13.038 10.837c.399.318.618.738.656 1.285.038.535-.096 1.004-.421 1.394z"/></svg><svg width="100" height="100" viewBox="0 0 100 100" id="home-orange-hover" x="2600" y="2600" xmlns="http://www.w3.org/2000/svg"><path fill="#AB4A08" d="M84.298 55.805v28.58c0 1.035-.382 1.924-1.131 2.672-.758.756-1.65 1.131-2.678 1.131H57.624v-22.86h-15.24v22.857H19.516c-1.034 0-1.924-.375-2.68-1.131-.751-.746-1.128-1.645-1.128-2.672V55.805c0-.037.006-.105.03-.181a.773.773 0 0 0 .03-.179l34.236-28.223 34.235 28.223a.966.966 0 0 1 .059.36zm13.275-4.112l-3.69 4.402c-.315.358-.735.563-1.253.656h-.173c-.521 0-.937-.141-1.253-.419L49.996 21.988 8.798 56.335c-.477.315-.953.461-1.432.418-.515-.078-.936-.297-1.252-.655l-3.69-4.402c-.319-.398-.456-.867-.418-1.396.043-.549.26-.968.656-1.287l42.804-35.661c1.274-1.031 2.781-1.54 4.529-1.54 1.751 0 3.262.51 4.53 1.54l14.526 12.143V13.889c0-.559.177-1.012.539-1.36.359-.364.817-.543 1.364-.543h11.438c.559 0 1.018.18 1.365.543.354.355.54.814.54 1.36v24.288l13.039 10.837c.399.319.617.738.656 1.287.038.534-.096 1.004-.419 1.392z"/></svg><svg width="100" height="100" viewBox="0 0 100 100" id="home-purple" x="2700" y="2700" xmlns="http://www.w3.org/2000/svg"><path fill="#B360BA" d="M84.298 55.805v28.582c0 1.035-.382 1.923-1.131 2.67-.758.757-1.651 1.132-2.678 1.132H57.622v-22.86H42.384v22.857H19.516c-1.033 0-1.924-.375-2.681-1.131-.751-.746-1.128-1.644-1.128-2.671v-28.58c0-.036.007-.105.031-.18a.833.833 0 0 0 .031-.178l34.235-28.224 34.235 28.224a.96.96 0 0 1 .059.359zm13.273-4.11l-3.689 4.402c-.314.358-.735.562-1.252.656h-.173c-.521 0-.937-.14-1.253-.418L49.996 21.989 8.798 56.337c-.476.315-.952.459-1.432.417-.513-.079-.934-.297-1.251-.656l-3.69-4.402c-.319-.398-.456-.867-.418-1.396.043-.547.261-.967.656-1.286l42.804-35.661c1.274-1.031 2.782-1.541 4.529-1.541 1.751 0 3.261.51 4.529 1.541l14.527 12.142V13.89c0-.559.177-1.012.54-1.361.359-.364.817-.544 1.365-.544h11.437c.559 0 1.017.18 1.365.544.354.355.541.814.541 1.361v24.288l13.038 10.837c.4.319.618.739.656 1.286.036.535-.099 1.004-.423 1.394z"/></svg><svg width="100" height="100" viewBox="0 0 100 100" id="home-purple-hover" x="2800" y="2800" xmlns="http://www.w3.org/2000/svg"><path fill="#663267" d="M84.298 55.805v28.582c0 1.035-.382 1.923-1.131 2.67-.758.757-1.651 1.132-2.678 1.132H57.622v-22.86H42.384v22.857H19.516c-1.033 0-1.924-.375-2.681-1.131-.751-.746-1.128-1.644-1.128-2.671v-28.58c0-.036.007-.105.031-.18a.833.833 0 0 0 .031-.178l34.235-28.224 34.235 28.224a.96.96 0 0 1 .059.359zm13.273-4.11l-3.689 4.402c-.314.358-.735.562-1.252.656h-.173c-.521 0-.937-.14-1.253-.418L49.996 21.989 8.798 56.337c-.476.315-.952.459-1.432.417-.513-.079-.934-.297-1.251-.656l-3.69-4.402c-.319-.398-.456-.867-.418-1.396.043-.547.261-.967.656-1.286l42.804-35.661c1.274-1.031 2.782-1.541 4.529-1.541 1.751 0 3.261.51 4.529 1.541l14.527 12.142V13.89c0-.559.177-1.012.54-1.361.359-.364.817-.544 1.365-.544h11.437c.559 0 1.017.18 1.365.544.354.355.541.814.541 1.361v24.288l13.038 10.837c.4.319.618.739.656 1.286.036.535-.099 1.004-.423 1.394z"/></svg><svg width="100" height="100" viewBox="0 0 100 100" id="home-red" x="2900" y="2900" xmlns="http://www.w3.org/2000/svg"><path fill="#B74E4E" d="M84.298 55.805v28.582c0 1.035-.382 1.923-1.131 2.67-.758.757-1.651 1.132-2.678 1.132H57.622v-22.86H42.384v22.857H19.516c-1.033 0-1.924-.375-2.681-1.131-.751-.746-1.128-1.644-1.128-2.671v-28.58c0-.036.007-.105.031-.18a.833.833 0 0 0 .031-.178l34.235-28.224 34.235 28.224a.96.96 0 0 1 .059.359zm13.273-4.11l-3.689 4.402c-.314.358-.735.562-1.252.656h-.173c-.521 0-.937-.14-1.253-.418L49.996 21.989 8.798 56.337c-.476.315-.952.459-1.432.417-.513-.079-.934-.297-1.251-.656l-3.69-4.402c-.319-.398-.456-.867-.418-1.396.043-.547.261-.967.656-1.286l42.804-35.661c1.274-1.031 2.782-1.541 4.529-1.541 1.751 0 3.261.51 4.529 1.541l14.527 12.142V13.89c0-.559.177-1.012.54-1.361.359-.364.817-.544 1.365-.544h11.437c.559 0 1.017.18 1.365.544.354.355.541.814.541 1.361v24.288l13.038 10.837c.4.319.618.739.656 1.286.036.535-.099 1.004-.423 1.394z"/></svg><svg width="100" height="100" viewBox="0 0 100 100" id="home-red-hover" x="3000" y="3000" xmlns="http://www.w3.org/2000/svg"><path fill="#63211C" d="M84.298 55.805v28.582c0 1.035-.382 1.923-1.131 2.67-.758.757-1.651 1.132-2.678 1.132H57.622v-22.86H42.384v22.857H19.516c-1.033 0-1.924-.375-2.681-1.131-.751-.746-1.128-1.644-1.128-2.671v-28.58c0-.036.007-.105.031-.18a.833.833 0 0 0 .031-.178l34.235-28.224 34.235 28.224a.96.96 0 0 1 .059.359zm13.273-4.11l-3.689 4.402c-.314.358-.735.562-1.252.656h-.173c-.521 0-.937-.14-1.253-.418L49.996 21.989 8.798 56.337c-.476.315-.952.459-1.432.417-.513-.079-.934-.297-1.251-.656l-3.69-4.402c-.319-.398-.456-.867-.418-1.396.043-.547.261-.967.656-1.286l42.804-35.661c1.274-1.031 2.782-1.541 4.529-1.541 1.751 0 3.261.51 4.529 1.541l14.527 12.142V13.89c0-.559.177-1.012.54-1.361.359-.364.817-.544 1.365-.544h11.437c.559 0 1.017.18 1.365.544.354.355.541.814.541 1.361v24.288l13.038 10.837c.4.319.618.739.656 1.286.036.535-.099 1.004-.423 1.394z"/></svg><svg width="100" height="100" viewBox="0 0 100 100" id="home-teal" x="3100" y="3100" xmlns="http://www.w3.org/2000/svg"><path fill="#38A2A0" d="M84.298 55.805v28.582c0 1.035-.382 1.923-1.131 2.67-.758.757-1.651 1.132-2.678 1.132H57.622v-22.86H42.384v22.857H19.516c-1.033 0-1.924-.375-2.681-1.131-.751-.746-1.128-1.644-1.128-2.671v-28.58c0-.036.007-.105.031-.18a.833.833 0 0 0 .031-.178l34.235-28.224 34.235 28.224a.96.96 0 0 1 .059.359zm13.273-4.11l-3.689 4.402c-.314.358-.735.562-1.252.656h-.173c-.521 0-.937-.14-1.253-.418L49.996 21.989 8.798 56.337c-.476.315-.952.459-1.432.417-.513-.079-.934-.297-1.251-.656l-3.69-4.402c-.319-.398-.456-.867-.418-1.396.043-.547.261-.967.656-1.286l42.804-35.661c1.274-1.031 2.782-1.541 4.529-1.541 1.751 0 3.261.51 4.529 1.541l14.527 12.142V13.89c0-.559.177-1.012.54-1.361.359-.364.817-.544 1.365-.544h11.437c.559 0 1.017.18 1.365.544.354.355.541.814.541 1.361v24.288l13.038 10.837c.4.319.618.739.656 1.286.036.535-.099 1.004-.423 1.394z"/></svg><svg width="100" height="100" viewBox="0 0 100 100" id="home-teal-hover" x="3200" y="3200" xmlns="http://www.w3.org/2000/svg"><path fill="#1F605F" d="M84.298 55.805v28.582c0 1.035-.382 1.923-1.131 2.67-.758.757-1.651 1.132-2.678 1.132H57.622v-22.86H42.384v22.857H19.516c-1.033 0-1.924-.375-2.681-1.131-.751-.746-1.128-1.644-1.128-2.671v-28.58c0-.036.007-.105.031-.18a.833.833 0 0 0 .031-.178l34.235-28.224 34.235 28.224a.96.96 0 0 1 .059.359zm13.273-4.11l-3.689 4.402c-.314.358-.735.562-1.252.656h-.173c-.521 0-.937-.14-1.253-.418L49.996 21.989 8.798 56.337c-.476.315-.952.459-1.432.417-.513-.079-.934-.297-1.251-.656l-3.69-4.402c-.319-.398-.456-.867-.418-1.396.043-.547.261-.967.656-1.286l42.804-35.661c1.274-1.031 2.782-1.541 4.529-1.541 1.751 0 3.261.51 4.529 1.541l14.527 12.142V13.89c0-.559.177-1.012.54-1.361.359-.364.817-.544 1.365-.544h11.437c.559 0 1.017.18 1.365.544.354.355.541.814.541 1.361v24.288l13.038 10.837c.4.319.618.739.656 1.286.036.535-.099 1.004-.423 1.394z"/></svg></svg>