<?xml version="1.0" encoding="utf-8"?><!DOCTYPE svg PUBLIC "-//W3C//DTD SVG 1.1//EN" "http://www.w3.org/Graphics/SVG/1.1/DTD/svg11.dtd"><svg width="2300" height="2300" viewBox="0 0 2300 2300" xmlns="http://www.w3.org/2000/svg" xmlns:xlink="http://www.w3.org/1999/xlink"><svg width="100" height="100" viewBox="0 0 100 100" id="info" xmlns="http://www.w3.org/2000/svg"><path fill="#327CCB" d="M57.797 70.084c-.021.012-1.869.619-3.463.619-.887 0-1.235-.183-1.355-.261-.557-.39-1.599-1.12.184-4.667l3.333-6.645c1.976-3.942 2.267-7.768.817-10.754-1.187-2.443-3.469-4.118-6.407-4.719a16.087 16.087 0 0 0-3.188-.326c-6.164 0-10.312 3.599-10.485 3.755a1.67 1.67 0 0 0-.34 2.086 1.66 1.66 0 0 0 1.983.74c.016-.005 1.863-.623 3.461-.623.88 0 1.226.18 1.338.261.565.389 1.613 1.129-.168 4.672l-3.334 6.65c-1.98 3.948-2.268 7.766-.818 10.75 1.191 2.448 3.461 4.119 6.406 4.719 1.044.209 2.123.324 3.179.324 6.167 0 10.312-3.601 10.488-3.75a1.669 1.669 0 0 0 .341-2.095c-.394-.675-1.226-.977-1.972-.736zM63.334 31.67A8.335 8.335 0 0 1 55 40.005a8.336 8.336 0 1 1 0-16.671 8.333 8.333 0 0 1 8.334 8.336z"/><path fill="#327CCB" d="M50 10c22.063 0 39.999 17.944 39.999 40 0 22.057-17.937 39.999-39.999 39.999-22.06 0-40-17.94-40-39.999 0-22.057 17.94-40 40-40m0-8C23.488 2 2 23.488 2 50c0 26.51 21.488 48 48 48 26.51 0 48-21.49 48-48C98 23.488 76.51 2 50 2z"/></svg><svg width="100" height="100" viewBox="0 0 100 100" id="info-disabled" x="100" y="100" xmlns="http://www.w3.org/2000/svg"><path fill="#C1C1C1" d="M57.797 70.084c-.021.012-1.869.619-3.463.619-.887 0-1.235-.183-1.355-.261-.557-.39-1.599-1.12.184-4.667l3.333-6.645c1.976-3.942 2.267-7.768.817-10.754-1.187-2.443-3.469-4.118-6.407-4.719a16.087 16.087 0 0 0-3.188-.326c-6.164 0-10.312 3.599-10.485 3.755a1.67 1.67 0 0 0-.34 2.086 1.66 1.66 0 0 0 1.983.74c.016-.005 1.863-.623 3.461-.623.88 0 1.226.18 1.338.261.565.389 1.613 1.129-.168 4.672l-3.334 6.65c-1.98 3.948-2.268 7.766-.818 10.75 1.191 2.448 3.461 4.119 6.406 4.719 1.044.209 2.123.324 3.179.324 6.167 0 10.312-3.601 10.488-3.75a1.669 1.669 0 0 0 .341-2.095c-.394-.675-1.226-.977-1.972-.736zM63.334 31.67A8.335 8.335 0 0 1 55 40.005a8.336 8.336 0 1 1 0-16.671 8.333 8.333 0 0 1 8.334 8.336z"/><path fill="#C1C1C1" d="M50 10c22.063 0 39.999 17.944 39.999 40 0 22.057-17.937 39.999-39.999 39.999-22.06 0-40-17.94-40-39.999 0-22.057 17.94-40 40-40m0-8C23.488 2 2 23.488 2 50c0 26.51 21.488 48 48 48 26.51 0 48-21.49 48-48C98 23.488 76.51 2 50 2z"/></svg><svg width="100" height="100" viewBox="0 0 100 100" id="info-hover" x="200" y="200" xmlns="http://www.w3.org/2000/svg"><path fill="#0F5D8A" d="M57.797 70.084c-.021.012-1.869.619-3.463.619-.887 0-1.235-.183-1.355-.261-.557-.39-1.599-1.12.184-4.667l3.333-6.645c1.976-3.942 2.267-7.768.817-10.754-1.187-2.443-3.469-4.118-6.407-4.719a16.087 16.087 0 0 0-3.188-.326c-6.164 0-10.312 3.599-10.485 3.755a1.67 1.67 0 0 0-.34 2.086 1.66 1.66 0 0 0 1.983.74c.016-.005 1.863-.623 3.461-.623.88 0 1.226.18 1.338.261.565.389 1.613 1.129-.168 4.672l-3.334 6.65c-1.98 3.948-2.268 7.766-.818 10.75 1.191 2.448 3.461 4.119 6.406 4.719 1.044.209 2.123.324 3.179.324 6.167 0 10.312-3.601 10.488-3.75a1.669 1.669 0 0 0 .341-2.095c-.394-.675-1.226-.977-1.972-.736zM63.334 31.67A8.335 8.335 0 0 1 55 40.005a8.336 8.336 0 1 1 0-16.671 8.333 8.333 0 0 1 8.334 8.336z"/><path fill="#0F5D8A" d="M50 10c22.063 0 39.999 17.944 39.999 40 0 22.057-17.937 39.999-39.999 39.999-22.06 0-40-17.94-40-39.999 0-22.057 17.94-40 40-40m0-8C23.488 2 2 23.488 2 50c0 26.51 21.488 48 48 48 26.51 0 48-21.49 48-48C98 23.488 76.51 2 50 2z"/></svg><svg width="100" height="100" viewBox="0 0 100 100" id="info2" x="300" y="300" xmlns="http://www.w3.org/2000/svg"><path fill="#C93232" d="M57.797 70.084c-.021.012-1.869.619-3.463.619-.887 0-1.235-.183-1.355-.261-.557-.39-1.599-1.12.184-4.667l3.333-6.645c1.976-3.942 2.267-7.768.817-10.754-1.187-2.443-3.469-4.118-6.407-4.719a16.087 16.087 0 0 0-3.188-.326c-6.164 0-10.312 3.599-10.485 3.755a1.67 1.67 0 0 0-.34 2.086 1.66 1.66 0 0 0 1.983.74c.016-.005 1.863-.623 3.461-.623.88 0 1.226.18 1.338.261.565.389 1.613 1.129-.168 4.672l-3.334 6.65c-1.98 3.948-2.268 7.766-.818 10.75 1.191 2.448 3.461 4.119 6.406 4.719 1.044.209 2.123.324 3.179.324 6.167 0 10.312-3.601 10.488-3.75a1.669 1.669 0 0 0 .341-2.095c-.394-.675-1.226-.977-1.972-.736zM63.334 31.67A8.335 8.335 0 0 1 55 40.005a8.336 8.336 0 1 1 0-16.671 8.333 8.333 0 0 1 8.334 8.336z"/><path fill="#C93232" d="M50 10c22.063 0 39.999 17.944 39.999 40 0 22.057-17.937 39.999-39.999 39.999-22.06 0-40-17.94-40-39.999 0-22.057 17.94-40 40-40m0-8C23.488 2 2 23.488 2 50c0 26.51 21.488 48 48 48 26.51 0 48-21.49 48-48C98 23.488 76.51 2 50 2z"/></svg><svg width="100" height="100" viewBox="0 0 100 100" id="info2-disabled" x="400" y="400" xmlns="http://www.w3.org/2000/svg"><path fill="#C1C1C1" d="M57.797 70.084c-.021.012-1.869.619-3.463.619-.887 0-1.235-.183-1.355-.261-.557-.39-1.599-1.12.184-4.667l3.333-6.645c1.976-3.942 2.267-7.768.817-10.754-1.187-2.443-3.469-4.118-6.407-4.719a16.087 16.087 0 0 0-3.188-.326c-6.164 0-10.312 3.599-10.485 3.755a1.67 1.67 0 0 0-.34 2.086 1.66 1.66 0 0 0 1.983.74c.016-.005 1.863-.623 3.461-.623.88 0 1.226.18 1.338.261.565.389 1.613 1.129-.168 4.672l-3.334 6.65c-1.98 3.948-2.268 7.766-.818 10.75 1.191 2.448 3.461 4.119 6.406 4.719 1.044.209 2.123.324 3.179.324 6.167 0 10.312-3.601 10.488-3.75a1.669 1.669 0 0 0 .341-2.095c-.394-.675-1.226-.977-1.972-.736zM63.334 31.67A8.335 8.335 0 0 1 55 40.005a8.336 8.336 0 1 1 0-16.671 8.333 8.333 0 0 1 8.334 8.336z"/><path fill="#C1C1C1" d="M50 10c22.063 0 39.999 17.944 39.999 40 0 22.057-17.937 39.999-39.999 39.999-22.06 0-40-17.94-40-39.999 0-22.057 17.94-40 40-40m0-8C23.488 2 2 23.488 2 50c0 26.51 21.488 48 48 48 26.51 0 48-21.49 48-48C98 23.488 76.51 2 50 2z"/></svg><svg width="100" height="100" viewBox="0 0 100 100" id="info2-hover" x="500" y="500" xmlns="http://www.w3.org/2000/svg"><path fill="#AD1717" d="M57.797 70.084c-.021.012-1.869.619-3.463.619-.887 0-1.235-.183-1.355-.261-.557-.39-1.599-1.12.184-4.667l3.333-6.645c1.976-3.942 2.267-7.768.817-10.754-1.187-2.443-3.469-4.118-6.407-4.719a16.087 16.087 0 0 0-3.188-.326c-6.164 0-10.312 3.599-10.485 3.755a1.67 1.67 0 0 0-.34 2.086 1.66 1.66 0 0 0 1.983.74c.016-.005 1.863-.623 3.461-.623.88 0 1.226.18 1.338.261.565.389 1.613 1.129-.168 4.672l-3.334 6.65c-1.98 3.948-2.268 7.766-.818 10.75 1.191 2.448 3.461 4.119 6.406 4.719 1.044.209 2.123.324 3.179.324 6.167 0 10.312-3.601 10.488-3.75a1.669 1.669 0 0 0 .341-2.095c-.394-.675-1.226-.977-1.972-.736zM63.334 31.67A8.335 8.335 0 0 1 55 40.005a8.336 8.336 0 1 1 0-16.671 8.333 8.333 0 0 1 8.334 8.336z"/><path fill="#AD1717" d="M50 10c22.063 0 39.999 17.944 39.999 40 0 22.057-17.937 39.999-39.999 39.999-22.06 0-40-17.94-40-39.999 0-22.057 17.94-40 40-40m0-8C23.488 2 2 23.488 2 50c0 26.51 21.488 48 48 48 26.51 0 48-21.49 48-48C98 23.488 76.51 2 50 2z"/></svg><svg width="100" height="100" viewBox="0 0 100 100" id="less" x="600" y="600" xmlns="http://www.w3.org/2000/svg"><title>keyboard_arrow_up</title><title>keyboard_arrow_up</title><path fill="#FFF" d="M73.201 54.801H26.799c-2.4 0-4-2.401-4-4.801 0-2.4 2.4-4.8 4.8-4.8h45.602c2.398 0 4.797 2.4 4.797 4.8-.797 2.399-2.397 4.801-4.797 4.801z"/><path fill="#FFF" d="M77.201 98H22.799C11.6 98 2 88.399 2 77.201V22.799C2 11.6 11.6 2 22.799 2h55.2C88.399 2 98 11.6 98 22.799v55.2C98 88.399 88.399 98 77.201 98zM23.6 7.601c-8.799 0-15.2 7.2-15.2 15.2V76.4c0 8.802 7.201 15.2 15.2 15.2h53.602c8.799 0 15.2-7.2 15.2-15.2V23.6c0-8.799-7.2-15.2-15.2-15.2H23.6v-.799z"/></svg><svg width="100" height="100" viewBox="0 0 100 100" id="list" x="700" y="700" xmlns="http://www.w3.org/2000/svg"><title>keyboard_arrow_up</title><title>keyboard_arrow_up</title><path fill="#4D4D4D" d="M57.68 16.589c-2.879-1.92-6.719-1.92-8.64.959-1.92 1.92-1.92 5.76.96 8.64l22.079 18.24H7.76c-2.879 0-5.76 2.879-5.76 5.76 0 2.879 2.88 5.761 5.76 5.761h64.319L50 75.148c-2.88 1.919-2.88 5.759-.96 7.681.96.96 2.881 1.92 4.8 1.92.961 0 2.879 0 3.84-.959L98 50.188 57.68 16.589z"/></svg><svg width="100" height="100" viewBox="0 0 100 100" id="list-level5" x="800" y="800" xmlns="http://www.w3.org/2000/svg"><title>keyboard_arrow_up</title><title>keyboard_arrow_up</title><path fill="#444" d="M11.216 44.703l20.62 19.172S74.508 21.622 93.914 7.953L98 12.224S60.828 54.5 37.771 92.047C26.834 78.434 15.575 64.774 2 53.685c.028.018 8.325-8.128 9.216-8.982z"/></svg><svg width="100" height="100" viewBox="0 0 100 100" id="location" x="900" y="900" xmlns="http://www.w3.org/2000/svg"><title>keyboard_arrow_up</title><title>keyboard_arrow_up</title><path d="M58.631 43.438a8.724 8.724 0 0 1-8.729 8.729 8.72 8.72 0 0 1-8.726-8.729c0-4.814 3.902-8.728 8.726-8.728 4.82 0 8.729 3.913 8.729 8.728z"/><path d="M76.185 19.457H23.821c-2.399 0-4.364 1.959-4.364 4.354v52.364c0 2.399 1.965 4.368 4.364 4.368h52.364c2.399 0 4.358-1.969 4.358-4.368V23.811a4.367 4.367 0 0 0-4.358-4.354zM49.993 75.884c-4.214 0-19.635-21.28-19.635-32.127 0-10.847 8.793-19.641 19.63-19.641 10.845 0 19.638 8.803 19.644 19.641.004 10.847-16.525 32.127-19.639 32.127z"/></svg><svg width="100" height="100" viewBox="0 0 100 100" id="location-on" x="1000" y="1000" xmlns="http://www.w3.org/2000/svg"><title>keyboard_arrow_up</title><title>keyboard_arrow_up</title><path d="M89.271 19.457H98v61.086h-8.729V19.457zM71.816 19.457h8.727v61.086h-8.727V19.457zM41.174 43.438a8.723 8.723 0 0 1-8.729 8.729 8.72 8.72 0 0 1-8.726-8.729c0-4.814 3.902-8.728 8.726-8.728 4.822-.001 8.729 3.913 8.729 8.728z"/><path d="M58.729 19.457H6.364c-2.4 0-4.364 1.959-4.364 4.354v52.365c0 2.398 1.964 4.367 4.364 4.367h52.364c2.398 0 4.357-1.969 4.357-4.367V23.811a4.366 4.366 0 0 0-4.356-4.354zM32.537 75.885c-4.215 0-19.637-21.281-19.637-32.129 0-10.846 8.794-19.641 19.632-19.641 10.844 0 19.639 8.803 19.644 19.641.006 10.848-16.524 32.129-19.639 32.129z"/></svg><svg width="100" height="100" viewBox="0 0 100 100" id="log-out-blue" x="1100" y="1100" xmlns="http://www.w3.org/2000/svg"><path fill="#327CCB" d="M93.634 50.004L63.09 26.006v13.09H50v21.82h13.09v13.087l30.544-23.999z"/><path fill="#327CCB" d="M71.816 75.469v5.078H45.642V19.453h26.175v5.078l6.551 5.141V12.913H45.642V2L6.367 11.699v80.965L45.642 98V87.091h32.725V70.335l-6.551 5.134zm-34.473-20.01a2.63 2.63 0 0 1-2.617 2.63 2.634 2.634 0 0 1-2.62-2.63V44.551a2.615 2.615 0 0 1 2.62-2.617 2.617 2.617 0 0 1 2.617 2.617v10.908z"/></svg><svg width="100" height="100" viewBox="0 0 100 100" id="log-out-blue-hover" x="1200" y="1200" xmlns="http://www.w3.org/2000/svg"><path fill="#0B486B" d="M93.634 50.004L63.09 26.006v13.09H50v21.82h13.09v13.087l30.544-23.999z"/><path fill="#0B486B" d="M71.816 75.469v5.078H45.642V19.453h26.175v5.078l6.551 5.141V12.913H45.642V2L6.367 11.699v80.965L45.642 98V87.091h32.725V70.335l-6.551 5.134zm-34.473-20.01a2.63 2.63 0 0 1-2.617 2.63 2.634 2.634 0 0 1-2.62-2.63V44.551a2.615 2.615 0 0 1 2.62-2.617 2.617 2.617 0 0 1 2.617 2.617v10.908z"/></svg><svg width="100" height="100" viewBox="0 0 100 100" id="log-out-green" x="1300" y="1300" xmlns="http://www.w3.org/2000/svg"><path fill="#76A328" d="M93.634 50.004L63.09 26.006v13.09H50v21.82h13.09v13.087l30.544-23.999z"/><path fill="#76A328" d="M71.816 75.469v5.078H45.642V19.453h26.175v5.078l6.551 5.141V12.913H45.642V2L6.367 11.699v80.965L45.642 98V87.091h32.725V70.335l-6.551 5.134zm-34.473-20.01a2.63 2.63 0 0 1-2.617 2.63 2.634 2.634 0 0 1-2.62-2.63V44.551a2.615 2.615 0 0 1 2.62-2.617 2.617 2.617 0 0 1 2.617 2.617v10.908z"/></svg><svg width="100" height="100" viewBox="0 0 100 100" id="log-out-green-hover" x="1400" y="1400" xmlns="http://www.w3.org/2000/svg"><path fill="#244805" d="M93.634 50.004L63.09 26.006v13.09H50v21.82h13.09v13.087l30.544-23.999z"/><path fill="#244805" d="M71.816 75.469v5.078H45.642V19.453h26.175v5.078l6.551 5.141V12.913H45.642V2L6.367 11.699v80.965L45.642 98V87.091h32.725V70.335l-6.551 5.134zm-34.473-20.01a2.63 2.63 0 0 1-2.617 2.63 2.634 2.634 0 0 1-2.62-2.63V44.551a2.615 2.615 0 0 1 2.62-2.617 2.617 2.617 0 0 1 2.617 2.617v10.908z"/></svg><svg width="100" height="100" viewBox="0 0 100 100" id="log-out-orange" x="1500" y="1500" xmlns="http://www.w3.org/2000/svg"><path fill="#E46E34" d="M93.634 50.004L63.09 26.006v13.09H50v21.82h13.09v13.087l30.544-23.999z"/><path fill="#E46E34" d="M71.816 75.469v5.078H45.642V19.453h26.175v5.078l6.551 5.141V12.913H45.642V2L6.367 11.699v80.965L45.642 98V87.091h32.725V70.335l-6.551 5.134zm-34.473-20.01a2.63 2.63 0 0 1-2.617 2.63 2.634 2.634 0 0 1-2.62-2.63V44.551a2.615 2.615 0 0 1 2.62-2.617 2.617 2.617 0 0 1 2.617 2.617v10.908z"/></svg><svg width="100" height="100" viewBox="0 0 100 100" id="log-out-orange-hover" x="1600" y="1600" xmlns="http://www.w3.org/2000/svg"><path fill="#AB4A08" d="M93.634 50.004L63.09 26.006v13.09H50v21.82h13.09v13.087l30.544-23.999z"/><path fill="#AB4A08" d="M71.816 75.469v5.078H45.642V19.453h26.175v5.078l6.551 5.141V12.913H45.642V2L6.367 11.699v80.965L45.642 98V87.091h32.725V70.335l-6.551 5.134zm-34.473-20.01a2.63 2.63 0 0 1-2.617 2.63 2.634 2.634 0 0 1-2.62-2.63V44.551a2.615 2.615 0 0 1 2.62-2.617 2.617 2.617 0 0 1 2.617 2.617v10.908z"/></svg><svg width="100" height="100" viewBox="0 0 100 100" id="log-out-purple" x="1700" y="1700" xmlns="http://www.w3.org/2000/svg"><path fill="#B360BA" d="M93.634 50.004L63.09 26.006v13.09H50v21.82h13.09v13.087l30.544-23.999z"/><path fill="#B360BA" d="M71.816 75.469v5.078H45.642V19.453h26.175v5.078l6.551 5.141V12.913H45.642V2L6.367 11.699v80.965L45.642 98V87.091h32.725V70.335l-6.551 5.134zm-34.473-20.01a2.63 2.63 0 0 1-2.617 2.63 2.634 2.634 0 0 1-2.62-2.63V44.551a2.615 2.615 0 0 1 2.62-2.617 2.617 2.617 0 0 1 2.617 2.617v10.908z"/></svg><svg width="100" height="100" viewBox="0 0 100 100" id="log-out-purple-hover" x="1800" y="1800" xmlns="http://www.w3.org/2000/svg"><path fill="#663267" d="M93.634 50.004L63.09 26.006v13.09H50v21.82h13.09v13.087l30.544-23.999z"/><path fill="#663267" d="M71.816 75.469v5.078H45.642V19.453h26.175v5.078l6.551 5.141V12.913H45.642V2L6.367 11.699v80.965L45.642 98V87.091h32.725V70.335l-6.551 5.134zm-34.473-20.01a2.63 2.63 0 0 1-2.617 2.63 2.634 2.634 0 0 1-2.62-2.63V44.551a2.615 2.615 0 0 1 2.62-2.617 2.617 2.617 0 0 1 2.617 2.617v10.908z"/></svg><svg width="100" height="100" viewBox="0 0 100 100" id="log-out-red" x="1900" y="1900" xmlns="http://www.w3.org/2000/svg"><path fill="#B74E4E" d="M93.634 50.004L63.09 26.006v13.09H50v21.82h13.09v13.087l30.544-23.999z"/><path fill="#B74E4E" d="M71.816 75.469v5.078H45.642V19.453h26.175v5.078l6.551 5.141V12.913H45.642V2L6.367 11.699v80.965L45.642 98V87.091h32.725V70.335l-6.551 5.134zm-34.473-20.01a2.63 2.63 0 0 1-2.617 2.63 2.634 2.634 0 0 1-2.62-2.63V44.551a2.615 2.615 0 0 1 2.62-2.617 2.617 2.617 0 0 1 2.617 2.617v10.908z"/></svg><svg width="100" height="100" viewBox="0 0 100 100" id="log-out-red-hover" x="2000" y="2000" xmlns="http://www.w3.org/2000/svg"><path fill="#63211C" d="M93.634 50.004L63.09 26.006v13.09H50v21.82h13.09v13.087l30.544-23.999z"/><path fill="#63211C" d="M71.816 75.469v5.078H45.642V19.453h26.175v5.078l6.551 5.141V12.913H45.642V2L6.367 11.699v80.965L45.642 98V87.091h32.725V70.335l-6.551 5.134zm-34.473-20.01a2.63 2.63 0 0 1-2.617 2.63 2.634 2.634 0 0 1-2.62-2.63V44.551a2.615 2.615 0 0 1 2.62-2.617 2.617 2.617 0 0 1 2.617 2.617v10.908z"/></svg><svg width="100" height="100" viewBox="0 0 100 100" id="log-out-teal" x="2100" y="2100" xmlns="http://www.w3.org/2000/svg"><path fill="#38A2A0" d="M93.634 50.004L63.09 26.006v13.09H50v21.82h13.09v13.087l30.544-23.999z"/><path fill="#38A2A0" d="M71.816 75.469v5.078H45.642V19.453h26.175v5.078l6.551 5.141V12.913H45.642V2L6.367 11.699v80.965L45.642 98V87.091h32.725V70.335l-6.551 5.134zm-34.473-20.01a2.63 2.63 0 0 1-2.617 2.63 2.634 2.634 0 0 1-2.62-2.63V44.551a2.615 2.615 0 0 1 2.62-2.617 2.617 2.617 0 0 1 2.617 2.617v10.908z"/></svg><svg width="100" height="100" viewBox="0 0 100 100" id="log-out-teal-hover" x="2200" y="2200" xmlns="http://www.w3.org/2000/svg"><path fill="#1F605F" d="M93.634 50.004L63.09 26.006v13.09H50v21.82h13.09v13.087l30.544-23.999z"/><path fill="#1F605F" d="M71.816 75.469v5.078H45.642V19.453h26.175v5.078l6.551 5.141V12.913H45.642V2L6.367 11.699v80.965L45.642 98V87.091h32.725V70.335l-6.551 5.134zm-34.473-20.01a2.63 2.63 0 0 1-2.617 2.63 2.634 2.634 0 0 1-2.62-2.63V44.551a2.615 2.615 0 0 1 2.62-2.617 2.617 2.617 0 0 1 2.617 2.617v10.908z"/></svg></svg>