<?xml version="1.0" encoding="utf-8"?><!DOCTYPE svg PUBLIC "-//W3C//DTD SVG 1.1//EN" "http://www.w3.org/Graphics/SVG/1.1/DTD/svg11.dtd"><svg width="2600" height="2600" viewBox="0 0 2600 2600" xmlns="http://www.w3.org/2000/svg" xmlns:xlink="http://www.w3.org/1999/xlink"><svg width="100" height="100" viewBox="0 0 100 100" id="magic-wand" xmlns="http://www.w3.org/2000/svg"><path fill="#3280B7" d="M70.204 36.073L87.386 18.89l-6.275-6.275L63.93 29.797l6.274 6.276zm26.213-17.182c0 .994-.353 1.932-1.058 2.635L19.947 96.942c-.705.704-1.643 1.058-2.64 1.058s-1.938-.354-2.64-1.058l-11.61-11.61C2.356 84.631 2 83.689 2 82.692c0-.995.352-1.933 1.057-2.63L78.469 4.641c.71-.703 1.647-1.058 2.641-1.058.996 0 1.934.355 2.641 1.058L95.359 16.25c.704.708 1.058 1.635 1.058 2.641zM37.723 17.25l11.491 3.511-11.491 3.521-3.521 11.494-3.522-11.495-11.491-3.521 11.491-3.51 3.521-11.5 3.522 11.5zM92.25 45.282l5.75 1.75-5.75 1.761-1.76 5.75-1.76-5.75-5.75-1.761 5.75-1.75 1.76-5.75 1.76 5.75zM54.723 7.744l5.748 1.761-5.748 1.755-1.76 5.751-1.76-5.751-5.75-1.755 5.75-1.761L52.963 2l1.76 5.744z"/></svg><svg width="100" height="100" viewBox="0 0 100 100" id="magic-wand-disabled" x="100" y="100" xmlns="http://www.w3.org/2000/svg"><path fill="#C1C1C1" d="M70.204 36.073L87.386 18.89l-6.275-6.275L63.93 29.797l6.274 6.276zm26.213-17.182c0 .994-.353 1.932-1.058 2.635L19.947 96.942c-.705.704-1.643 1.058-2.64 1.058s-1.938-.354-2.64-1.058l-11.61-11.61C2.356 84.631 2 83.689 2 82.692c0-.995.352-1.933 1.057-2.63L78.469 4.641c.71-.703 1.647-1.058 2.641-1.058.996 0 1.934.355 2.641 1.058L95.359 16.25c.704.708 1.058 1.635 1.058 2.641zM37.723 17.25l11.491 3.511-11.491 3.521-3.521 11.494-3.522-11.495-11.491-3.521 11.491-3.51 3.521-11.5 3.522 11.5zM92.25 45.282l5.75 1.75-5.75 1.761-1.76 5.75-1.76-5.75-5.75-1.761 5.75-1.75 1.76-5.75 1.76 5.75zM54.723 7.744l5.748 1.761-5.748 1.755-1.76 5.751-1.76-5.751-5.75-1.755 5.75-1.761L52.963 2l1.76 5.744z"/></svg><svg width="100" height="100" viewBox="0 0 100 100" id="magic-wand-hover" x="200" y="200" xmlns="http://www.w3.org/2000/svg"><path fill="#0F5D8A" d="M70.204 36.073L87.386 18.89l-6.275-6.275L63.93 29.797l6.274 6.276zm26.213-17.182c0 .994-.353 1.932-1.058 2.635L19.947 96.942c-.705.704-1.643 1.058-2.64 1.058s-1.938-.354-2.64-1.058l-11.61-11.61C2.356 84.631 2 83.689 2 82.692c0-.995.352-1.933 1.057-2.63L78.469 4.641c.71-.703 1.647-1.058 2.641-1.058.996 0 1.934.355 2.641 1.058L95.359 16.25c.704.708 1.058 1.635 1.058 2.641zM37.723 17.25l11.491 3.511-11.491 3.521-3.521 11.494-3.522-11.495-11.491-3.521 11.491-3.51 3.521-11.5 3.522 11.5zM92.25 45.282l5.75 1.75-5.75 1.761-1.76 5.75-1.76-5.75-5.75-1.761 5.75-1.75 1.76-5.75 1.76 5.75zM54.723 7.744l5.748 1.761-5.748 1.755-1.76 5.751-1.76-5.751-5.75-1.755 5.75-1.761L52.963 2l1.76 5.744z"/></svg><svg width="100" height="100" viewBox="0 0 100 100" id="maxsize" x="300" y="300" xmlns="http://www.w3.org/2000/svg"><title>keyboard_arrow_up</title><title>keyboard_arrow_up</title><path d="M2 70.563c0 7.577 6.132 13.724 13.711 13.724 7.576 0 13.729-6.123 13.729-13.724V48.818l45.158 45.16c5.367 5.362 14.027 5.362 19.4 0A13.75 13.75 0 0 0 98 84.287c0-3.492-1.348-7.008-4.014-9.698L48.819 29.426h21.747c7.57 0 13.734-6.126 13.734-13.708C84.301 8.121 78.148 2 70.578 2H2.006v68.563H2z"/></svg><svg width="100" height="100" viewBox="0 0 100 100" id="maxsize-hover" x="400" y="400" xmlns="http://www.w3.org/2000/svg"><title>keyboard_arrow_up</title><title>keyboard_arrow_up</title><path fill="#327CCB" d="M2 70.557c0 7.578 6.133 13.722 13.712 13.722 7.58 0 13.73-6.124 13.73-13.722V48.819l45.156 45.157c5.366 5.364 14.031 5.364 19.401 0A13.766 13.766 0 0 0 98 84.284a13.78 13.78 0 0 0-4.012-9.7L48.817 29.425h21.758c7.563 0 13.728-6.121 13.728-13.709C84.303 8.117 78.155 2 70.576 2H2.01v68.559H2v-.002z"/></svg><svg width="100" height="100" viewBox="0 0 100 100" id="minsize" x="500" y="500" xmlns="http://www.w3.org/2000/svg"><title>keyboard_arrow_up</title><title>keyboard_arrow_up</title><path d="M98 29.443c0-7.578-6.135-13.721-13.713-13.721s-13.729 6.124-13.729 13.721V51.18L25.404 6.022a13.71 13.71 0 0 0-19.402 0A13.768 13.768 0 0 0 2 15.716c0 3.493 1.347 7.008 4.011 9.701l45.17 45.158H29.425c-7.565 0-13.728 6.12-13.728 13.708 0 7.599 6.148 13.716 13.728 13.716L97.99 98V29.443H98z"/></svg><svg width="100" height="100" viewBox="0 0 100 100" id="minsize-hover" x="600" y="600" xmlns="http://www.w3.org/2000/svg"><title>keyboard_arrow_up</title><title>keyboard_arrow_up</title><path fill="#327CCB" d="M98 29.444c0-7.578-6.135-13.722-13.713-13.722s-13.729 6.125-13.729 13.722v21.735L25.404 6.022a13.71 13.71 0 0 0-19.402 0A13.768 13.768 0 0 0 2 15.716c0 3.494 1.347 7.008 4.011 9.701l45.17 45.159H29.425c-7.565 0-13.728 6.119-13.728 13.707 0 7.599 6.148 13.716 13.728 13.716L97.99 98V29.444H98z"/></svg><svg width="100" height="100" viewBox="0 0 100 100" id="minus" x="700" y="700" xmlns="http://www.w3.org/2000/svg"><path fill="#D84A55" d="M94.545 41H5.454A3.457 3.457 0 0 0 2 44.454v11.092A3.457 3.457 0 0 0 5.454 59l89.091-.001A3.458 3.458 0 0 0 98 55.545V44.454A3.458 3.458 0 0 0 94.545 41z"/></svg><svg width="100" height="100" viewBox="0 0 100 100" id="minus-disabled" x="800" y="800" xmlns="http://www.w3.org/2000/svg"><path fill="#C1C1C1" d="M94.545 41H5.454A3.457 3.457 0 0 0 2 44.454v11.092A3.457 3.457 0 0 0 5.454 59l89.091-.001A3.458 3.458 0 0 0 98 55.545V44.454A3.458 3.458 0 0 0 94.545 41z"/></svg><svg width="100" height="100" viewBox="0 0 100 100" id="minus-hover" x="900" y="900" xmlns="http://www.w3.org/2000/svg"><path fill="#C00" d="M94.545 41H5.454A3.457 3.457 0 0 0 2 44.454v11.092A3.457 3.457 0 0 0 5.454 59l89.091-.001A3.458 3.458 0 0 0 98 55.545V44.454A3.458 3.458 0 0 0 94.545 41z"/></svg><svg width="100" height="100" viewBox="0 0 100 100" id="more-blue" x="1000" y="1000" xmlns="http://www.w3.org/2000/svg"><path fill="#0B486B" d="M72.842 45.433H54.57V27.136c0-2.523-2.043-4.563-4.57-4.563s-4.57 2.04-4.57 4.563v18.297H27.138a4.575 4.575 0 0 0 0 9.149H45.43v18.274a4.57 4.57 0 1 0 9.141 0V54.584H72.86a4.564 4.564 0 0 0 4.556-4.579 4.576 4.576 0 0 0-4.574-4.572z"/><path fill="#0B486B" d="M77.429 98H22.578C11.23 98 2 88.78 2 77.436V22.572C2 11.244 11.223 2 22.578 2h54.851C88.766 2 98 11.244 98 22.572v54.863C98 88.78 88.766 98 77.429 98zM23.328 7.775c-8.578 0-15.563 6.984-15.563 15.548v53.349c0 8.578 6.985 15.549 15.563 15.549h53.344c8.578 0 15.547-6.987 15.547-15.549V23.323c0-8.579-6.969-15.548-15.547-15.548H23.328z"/></svg><svg width="100" height="100" viewBox="0 0 100 100" id="more-green" x="1100" y="1100" xmlns="http://www.w3.org/2000/svg"><path fill="#244805" d="M72.842 45.433H54.57V27.136c0-2.523-2.043-4.563-4.57-4.563s-4.57 2.04-4.57 4.563v18.297H27.138a4.575 4.575 0 0 0 0 9.149H45.43v18.274a4.57 4.57 0 1 0 9.141 0V54.584H72.86a4.564 4.564 0 0 0 4.556-4.579 4.576 4.576 0 0 0-4.574-4.572z"/><path fill="#244805" d="M77.429 98H22.578C11.23 98 2 88.78 2 77.436V22.572C2 11.244 11.223 2 22.578 2h54.851C88.766 2 98 11.244 98 22.572v54.863C98 88.78 88.766 98 77.429 98zM23.328 7.775c-8.578 0-15.563 6.984-15.563 15.548v53.349c0 8.578 6.985 15.549 15.563 15.549h53.344c8.578 0 15.547-6.987 15.547-15.549V23.323c0-8.579-6.969-15.548-15.547-15.548H23.328z"/></svg><svg width="100" height="100" viewBox="0 0 100 100" id="more-orange" x="1200" y="1200" xmlns="http://www.w3.org/2000/svg"><path fill="#AB4A08" d="M72.842 45.433H54.57V27.136c0-2.523-2.043-4.563-4.57-4.563s-4.57 2.04-4.57 4.563v18.297H27.138a4.575 4.575 0 0 0 0 9.149H45.43v18.274a4.57 4.57 0 1 0 9.141 0V54.584H72.86a4.564 4.564 0 0 0 4.556-4.579 4.576 4.576 0 0 0-4.574-4.572z"/><path fill="#AB4A08" d="M77.429 98H22.578C11.23 98 2 88.78 2 77.436V22.572C2 11.244 11.223 2 22.578 2h54.851C88.766 2 98 11.244 98 22.572v54.863C98 88.78 88.766 98 77.429 98zM23.328 7.775c-8.578 0-15.563 6.984-15.563 15.548v53.349c0 8.578 6.985 15.549 15.563 15.549h53.344c8.578 0 15.547-6.987 15.547-15.549V23.323c0-8.579-6.969-15.548-15.547-15.548H23.328z"/></svg><svg width="100" height="100" viewBox="0 0 100 100" id="more-purple" x="1300" y="1300" xmlns="http://www.w3.org/2000/svg"><path fill="#663267" d="M72.842 45.433H54.57V27.136c0-2.523-2.043-4.563-4.57-4.563s-4.57 2.04-4.57 4.563v18.297H27.138a4.575 4.575 0 0 0 0 9.149H45.43v18.274a4.57 4.57 0 1 0 9.141 0V54.584H72.86a4.564 4.564 0 0 0 4.556-4.579 4.576 4.576 0 0 0-4.574-4.572z"/><path fill="#663267" d="M77.429 98H22.578C11.23 98 2 88.78 2 77.436V22.572C2 11.244 11.223 2 22.578 2h54.851C88.766 2 98 11.244 98 22.572v54.863C98 88.78 88.766 98 77.429 98zM23.328 7.775c-8.578 0-15.563 6.984-15.563 15.548v53.349c0 8.578 6.985 15.549 15.563 15.549h53.344c8.578 0 15.547-6.987 15.547-15.549V23.323c0-8.579-6.969-15.548-15.547-15.548H23.328z"/></svg><svg width="100" height="100" viewBox="0 0 100 100" id="more-red" x="1400" y="1400" xmlns="http://www.w3.org/2000/svg"><path fill="#63211C" d="M72.842 45.433H54.57V27.136c0-2.523-2.043-4.563-4.57-4.563s-4.57 2.04-4.57 4.563v18.297H27.138a4.575 4.575 0 0 0 0 9.149H45.43v18.274a4.57 4.57 0 1 0 9.141 0V54.584H72.86a4.564 4.564 0 0 0 4.556-4.579 4.576 4.576 0 0 0-4.574-4.572z"/><path fill="#63211C" d="M77.429 98H22.578C11.23 98 2 88.78 2 77.436V22.572C2 11.244 11.223 2 22.578 2h54.851C88.766 2 98 11.244 98 22.572v54.863C98 88.78 88.766 98 77.429 98zM23.328 7.775c-8.578 0-15.563 6.984-15.563 15.548v53.349c0 8.578 6.985 15.549 15.563 15.549h53.344c8.578 0 15.547-6.987 15.547-15.549V23.323c0-8.579-6.969-15.548-15.547-15.548H23.328z"/></svg><svg width="100" height="100" viewBox="0 0 100 100" id="more-teal" x="1500" y="1500" xmlns="http://www.w3.org/2000/svg"><path fill="#1F605F" d="M72.842 45.433H54.57V27.136c0-2.523-2.043-4.563-4.57-4.563s-4.57 2.04-4.57 4.563v18.297H27.138a4.575 4.575 0 0 0 0 9.149H45.43v18.274a4.57 4.57 0 1 0 9.141 0V54.584H72.86a4.564 4.564 0 0 0 4.556-4.579 4.576 4.576 0 0 0-4.574-4.572z"/><path fill="#1F605F" d="M77.429 98H22.578C11.23 98 2 88.78 2 77.436V22.572C2 11.244 11.223 2 22.578 2h54.851C88.766 2 98 11.244 98 22.572v54.863C98 88.78 88.766 98 77.429 98zM23.328 7.775c-8.578 0-15.563 6.984-15.563 15.548v53.349c0 8.578 6.985 15.549 15.563 15.549h53.344c8.578 0 15.547-6.987 15.547-15.549V23.323c0-8.579-6.969-15.548-15.547-15.548H23.328z"/></svg><svg width="100" height="100" viewBox="0 0 100 100" id="move-left" x="1600" y="1600" xmlns="http://www.w3.org/2000/svg"><path fill="#3280B7" d="M27.205 41.664l5.585-5.726-9.395-9.184c26.286 2.691 46.276 31.199 50.687 52.834l7.836-1.594C76.961 53.66 54.096 21.519 23.716 18.678l9.101-9.041-5.638-5.679-19.132 19 19.158 18.706z"/><path fill="#3280B7" d="M10.002 30.93H2v53.111c0 6.619 5.377 12 12 12h72c6.62 0 12-5.381 12-12V30.792c0-6.616-5.38-12-12-12H58.003v8.002H86a3.997 3.997 0 0 1 3.997 3.998v53.249A4.007 4.007 0 0 1 86 88.045H14a4.006 4.006 0 0 1-3.998-4.004V30.93z"/></svg><svg width="100" height="100" viewBox="0 0 100 100" id="move-left-disabled" x="1700" y="1700" xmlns="http://www.w3.org/2000/svg"><path fill="#C1C1C1" d="M27.205 41.664l5.585-5.726-9.395-9.184c26.286 2.691 46.276 31.199 50.687 52.834l7.836-1.594C76.961 53.66 54.096 21.519 23.716 18.678l9.101-9.041-5.638-5.679-19.132 19 19.158 18.706z"/><path fill="#C1C1C1" d="M10.002 30.93H2v53.111c0 6.619 5.377 12 12 12h72c6.62 0 12-5.381 12-12V30.792c0-6.616-5.38-12-12-12H58.003v8.002H86a3.997 3.997 0 0 1 3.997 3.998v53.249A4.007 4.007 0 0 1 86 88.045H14a4.006 4.006 0 0 1-3.998-4.004V30.93z"/></svg><svg width="100" height="100" viewBox="0 0 100 100" id="move-left-hover" x="1800" y="1800" xmlns="http://www.w3.org/2000/svg"><path fill="#0F5D8A" d="M27.205 41.664l5.585-5.726-9.395-9.184c26.286 2.691 46.276 31.199 50.687 52.834l7.836-1.594C76.961 53.66 54.096 21.519 23.716 18.678l9.101-9.041-5.638-5.679-19.132 19 19.158 18.706z"/><path fill="#0F5D8A" d="M10.002 30.93H2v53.111c0 6.619 5.377 12 12 12h72c6.62 0 12-5.381 12-12V30.792c0-6.616-5.38-12-12-12H58.003v8.002H86a3.997 3.997 0 0 1 3.997 3.998v53.249A4.007 4.007 0 0 1 86 88.045H14a4.006 4.006 0 0 1-3.998-4.004V30.93z"/></svg><svg width="100" height="100" viewBox="0 0 100 100" id="move-right" x="1900" y="1900" xmlns="http://www.w3.org/2000/svg"><path fill="#3280B7" d="M72.795 41.664l19.158-18.707L72.822 3.959l-5.639 5.679 9.101 9.041C45.903 21.518 23.037 53.66 18.083 77.995l7.835 1.594c4.41-21.636 24.4-50.143 50.687-52.834l-9.396 9.184 5.586 5.725z"/><path fill="#3280B7" d="M89.997 84.041A4.005 4.005 0 0 1 86 88.045H14a4.007 4.007 0 0 1-3.998-4.004V30.792c0-2.21 1.79-3.998 3.998-3.998h27.998v-8.002H14c-6.621 0-12 5.384-12 12v53.249c0 6.619 5.379 12 12 12h72c6.623 0 12-5.381 12-12V30.93h-8.003v53.111z"/></svg><svg width="100" height="100" viewBox="0 0 100 100" id="move-right-disabled" x="2000" y="2000" xmlns="http://www.w3.org/2000/svg"><path fill="#C1C1C1" d="M72.795 41.664l19.158-18.707L72.822 3.959l-5.639 5.679 9.101 9.041C45.903 21.518 23.037 53.66 18.083 77.995l7.835 1.594c4.41-21.636 24.4-50.143 50.687-52.834l-9.396 9.184 5.586 5.725z"/><path fill="#C1C1C1" d="M89.997 84.041A4.005 4.005 0 0 1 86 88.045H14a4.007 4.007 0 0 1-3.998-4.004V30.792c0-2.21 1.79-3.998 3.998-3.998h27.998v-8.002H14c-6.621 0-12 5.384-12 12v53.249c0 6.619 5.379 12 12 12h72c6.623 0 12-5.381 12-12V30.93h-8.003v53.111z"/></svg><svg width="100" height="100" viewBox="0 0 100 100" id="move-right-hover" x="2100" y="2100" xmlns="http://www.w3.org/2000/svg"><path fill="#0F5D8A" d="M72.795 41.664l19.158-18.707L72.822 3.959l-5.639 5.679 9.101 9.041C45.903 21.518 23.037 53.66 18.083 77.995l7.835 1.594c4.41-21.636 24.4-50.143 50.687-52.834l-9.396 9.184 5.586 5.725z"/><path fill="#0F5D8A" d="M89.997 84.041A4.005 4.005 0 0 1 86 88.045H14a4.007 4.007 0 0 1-3.998-4.004V30.792c0-2.21 1.79-3.998 3.998-3.998h27.998v-8.002H14c-6.621 0-12 5.384-12 12v53.249c0 6.619 5.379 12 12 12h72c6.623 0 12-5.381 12-12V30.93h-8.003v53.111z"/></svg><svg width="100" height="100" viewBox="-39.5 60.5 100 100" id="multiple-upload" x="2200" y="2200" xmlns="http://www.w3.org/2000/svg"><title>folder</title><path fill="#282828" d="M13.096 148.385v-41.783l8.762 8.768 3.8-3.789L10.5 96.418l-15.158 15.163 3.789 3.789 8.771-8.768v41.783z"/><path fill="#282828" d="M-9.644 148.385V121.76l8.766 8.768 3.799-3.79-15.158-15.163-15.158 15.163 3.79 3.79 8.771-8.768v26.625zM35.832 148.385V121.76l8.764 8.768 3.799-3.79-15.159-15.163-15.157 15.163 3.79 3.79 8.773-8.768v26.625zM-2.252 143.875h25.493v4.51H-2.252z"/><path fill="#282828" d="M51.315 85.651H12.521l-6.365-12.69-.163-.355h-36.328c-3.95 0-7.165 3.197-7.165 7.12v61.549c0 3.923 3.202 7.12 7.145 7.12h8.366v-4.51h-8.371a2.613 2.613 0 0 1-2.618-2.62V79.721a2.614 2.614 0 0 1 2.613-2.615H3.254l6.331 12.907.072.139h41.685c1.46 0 2.649 1.18 2.649 2.64v48.43a2.634 2.634 0 0 1-2.63 2.635h-8.374v4.515h8.379c3.938 0 7.135-3.202 7.135-7.13V92.767c-.011-3.918-3.228-7.116-7.186-7.116z"/></svg><svg width="100" height="100" viewBox="-39.5 60.5 100 100" id="multiple-upload-disabled" x="2300" y="2300" xmlns="http://www.w3.org/2000/svg"><title>folder</title><path fill="#BCBCBC" d="M13.096 148.385v-41.783l8.762 8.768 3.8-3.789L10.5 96.418l-15.158 15.163 3.789 3.789 8.771-8.768v41.783z"/><path fill="#BCBCBC" d="M-9.644 148.385V121.76l8.766 8.768 3.799-3.79-15.158-15.163-15.158 15.163 3.79 3.79 8.771-8.768v26.625zM35.832 148.385V121.76l8.764 8.768 3.799-3.79-15.159-15.163-15.157 15.163 3.79 3.79 8.773-8.768v26.625zM-2.252 143.875h25.493v4.51H-2.252z"/><path fill="#BCBCBC" d="M51.315 85.651H12.521l-6.365-12.69-.163-.355h-36.328c-3.95 0-7.165 3.197-7.165 7.12v61.549c0 3.923 3.202 7.12 7.145 7.12h8.366v-4.51h-8.371a2.613 2.613 0 0 1-2.618-2.62V79.721a2.614 2.614 0 0 1 2.613-2.615H3.254l6.331 12.907.072.139h41.685c1.46 0 2.649 1.18 2.649 2.64v48.43a2.634 2.634 0 0 1-2.63 2.635h-8.374v4.515h8.379c3.938 0 7.135-3.202 7.135-7.13V92.767c-.011-3.918-3.228-7.116-7.186-7.116z"/></svg><svg width="100" height="100" viewBox="0 0 100 100" id="not-allowed" x="2400" y="2400" xmlns="http://www.w3.org/2000/svg"><title>keyboard_arrow_up</title><title>keyboard_arrow_up</title><path fill="#C1C1C1" d="M50 2C23.489 2 2 23.489 2 50c0 26.516 21.489 48 48 48 26.506 0 48-21.484 48-48C98 23.493 76.506 2 50 2zm36.883 48c0 8.171-2.699 15.701-7.209 21.818L28.188 20.326c6.119-4.508 13.646-7.204 21.812-7.204C70.34 13.123 86.883 29.664 86.883 50zm-73.765 0c0-8.171 2.7-15.698 7.208-21.812l51.482 51.486c-6.107 4.51-13.643 7.209-21.809 7.209-20.335 0-36.881-16.543-36.881-36.883z"/></svg><svg width="100" height="100" viewBox="0 0 100 100" id="notifications" x="2500" y="2500" xmlns="http://www.w3.org/2000/svg"><path fill="#FFF" d="M80.157 68.844l10.125 10.131v4.947H9.717v-4.947l10.13-10.131V43.875c0-15.552 8.25-28.271 22.617-31.802V8.537c0-4.24 3.297-7.537 7.537-7.537 4.244 0 7.536 3.297 7.536 7.537v3.536c14.37 3.532 22.62 16.485 22.62 31.802v24.969zM50.001 99c-5.654 0-10.133-4.479-10.133-9.896h20.268C60.126 94.521 55.408 99 50.001 99z"/></svg></svg>