<?xml version="1.0" encoding="utf-8"?><!DOCTYPE svg PUBLIC "-//W3C//DTD SVG 1.1//EN" "http://www.w3.org/Graphics/SVG/1.1/DTD/svg11.dtd"><svg width="2752" height="2752" viewBox="0 0 2752 2752" xmlns="http://www.w3.org/2000/svg" xmlns:xlink="http://www.w3.org/1999/xlink"><svg width="100" height="100" viewBox="0 0 100 100" id="process" xmlns="http://www.w3.org/2000/svg"><path fill="#33B679" d="M65.494 12.53l-9.033-9.025a4.793 4.793 0 0 0-.801-.621v10.448h10.447a5.071 5.071 0 0 0-.613-.802zM32.667 59.855a4.996 4.996 0 0 0-.796-.617v10.449h10.448a5.543 5.543 0 0 0-.614-.801h-.011l-9.027-9.031z"/><path fill="#33B679" d="M78.754 72.51v.012a2.043 2.043 0 0 1-1.499-.627 2.04 2.04 0 0 1-.62-1.5V51.359c0-.652-.265-1.296-.723-1.75a2.542 2.542 0 0 0-1.762-.734H52.487v-7.219h12.392a2.03 2.03 0 0 0 1.5-.614c.416-.416.615-.917.615-1.506V16.172H54.953a2.061 2.061 0 0 1-1.5-.62 2.044 2.044 0 0 1-.625-1.506V2H35.135c-.588 0-1.084.204-1.506.62a2.057 2.057 0 0 0-.614 1.495v35.416c0 .584.209 1.088.614 1.5.416.417.917.615 1.506.615H47.51v7.225H25.848c-.657 0-1.291.265-1.76.73a2.557 2.557 0 0 0-.73 1.756v7h-12.02c-.592 0-1.089.197-1.506.613a2.054 2.054 0 0 0-.617 1.506v35.402c0 .592.209 1.093.617 1.511.417.408.915.611 1.506.611h29.739a2.06 2.06 0 0 0 1.5-.613c.417-.407.625-.92.625-1.5V72.51l-12.041.012a2.028 2.028 0 0 1-1.5-.627 2.008 2.008 0 0 1-.625-1.494V58.354h-.688v-4.51H71.65v4.51H58.932c-.594 0-1.095.199-1.511.613-.406.419-.615.92-.615 1.5v35.409a2.087 2.087 0 0 0 2.126 2.119h29.74c.582 0 1.081-.198 1.499-.608.415-.418.613-.92.613-1.511V72.51h-12.03z"/><path fill="#33B679" d="M79.463 69.677h10.436a6 6 0 0 0-.607-.79l-9.038-9.033c-.062-.061-.167-.125-.25-.187-.171-.147-.323-.292-.552-.437l.011 10.447z"/></svg><svg width="100" height="100" viewBox="0 0 100 100" id="process-disabled" x="100" y="100" xmlns="http://www.w3.org/2000/svg"><path fill="#C1C1C1" d="M65.494 12.53l-9.033-9.025a4.793 4.793 0 0 0-.801-.621v10.448h10.447a5.071 5.071 0 0 0-.613-.802zM32.667 59.855a4.996 4.996 0 0 0-.796-.617v10.449h10.448a5.543 5.543 0 0 0-.614-.801h-.011l-9.027-9.031z"/><path fill="#C1C1C1" d="M78.754 72.51v.012a2.043 2.043 0 0 1-1.499-.627 2.04 2.04 0 0 1-.62-1.5V51.359c0-.652-.265-1.296-.723-1.75a2.542 2.542 0 0 0-1.762-.734H52.487v-7.219h12.392a2.03 2.03 0 0 0 1.5-.614c.416-.416.615-.917.615-1.506V16.172H54.953a2.061 2.061 0 0 1-1.5-.62 2.044 2.044 0 0 1-.625-1.506V2H35.135c-.588 0-1.084.204-1.506.62a2.057 2.057 0 0 0-.614 1.495v35.416c0 .584.209 1.088.614 1.5.416.417.917.615 1.506.615H47.51v7.225H25.848c-.657 0-1.291.265-1.76.73a2.557 2.557 0 0 0-.73 1.756v7h-12.02c-.592 0-1.089.197-1.506.613a2.054 2.054 0 0 0-.617 1.506v35.402c0 .592.209 1.093.617 1.511.417.408.915.611 1.506.611h29.739a2.06 2.06 0 0 0 1.5-.613c.417-.407.625-.92.625-1.5V72.51l-12.041.012a2.028 2.028 0 0 1-1.5-.627 2.008 2.008 0 0 1-.625-1.494V58.354h-.688v-4.51H71.65v4.51H58.932c-.594 0-1.095.199-1.511.613-.406.419-.615.92-.615 1.5v35.409a2.087 2.087 0 0 0 2.126 2.119h29.74c.582 0 1.081-.198 1.499-.608.415-.418.613-.92.613-1.511V72.51h-12.03z"/><path fill="#C1C1C1" d="M79.463 69.677h10.436a6 6 0 0 0-.607-.79l-9.038-9.033c-.062-.061-.167-.125-.25-.187-.171-.147-.323-.292-.552-.437l.011 10.447z"/></svg><svg width="100" height="100" viewBox="0 0 100 100" id="process-hover" x="200" y="200" xmlns="http://www.w3.org/2000/svg"><path fill="#2BA066" d="M65.494 12.53l-9.033-9.025a4.793 4.793 0 0 0-.801-.621v10.448h10.447a5.071 5.071 0 0 0-.613-.802zM32.667 59.855a4.996 4.996 0 0 0-.796-.617v10.449h10.448a5.543 5.543 0 0 0-.614-.801h-.011l-9.027-9.031z"/><path fill="#2BA066" d="M78.754 72.51v.012a2.043 2.043 0 0 1-1.499-.627 2.04 2.04 0 0 1-.62-1.5V51.359c0-.652-.265-1.296-.723-1.75a2.542 2.542 0 0 0-1.762-.734H52.487v-7.219h12.392a2.03 2.03 0 0 0 1.5-.614c.416-.416.615-.917.615-1.506V16.172H54.953a2.061 2.061 0 0 1-1.5-.62 2.044 2.044 0 0 1-.625-1.506V2H35.135c-.588 0-1.084.204-1.506.62a2.057 2.057 0 0 0-.614 1.495v35.416c0 .584.209 1.088.614 1.5.416.417.917.615 1.506.615H47.51v7.225H25.848c-.657 0-1.291.265-1.76.73a2.557 2.557 0 0 0-.73 1.756v7h-12.02c-.592 0-1.089.197-1.506.613a2.054 2.054 0 0 0-.617 1.506v35.402c0 .592.209 1.093.617 1.511.417.408.915.611 1.506.611h29.739a2.06 2.06 0 0 0 1.5-.613c.417-.407.625-.92.625-1.5V72.51l-12.041.012a2.028 2.028 0 0 1-1.5-.627 2.008 2.008 0 0 1-.625-1.494V58.354h-.688v-4.51H71.65v4.51H58.932c-.594 0-1.095.199-1.511.613-.406.419-.615.92-.615 1.5v35.409a2.087 2.087 0 0 0 2.126 2.119h29.74c.582 0 1.081-.198 1.499-.608.415-.418.613-.92.613-1.511V72.51h-12.03z"/><path fill="#2BA066" d="M79.463 69.677h10.436a6 6 0 0 0-.607-.79l-9.038-9.033c-.062-.061-.167-.125-.25-.187-.171-.147-.323-.292-.552-.437l.011 10.447z"/></svg><svg width="100" height="100" viewBox="0 0 100 100" id="query" x="300" y="300" xmlns="http://www.w3.org/2000/svg"><path fill="#FFF" d="M71.811 8.571C65.727 4.188 58.094 2 48.889 2 41.899 2 35.991 3.537 31.2 6.627c-7.617 4.833-11.658 13.046-12.143 24.615h17.636c0-3.376.989-6.61 2.951-9.751 1.969-3.122 5.306-4.688 10.02-4.688 4.792 0 8.098 1.275 9.889 3.807 1.814 2.54 2.707 5.353 2.707 8.432 0 2.696-1.342 5.152-2.975 7.378-.885 1.299-2.061 2.499-3.514 3.595 0 0-9.564 6.131-13.765 11.063-2.437 2.85-2.653 7.134-2.875 13.271-.01.44.153 1.345 1.685 1.345h13.713c1.363 0 1.648-1.011 1.668-1.462.098-2.23.342-3.375.75-4.668.773-2.438 2.865-4.562 5.221-6.395l4.854-3.348c4.387-3.417 7.875-6.215 9.432-8.414 2.633-3.605 4.49-8.053 4.49-13.336-.022-8.614-3.049-15.102-9.133-19.5zM48.605 76.272c-6.073-.188-11.083 4.012-11.281 10.612-.187 6.582 4.576 10.931 10.658 11.109 6.341.187 11.231-3.871 11.429-10.472.177-6.589-4.45-11.066-10.806-11.249z"/></svg><svg width="100" height="100" viewBox="0 0 100 100" id="remind" x="400" y="400" xmlns="http://www.w3.org/2000/svg"><path fill="#FFF" d="M79.542 68.459l9.918 9.924v4.848H10.539v-4.848l9.923-9.924V44c0-15.234 8.082-27.694 22.155-31.152V9.383C42.617 5.229 45.848 2 50.001 2c4.158 0 7.382 3.229 7.382 7.383v3.465C71.46 16.307 79.542 28.996 79.542 44v24.459zM50.001 98c-5.539 0-9.926-4.387-9.926-9.695H59.93C59.919 93.613 55.297 98 50.001 98z"/></svg><svg width="100" height="100" viewBox="0 0 100 100" id="return" x="500" y="500" xmlns="http://www.w3.org/2000/svg"><title>return3</title><path fill="#FFF" d="M12.142 77.521c0 3.725-2.277 6.764-5.073 6.764C4.277 84.285 2 81.246 2 77.521V22.477c0-3.709 2.284-6.763 5.069-6.763 2.795 0 5.073 3.054 5.073 6.763v55.044zM54.865 77.05c0 3.725-2.289 4.749-5.082 2.305L21.372 54.458c-2.799-2.442-2.799-6.454 0-8.905L49.783 20.65c2.805-2.458 5.088-1.413 5.088 2.31l-.006 54.09zM97.994 77.05c0 3.725-2.291 4.749-5.09 2.305L64.5 54.458c-2.805-2.442-2.805-6.454 0-8.905L92.912 20.65C95.71 18.193 98 19.238 98 22.96v54.09h-.006z"/></svg><svg width="100" height="100" viewBox="0 0 100 100" id="seal" x="600" y="600" xmlns="http://www.w3.org/2000/svg"><path fill="#E57B72" d="M84.234 73.756a5.954 5.954 0 0 0-4.246-1.762c-8.281 0-21.993-6.774-21.993-13.993 0 0 .021-10.75.021-12.553 0-2.843 0-3.292 4.816-8.104a20.023 20.023 0 0 0 7.167-15.345C70 10.989 61.012 2 49.995 2c-11.019 0-20 8.989-20 20 0 5.928 2.625 11.517 7.033 15.22 4.967 4.963 4.967 5.406 4.967 8.78v12.001c0 7.219-13.712 13.993-21.995 13.993-3.303 0-6 2.699-6 6v6C14 85.1 14.896 86 16 86h67.995a2.01 2.01 0 0 0 2.006-2.006v-6a5.923 5.923 0 0 0-1.767-4.238zM48.39 14.157a8.022 8.022 0 0 0-4.823 12.624 2.001 2.001 0 0 1-1.593 3.198 2.064 2.064 0 0 1-1.606-.802 11.955 11.955 0 0 1-2.378-7.183c0-5.681 4.042-10.625 9.579-11.76a1.99 1.99 0 0 1 2.36 1.563c.217 1.078-.46 2.145-1.539 2.36zM21.994 89.994h-3.999v6C17.995 97.1 18.892 98 20 98h59.994c1.099 0 2.001-.9 2.001-2.006v-6H21.994z"/></svg><svg width="100" height="100" viewBox="0 0 100 100" id="seal-disabled" x="700" y="700" xmlns="http://www.w3.org/2000/svg"><path fill="#C1C1C1" d="M84.234 73.756a5.954 5.954 0 0 0-4.246-1.762c-8.281 0-21.993-6.774-21.993-13.993 0 0 .021-10.75.021-12.553 0-2.843 0-3.292 4.816-8.104a20.023 20.023 0 0 0 7.167-15.345C70 10.989 61.012 2 49.995 2c-11.019 0-20 8.989-20 20 0 5.928 2.625 11.517 7.033 15.22 4.967 4.963 4.967 5.406 4.967 8.78v12.001c0 7.219-13.712 13.993-21.995 13.993-3.303 0-6 2.699-6 6v6C14 85.1 14.896 86 16 86h67.995a2.01 2.01 0 0 0 2.006-2.006v-6a5.923 5.923 0 0 0-1.767-4.238zM48.39 14.157a8.022 8.022 0 0 0-4.823 12.624 2.001 2.001 0 0 1-1.593 3.198 2.064 2.064 0 0 1-1.606-.802 11.955 11.955 0 0 1-2.378-7.183c0-5.681 4.042-10.625 9.579-11.76a1.99 1.99 0 0 1 2.36 1.563c.217 1.078-.46 2.145-1.539 2.36zM21.994 89.994h-3.999v6C17.995 97.1 18.892 98 20 98h59.994c1.099 0 2.001-.9 2.001-2.006v-6H21.994z"/></svg><svg width="100" height="100" viewBox="0 0 100 100" id="seal-hover" x="800" y="800" xmlns="http://www.w3.org/2000/svg"><path fill="#CC625C" d="M84.234 73.756a5.954 5.954 0 0 0-4.246-1.762c-8.281 0-21.993-6.774-21.993-13.993 0 0 .021-10.75.021-12.553 0-2.843 0-3.292 4.816-8.104a20.023 20.023 0 0 0 7.167-15.345C70 10.989 61.012 2 49.995 2c-11.019 0-20 8.989-20 20 0 5.928 2.625 11.517 7.033 15.22 4.967 4.963 4.967 5.406 4.967 8.78v12.001c0 7.219-13.712 13.993-21.995 13.993-3.303 0-6 2.699-6 6v6C14 85.1 14.896 86 16 86h67.995a2.01 2.01 0 0 0 2.006-2.006v-6a5.923 5.923 0 0 0-1.767-4.238zM48.39 14.157a8.022 8.022 0 0 0-4.823 12.624 2.001 2.001 0 0 1-1.593 3.198 2.064 2.064 0 0 1-1.606-.802 11.955 11.955 0 0 1-2.378-7.183c0-5.681 4.042-10.625 9.579-11.76a1.99 1.99 0 0 1 2.36 1.563c.217 1.078-.46 2.145-1.539 2.36zM21.994 89.994h-3.999v6C17.995 97.1 18.892 98 20 98h59.994c1.099 0 2.001-.9 2.001-2.006v-6H21.994z"/></svg><svg width="100" height="100" viewBox="0 0 100 100" id="sortdown" x="900" y="900" xmlns="http://www.w3.org/2000/svg"><path fill="#34495E" d="M40.13 62.064L22.41 44.335a4.413 4.413 0 0 0-3.135-1.287 4.404 4.404 0 0 0-3.132 1.287l-7.686 7.69a4.4 4.4 0 0 0-1.301 3.137c0 1.188.462 2.3 1.299 3.135l38.409 38.408A4.39 4.39 0 0 0 50 98a4.4 4.4 0 0 0 3.136-1.291l38.411-38.41a4.446 4.446 0 0 0 .004-6.273l-7.684-7.69a4.402 4.402 0 0 0-3.132-1.287 4.4 4.4 0 0 0-3.13 1.287L59.868 62.068V6.429A4.438 4.438 0 0 0 55.431 2h-10.86a4.44 4.44 0 0 0-4.44 4.429l-.001 55.635z"/></svg><svg width="100" height="100" viewBox="0 0 100 100" id="sortdown-disabled" x="1000" y="1000" xmlns="http://www.w3.org/2000/svg"><path fill="#C1C1C1" d="M40.13 62.065l-17.72-17.73a4.413 4.413 0 0 0-3.135-1.287 4.404 4.404 0 0 0-3.132 1.287l-7.686 7.689a4.401 4.401 0 0 0-1.301 3.137c0 1.188.462 2.301 1.299 3.136l38.409 38.409A4.388 4.388 0 0 0 50 98a4.392 4.392 0 0 0 3.135-1.292L91.547 58.3a4.446 4.446 0 0 0 .004-6.273l-7.685-7.691a4.4 4.4 0 0 0-3.131-1.287 4.405 4.405 0 0 0-3.131 1.287L59.868 62.069V6.429A4.438 4.438 0 0 0 55.431 2H44.572a4.44 4.44 0 0 0-4.44 4.429l-.002 55.636z"/></svg><svg width="100" height="100" viewBox="0 0 100 100" id="sortdown-hover" x="1100" y="1100" xmlns="http://www.w3.org/2000/svg"><path fill="#253544" d="M40.13 62.064L22.41 44.335a4.413 4.413 0 0 0-3.135-1.287 4.404 4.404 0 0 0-3.132 1.287l-7.686 7.69a4.4 4.4 0 0 0-1.301 3.137c0 1.188.462 2.3 1.299 3.135l38.409 38.408A4.39 4.39 0 0 0 50 98a4.4 4.4 0 0 0 3.136-1.291l38.411-38.41a4.446 4.446 0 0 0 .004-6.273l-7.684-7.69a4.402 4.402 0 0 0-3.132-1.287 4.4 4.4 0 0 0-3.13 1.287L59.868 62.068V6.429A4.438 4.438 0 0 0 55.431 2h-10.86a4.44 4.44 0 0 0-4.44 4.429l-.001 55.635z"/></svg><svg width="100" height="100" viewBox="0 0 100 100" id="sortup" x="1200" y="1200" xmlns="http://www.w3.org/2000/svg"><path fill="#34495E" d="M59.87 37.933l17.72 17.733a4.406 4.406 0 0 0 3.133 1.285 4.4 4.4 0 0 0 3.133-1.285l7.687-7.692a4.396 4.396 0 0 0 1.302-3.136 4.391 4.391 0 0 0-1.3-3.134L53.136 3.294A4.397 4.397 0 0 0 50 2a4.39 4.39 0 0 0-3.135 1.292L8.454 41.701a4.444 4.444 0 0 0-.004 6.273l7.683 7.693a4.403 4.403 0 0 0 3.131 1.286c1.187 0 2.3-.457 3.131-1.286l17.736-17.736v55.641A4.438 4.438 0 0 0 44.568 98h10.859c2.448 0 4.441-1.986 4.441-4.428l.002-55.639z"/></svg><svg width="100" height="100" viewBox="0 0 100 100" id="sortup-disabled" x="1300" y="1300" xmlns="http://www.w3.org/2000/svg"><path fill="#C1C1C1" d="M59.871 37.934l17.72 17.733a4.406 4.406 0 0 0 3.132 1.285 4.404 4.404 0 0 0 3.135-1.285l7.686-7.692a4.391 4.391 0 0 0 1.301-3.136 4.386 4.386 0 0 0-1.299-3.134L53.137 3.293A4.398 4.398 0 0 0 50 2a4.389 4.389 0 0 0-3.135 1.292L8.454 41.7a4.444 4.444 0 0 0-.004 6.273l7.684 7.693a4.403 4.403 0 0 0 3.132 1.286c1.187 0 2.3-.457 3.131-1.286L40.133 37.93v55.641A4.438 4.438 0 0 0 44.57 98h10.859c2.448 0 4.441-1.987 4.441-4.429l.001-55.637z"/></svg><svg width="100" height="100" viewBox="0 0 100 100" id="sortup-hover" x="1400" y="1400" xmlns="http://www.w3.org/2000/svg"><path fill="#253544" d="M59.871 37.934l17.72 17.733a4.406 4.406 0 0 0 3.132 1.285 4.404 4.404 0 0 0 3.135-1.285l7.686-7.692a4.391 4.391 0 0 0 1.301-3.136 4.386 4.386 0 0 0-1.299-3.134L53.137 3.293A4.398 4.398 0 0 0 50 2a4.389 4.389 0 0 0-3.135 1.292L8.454 41.7a4.444 4.444 0 0 0-.004 6.273l7.684 7.693a4.403 4.403 0 0 0 3.132 1.286c1.187 0 2.3-.457 3.131-1.286L40.133 37.93v55.641A4.438 4.438 0 0 0 44.57 98h10.859c2.448 0 4.441-1.987 4.441-4.429l.001-55.637z"/></svg><svg width="100" height="100" viewBox="0 0 100 100" id="stepmoveleft" x="1500" y="1500" xmlns="http://www.w3.org/2000/svg"><title>return3</title><path fill="#555" d="M61.894 95.381c-3.469-3.384-37.271-38.857-37.271-38.857-1.848-1.828-2.777-4.172-2.777-6.532 0-2.36.922-4.719 2.777-6.517 0 0 33.802-35.505 37.271-38.857 3.469-3.375 9.689-3.602 13.386 0 3.687 3.586 3.977 8.619 0 13.034l-31.013 32.34L75.28 82.348c3.977 4.414 3.687 9.447 0 13.048-3.713 3.58-9.918 3.368-13.386-.015z"/></svg><svg width="100" height="100" viewBox="0 0 100 100" id="stepmoveright" x="1600" y="1600" xmlns="http://www.w3.org/2000/svg"><title>return3</title><path fill="#555" d="M38.106 4.619c3.469 3.384 37.27 38.858 37.27 38.858 1.85 1.828 2.779 4.172 2.779 6.532 0 2.36-.922 4.72-2.779 6.516 0 0-33.801 35.507-37.27 38.858-3.47 3.375-9.69 3.602-13.386 0-3.688-3.587-3.977-8.619 0-13.033l31.014-32.342L24.72 17.652c-3.977-4.415-3.688-9.447 0-13.048 3.712-3.579 9.916-3.368 13.386.015z"/></svg><svg width="100" height="100" viewBox="0 0 100 100" id="success" x="1700" y="1700" xmlns="http://www.w3.org/2000/svg"><path fill="#FFF" d="M98 27.575c0 1.65-.58 3.061-1.736 4.219L43 85.053c-1.162 1.151-2.561 1.731-4.21 1.731-1.65 0-3.052-.585-4.212-1.731L3.736 54.209C2.575 53.054 2 51.647 2 49.999c0-1.65.575-3.052 1.733-4.205l8.426-8.426c1.155-1.164 2.557-1.737 4.21-1.737 1.65 0 3.052.578 4.207 1.737l18.215 18.269 40.625-40.691c1.16-1.151 2.563-1.729 4.211-1.729 1.654 0 3.061.583 4.21 1.729l8.427 8.42c1.166 1.156 1.734 2.565 1.734 4.219H98v-.01z"/></svg><svg width="100" height="100" viewBox="0 0 100 100" id="trash" x="1800" y="1800" xmlns="http://www.w3.org/2000/svg"><path fill="#D84A55" d="M95.979 19.685H72.371l-4.018-9.583c-1.256-3.063-5.011-5.575-8.338-5.575H39.981c-3.321 0-7.074 2.507-8.332 5.575l-4.024 9.583H4.016c-1.1 0-2.016.906-2.016 2.023v3.532a2.03 2.03 0 0 0 2.016 2.023h10.616v56.254c0 6.577 4.3 11.956 9.56 11.956h51.615c5.26 0 9.563-5.615 9.563-12.191V27.264h10.609A2.025 2.025 0 0 0 98 25.241v-3.532a2.024 2.024 0 0 0-2.021-2.024zM39.037 13.24c.187-.256.685-.622 1.065-.695h19.866c.306.074.868.439 1.055.695l2.645 6.445h-27.33l2.699-6.445zm-.516 65.02c0 1.08-.833 1.918-1.909 1.918H32.78a1.89 1.89 0 0 1-1.909-1.918V36.175c0-1.081.838-1.924 1.909-1.924h3.832c1.076 0 1.909.844 1.909 1.924V78.26zm15.313 0c0 1.08-.844 1.918-1.919 1.918h-3.819a1.9 1.9 0 0 1-1.924-1.918V36.175c0-1.081.849-1.924 1.924-1.924h3.819c1.075 0 1.919.844 1.919 1.924V78.26zm15.301 0c0 1.08-.839 1.918-1.915 1.918h-3.828a1.892 1.892 0 0 1-1.914-1.918V36.175c0-1.081.839-1.924 1.914-1.924h3.828c1.076 0 1.915.844 1.915 1.924V78.26z"/></svg><svg width="100" height="100" viewBox="0 0 100 100" id="trash-disabled" x="1900" y="1900" xmlns="http://www.w3.org/2000/svg"><path fill="#C1C1C1" d="M95.979 19.685H72.371l-4.018-9.583c-1.256-3.063-5.011-5.575-8.338-5.575H39.981c-3.321 0-7.074 2.507-8.332 5.575l-4.024 9.583H4.016c-1.1 0-2.016.906-2.016 2.023v3.532a2.03 2.03 0 0 0 2.016 2.023h10.616v56.254c0 6.577 4.3 11.956 9.56 11.956h51.615c5.26 0 9.563-5.615 9.563-12.191V27.264h10.609A2.025 2.025 0 0 0 98 25.241v-3.532a2.024 2.024 0 0 0-2.021-2.024zM39.037 13.24c.187-.256.685-.622 1.065-.695h19.866c.306.074.868.439 1.055.695l2.645 6.445h-27.33l2.699-6.445zm-.516 65.02c0 1.08-.833 1.918-1.909 1.918H32.78a1.89 1.89 0 0 1-1.909-1.918V36.175c0-1.081.838-1.924 1.909-1.924h3.832c1.076 0 1.909.844 1.909 1.924V78.26zm15.313 0c0 1.08-.844 1.918-1.919 1.918h-3.819a1.9 1.9 0 0 1-1.924-1.918V36.175c0-1.081.849-1.924 1.924-1.924h3.819c1.075 0 1.919.844 1.919 1.924V78.26zm15.301 0c0 1.08-.839 1.918-1.915 1.918h-3.828a1.892 1.892 0 0 1-1.914-1.918V36.175c0-1.081.839-1.924 1.914-1.924h3.828c1.076 0 1.915.844 1.915 1.924V78.26z"/></svg><svg width="100" height="100" viewBox="0 0 100 100" id="trash-hover" x="2000" y="2000" xmlns="http://www.w3.org/2000/svg"><path fill="#C00" d="M95.979 19.685H72.371l-4.018-9.583c-1.256-3.063-5.011-5.575-8.338-5.575H39.981c-3.321 0-7.074 2.507-8.332 5.575l-4.024 9.583H4.016c-1.1 0-2.016.906-2.016 2.023v3.532a2.03 2.03 0 0 0 2.016 2.023h10.616v56.254c0 6.577 4.3 11.956 9.56 11.956h51.615c5.26 0 9.563-5.615 9.563-12.191V27.264h10.609A2.025 2.025 0 0 0 98 25.241v-3.532a2.024 2.024 0 0 0-2.021-2.024zM39.037 13.24c.187-.256.685-.622 1.065-.695h19.866c.306.074.868.439 1.055.695l2.645 6.445h-27.33l2.699-6.445zm-.516 65.02c0 1.08-.833 1.918-1.909 1.918H32.78a1.89 1.89 0 0 1-1.909-1.918V36.175c0-1.081.838-1.924 1.909-1.924h3.832c1.076 0 1.909.844 1.909 1.924V78.26zm15.313 0c0 1.08-.844 1.918-1.919 1.918h-3.819a1.9 1.9 0 0 1-1.924-1.918V36.175c0-1.081.849-1.924 1.924-1.924h3.819c1.075 0 1.919.844 1.919 1.924V78.26zm15.301 0c0 1.08-.839 1.918-1.915 1.918h-3.828a1.892 1.892 0 0 1-1.914-1.918V36.175c0-1.081.839-1.924 1.914-1.924h3.828c1.076 0 1.915.844 1.915 1.924V78.26z"/></svg><svg width="10" height="10" viewBox="0 0 10 10" id="triangle-down" x="2100" y="2100" xmlns="http://www.w3.org/2000/svg"><title>keyboard_arrow_down</title><path fill="#2D2D2D" d="M9 3L5 7 1 3h8z"/><title>keyboard_arrow_up</title></svg><svg width="10" height="10" viewBox="0 0 10 10" id="triangle-up" x="2110" y="2110" xmlns="http://www.w3.org/2000/svg"><title>keyboard_arrow_up</title><path fill="#2D2D2D" d="M1 7l4-4 4 4H1z"/></svg><svg width="16" height="16" viewBox="-0.5 42.5 16 16" id="up-btn" x="2120" y="2120" xmlns="http://www.w3.org/2000/svg"><title>arrow-up</title><path d="M12.387 49.727c.151-.151.151-.356-.001-.51l-4.632-4.631c-.019-.019-.03-.029-.034-.035l-.092-.044a.745.745 0 0 0-.247.006.798.798 0 0 1-.125.071l-4.643 4.634c-.152.152-.152.357 0 .511a.35.35 0 0 0 .508-.002l4.011-4.012v10.418c0 .241.126.367.367.367s.367-.126.367-.367V45.715l4.012 4.014c.136.132.35.159.509-.002z"/></svg><svg width="16" height="16" viewBox="-4.5 38.5 16 16" id="up-btn-disabled" x="2136" y="2136" xmlns="http://www.w3.org/2000/svg"><title>arrow-up</title><path fill="#BCBCBC" d="M8.386 45.727c.152-.15.152-.355 0-.51l-4.631-4.631c-.019-.02-.03-.029-.034-.035l-.092-.044a.712.712 0 0 0-.247.007.778.778 0 0 1-.125.07l-4.642 4.634c-.152.152-.152.357 0 .511a.349.349 0 0 0 .508-.002l4.01-4.012v10.418c0 .241.126.367.367.367s.367-.126.367-.367V41.715l4.012 4.014c.134.132.349.16.507-.002z"/></svg><svg width="100" height="100" viewBox="0 0 100 100" id="up-circle" x="2152" y="2152" xmlns="http://www.w3.org/2000/svg"><path fill="#555" d="M50 98c26.592 0 48-21.398 48-48S76.592 2 50 2C23.41 2 2 23.398 2 50c0 26.6 21.41 48 48 48zM22.308 56.551l28.008-27.825.301.298L77.995 56.6l-6.427 6.421-.306-.312-20.957-21.135-21.891 21.703-6.416-6.422.31-.304z"/></svg><svg width="100" height="100" viewBox="0 0 100 100" id="upload-file" x="2252" y="2252" xmlns="http://www.w3.org/2000/svg"><path fill="#282828" d="M52.649 88.685V52.649l8.946 8.931 3.879-3.858L50 42.263 34.526 57.722l3.869 3.858 8.953-8.931v36.036z"/><path fill="#282828" d="M91.666 24.634H52.065l-6.5-12.956-.167-.362H8.313C4.282 11.316 1 14.58 1 18.584v62.832c0 4.004 3.269 7.269 7.293 7.269h29.172V84.08H8.289a2.666 2.666 0 0 1-2.672-2.669V18.579a2.668 2.668 0 0 1 2.667-2.669h34.319l6.462 13.177.073.141h42.553a2.704 2.704 0 0 1 2.705 2.7v49.438a2.683 2.683 0 0 1-2.68 2.685H62.532v4.609h29.185c4.02 0 7.283-3.27 7.283-7.278V31.897c-.01-4-3.294-7.263-7.334-7.263z"/></svg><svg width="100" height="100" viewBox="0 0 100 100" id="upload-file-disabled" x="2352" y="2352" xmlns="http://www.w3.org/2000/svg"><path fill="#BCBCBC" d="M52.649 88.685V52.649l8.946 8.931 3.879-3.858L50 42.263 34.526 57.722l3.869 3.858 8.953-8.931v36.036z"/><path fill="#BCBCBC" d="M91.666 24.634H52.065l-6.5-12.956-.167-.362H8.313C4.282 11.316 1 14.58 1 18.584v62.832c0 4.004 3.269 7.269 7.293 7.269h29.172V84.08H8.289a2.666 2.666 0 0 1-2.672-2.669V18.579a2.668 2.668 0 0 1 2.667-2.669h34.319l6.462 13.177.073.141h42.553a2.704 2.704 0 0 1 2.705 2.7v49.438a2.683 2.683 0 0 1-2.68 2.685H62.532v4.609h29.185c4.02 0 7.283-3.27 7.283-7.278V31.897c-.01-4-3.294-7.263-7.334-7.263z"/></svg><svg width="100" height="100" viewBox="0 0 100 100" id="upload-multiple" x="2452" y="2452" xmlns="http://www.w3.org/2000/svg"><g fill="#282828"><path d="M52.649 46.021l8.946 8.951 3.879-3.868L50 35.625 34.526 51.104l3.869 3.868 8.953-8.951V84.07H36.982v4.604h26.024V84.07H52.649z"/><path d="M42.263 66.577L26.79 51.098 11.316 66.577l3.868 3.868 8.954-8.951v27.18h5.299v-27.18l8.948 8.951zM88.685 66.577L73.211 51.098 57.737 66.577l3.868 3.868 8.957-8.951v27.18h5.298v-27.18l8.946 8.951z"/><path d="M91.666 24.634H52.065l-6.5-12.956-.167-.362H8.313C4.282 11.316 1 14.58 1 18.584v62.832c0 4.004 3.269 7.269 7.293 7.269h8.541V84.08H8.289a2.666 2.666 0 0 1-2.672-2.669V18.579a2.668 2.668 0 0 1 2.667-2.669h34.319l6.462 13.177.073.141h42.553a2.704 2.704 0 0 1 2.705 2.7v49.438a2.683 2.683 0 0 1-2.68 2.685h-8.553v4.609h8.553c4.02 0 7.283-3.27 7.283-7.278V31.897c-.009-4-3.293-7.263-7.333-7.263z"/></g></svg><svg width="100" height="100" viewBox="0 0 100 100" id="upload-multiple-disabled" x="2552" y="2552" xmlns="http://www.w3.org/2000/svg"><g fill="#BCBCBC"><path d="M52.649 46.021l8.946 8.951 3.879-3.868L50 35.625 34.526 51.104l3.869 3.868 8.953-8.951V84.07H36.982v4.604h26.024V84.07H52.649z"/><path d="M42.263 66.577L26.79 51.098 11.316 66.577l3.868 3.868 8.954-8.951v27.18h5.299v-27.18l8.948 8.951zM88.685 66.577L73.211 51.098 57.737 66.577l3.868 3.868 8.957-8.951v27.18h5.298v-27.18l8.946 8.951z"/><path d="M91.666 24.634H52.065l-6.5-12.956-.167-.362H8.313C4.282 11.316 1 14.58 1 18.584v62.832c0 4.004 3.269 7.269 7.293 7.269h8.541V84.08H8.289a2.666 2.666 0 0 1-2.672-2.669V18.579a2.668 2.668 0 0 1 2.667-2.669h34.319l6.462 13.177.073.141h42.553a2.704 2.704 0 0 1 2.705 2.7v49.438a2.683 2.683 0 0 1-2.68 2.685h-8.553v4.609h8.553c4.02 0 7.283-3.27 7.283-7.278V31.897c-.009-4-3.293-7.263-7.333-7.263z"/></g></svg><svg width="100" height="100" viewBox="0 0 100 100" id="warning" x="2652" y="2652" xmlns="http://www.w3.org/2000/svg"><path fill="#FFF" d="M63.09 78.362v15.275c0 2.386-1.977 4.362-4.362 4.362H41.272c-2.386 0-4.364-1.979-4.364-4.362V78.362c0-2.386 1.978-4.362 4.364-4.362h17.455c2.386 0 4.363 1.979 4.363 4.362zm2.048-71.998l-1.91 52.364c-.069 2.385-2.114 4.362-4.5 4.362H41.272c-2.386 0-4.433-1.978-4.5-4.362L34.863 6.364A4.237 4.237 0 0 1 39.091 2H60.91c2.386 0 4.293 1.978 4.228 4.364z"/></svg></svg>